<?xml version="1.0" standalone="no"?>
  <!DOCTYPE svg PUBLIC "-//W3C//DTD SVG 1.1//EN" "http://www.w3.org/Graphics/SVG/1.1/DTD/svg11.dtd" >
  <svg>
  <metadata>
  Created by font-carrier
  </metadata>
  <defs>
  <font id="Organetto-Bold" horiz-adv-x="2318" vert-adv-y="2318" >
    <font-face
      
      font-family="Organetto Bold"
      
      font-weight="400"
      
      font-stretch="normal"
      
      units-per-em="1000"
      
      ascent="1012"
      
      descent="-341"
      
    />
      <missing-glyph />

      

      
      <glyph glyph-name="uniac" unicode="&#xac;" d="M75 0L75 730L505 730L505 0L75 0M440 695L140 695L290 408L440 695M115 73L268 365L115 657L115 73M465 657L313 365L465 73L465 657M440 35L290 322L140 35L440 35Z"  horiz-adv-x="579" vert-adv-y="1000"  />

      
      <glyph glyph-name="uniad" unicode="&#xad;" d="M75 0L75 730L505 730L505 0L75 0M440 695L140 695L290 408L440 695M115 73L268 365L115 657L115 73M465 657L313 365L465 73L465 657M440 35L290 322L140 35L440 35Z"  horiz-adv-x="579" vert-adv-y="1000"  />

      
      <glyph glyph-name="unib5" unicode="&#xb5;" d="M75 0L75 730L505 730L505 0L75 0M440 695L140 695L290 408L440 695M115 73L268 365L115 657L115 73M465 657L313 365L465 73L465 657M440 35L290 322L140 35L440 35Z"  horiz-adv-x="579" vert-adv-y="1000"  />

      
      <glyph glyph-name="uni0108" unicode="&#x0108;" d="M75 0L75 730L505 730L505 0L75 0M440 695L140 695L290 408L440 695M115 73L268 365L115 657L115 73M465 657L313 365L465 73L465 657M440 35L290 322L140 35L440 35Z"  horiz-adv-x="579" vert-adv-y="1000"  />

      
      <glyph glyph-name="uni0109" unicode="&#x0109;" d="M75 0L75 730L505 730L505 0L75 0M440 695L140 695L290 408L440 695M115 73L268 365L115 657L115 73M465 657L313 365L465 73L465 657M440 35L290 322L140 35L440 35Z"  horiz-adv-x="579" vert-adv-y="1000"  />

      
      <glyph glyph-name="uni0114" unicode="&#x0114;" d="M75 0L75 730L505 730L505 0L75 0M440 695L140 695L290 408L440 695M115 73L268 365L115 657L115 73M465 657L313 365L465 73L465 657M440 35L290 322L140 35L440 35Z"  horiz-adv-x="579" vert-adv-y="1000"  />

      
      <glyph glyph-name="uni0115" unicode="&#x0115;" d="M75 0L75 730L505 730L505 0L75 0M440 695L140 695L290 408L440 695M115 73L268 365L115 657L115 73M465 657L313 365L465 73L465 657M440 35L290 322L140 35L440 35Z"  horiz-adv-x="579" vert-adv-y="1000"  />

      
      <glyph glyph-name="uni011C" unicode="&#x011C;" d="M75 0L75 730L505 730L505 0L75 0M440 695L140 695L290 408L440 695M115 73L268 365L115 657L115 73M465 657L313 365L465 73L465 657M440 35L290 322L140 35L440 35Z"  horiz-adv-x="579" vert-adv-y="1000"  />

      
      <glyph glyph-name="uni011D" unicode="&#x011D;" d="M75 0L75 730L505 730L505 0L75 0M440 695L140 695L290 408L440 695M115 73L268 365L115 657L115 73M465 657L313 365L465 73L465 657M440 35L290 322L140 35L440 35Z"  horiz-adv-x="579" vert-adv-y="1000"  />

      
      <glyph glyph-name="uni0124" unicode="&#x0124;" d="M75 0L75 730L505 730L505 0L75 0M440 695L140 695L290 408L440 695M115 73L268 365L115 657L115 73M465 657L313 365L465 73L465 657M440 35L290 322L140 35L440 35Z"  horiz-adv-x="579" vert-adv-y="1000"  />

      
      <glyph glyph-name="uni0125" unicode="&#x0125;" d="M75 0L75 730L505 730L505 0L75 0M440 695L140 695L290 408L440 695M115 73L268 365L115 657L115 73M465 657L313 365L465 73L465 657M440 35L290 322L140 35L440 35Z"  horiz-adv-x="579" vert-adv-y="1000"  />

      
      <glyph glyph-name="uni012C" unicode="&#x012C;" d="M75 0L75 730L505 730L505 0L75 0M440 695L140 695L290 408L440 695M115 73L268 365L115 657L115 73M465 657L313 365L465 73L465 657M440 35L290 322L140 35L440 35Z"  horiz-adv-x="579" vert-adv-y="1000"  />

      
      <glyph glyph-name="uni012D" unicode="&#x012D;" d="M75 0L75 730L505 730L505 0L75 0M440 695L140 695L290 408L440 695M115 73L268 365L115 657L115 73M465 657L313 365L465 73L465 657M440 35L290 322L140 35L440 35Z"  horiz-adv-x="579" vert-adv-y="1000"  />

      
      <glyph glyph-name="uni0131" unicode="&#x0131;" d="M75 0L75 730L505 730L505 0L75 0M440 695L140 695L290 408L440 695M115 73L268 365L115 657L115 73M465 657L313 365L465 73L465 657M440 35L290 322L140 35L440 35Z"  horiz-adv-x="579" vert-adv-y="1000"  />

      
      <glyph glyph-name="uni0134" unicode="&#x0134;" d="M75 0L75 730L505 730L505 0L75 0M440 695L140 695L290 408L440 695M115 73L268 365L115 657L115 73M465 657L313 365L465 73L465 657M440 35L290 322L140 35L440 35Z"  horiz-adv-x="579" vert-adv-y="1000"  />

      
      <glyph glyph-name="uni0135" unicode="&#x0135;" d="M75 0L75 730L505 730L505 0L75 0M440 695L140 695L290 408L440 695M115 73L268 365L115 657L115 73M465 657L313 365L465 73L465 657M440 35L290 322L140 35L440 35Z"  horiz-adv-x="579" vert-adv-y="1000"  />

      
      <glyph glyph-name="uni0138" unicode="&#x0138;" d="M75 0L75 730L505 730L505 0L75 0M440 695L140 695L290 408L440 695M115 73L268 365L115 657L115 73M465 657L313 365L465 73L465 657M440 35L290 322L140 35L440 35Z"  horiz-adv-x="579" vert-adv-y="1000"  />

      
      <glyph glyph-name="uni0149" unicode="&#x0149;" d="M75 0L75 730L505 730L505 0L75 0M440 695L140 695L290 408L440 695M115 73L268 365L115 657L115 73M465 657L313 365L465 73L465 657M440 35L290 322L140 35L440 35Z"  horiz-adv-x="579" vert-adv-y="1000"  />

      
      <glyph glyph-name="uni014E" unicode="&#x014E;" d="M75 0L75 730L505 730L505 0L75 0M440 695L140 695L290 408L440 695M115 73L268 365L115 657L115 73M465 657L313 365L465 73L465 657M440 35L290 322L140 35L440 35Z"  horiz-adv-x="579" vert-adv-y="1000"  />

      
      <glyph glyph-name="uni014F" unicode="&#x014F;" d="M75 0L75 730L505 730L505 0L75 0M440 695L140 695L290 408L440 695M115 73L268 365L115 657L115 73M465 657L313 365L465 73L465 657M440 35L290 322L140 35L440 35Z"  horiz-adv-x="579" vert-adv-y="1000"  />

      
      <glyph glyph-name="uni015C" unicode="&#x015C;" d="M75 0L75 730L505 730L505 0L75 0M440 695L140 695L290 408L440 695M115 73L268 365L115 657L115 73M465 657L313 365L465 73L465 657M440 35L290 322L140 35L440 35Z"  horiz-adv-x="579" vert-adv-y="1000"  />

      
      <glyph glyph-name="uni015D" unicode="&#x015D;" d="M75 0L75 730L505 730L505 0L75 0M440 695L140 695L290 408L440 695M115 73L268 365L115 657L115 73M465 657L313 365L465 73L465 657M440 35L290 322L140 35L440 35Z"  horiz-adv-x="579" vert-adv-y="1000"  />

      
      <glyph glyph-name="uni016C" unicode="&#x016C;" d="M75 0L75 730L505 730L505 0L75 0M440 695L140 695L290 408L440 695M115 73L268 365L115 657L115 73M465 657L313 365L465 73L465 657M440 35L290 322L140 35L440 35Z"  horiz-adv-x="579" vert-adv-y="1000"  />

      
      <glyph glyph-name="uni016D" unicode="&#x016D;" d="M75 0L75 730L505 730L505 0L75 0M440 695L140 695L290 408L440 695M115 73L268 365L115 657L115 73M465 657L313 365L465 73L465 657M440 35L290 322L140 35L440 35Z"  horiz-adv-x="579" vert-adv-y="1000"  />

      
      <glyph glyph-name="uni0305" unicode="&#x0305;" d="M75 0L75 730L505 730L505 0L75 0M440 695L140 695L290 408L440 695M115 73L268 365L115 657L115 73M465 657L313 365L465 73L465 657M440 35L290 322L140 35L440 35Z"  horiz-adv-x="579" vert-adv-y="1000"  />

      
      <glyph glyph-name="uni0309" unicode="&#x0309;" d="M75 0L75 730L505 730L505 0L75 0M440 695L140 695L290 408L440 695M115 73L268 365L115 657L115 73M465 657L313 365L465 73L465 657M440 35L290 322L140 35L440 35Z"  horiz-adv-x="579" vert-adv-y="1000"  />

      
      <glyph glyph-name="uni2015" unicode="&#x2015;" d="M75 0L75 730L505 730L505 0L75 0M440 695L140 695L290 408L440 695M115 73L268 365L115 657L115 73M465 657L313 365L465 73L465 657M440 35L290 322L140 35L440 35Z"  horiz-adv-x="579" vert-adv-y="1000"  />

      
      <glyph glyph-name="uni2016" unicode="&#x2016;" d="M75 0L75 730L505 730L505 0L75 0M440 695L140 695L290 408L440 695M115 73L268 365L115 657L115 73M465 657L313 365L465 73L465 657M440 35L290 322L140 35L440 35Z"  horiz-adv-x="579" vert-adv-y="1000"  />

      
      <glyph glyph-name="uni2017" unicode="&#x2017;" d="M75 0L75 730L505 730L505 0L75 0M440 695L140 695L290 408L440 695M115 73L268 365L115 657L115 73M465 657L313 365L465 73L465 657M440 35L290 322L140 35L440 35Z"  horiz-adv-x="579" vert-adv-y="1000"  />

      
      <glyph glyph-name="uni201B" unicode="&#x201B;" d="M75 0L75 730L505 730L505 0L75 0M440 695L140 695L290 408L440 695M115 73L268 365L115 657L115 73M465 657L313 365L465 73L465 657M440 35L290 322L140 35L440 35Z"  horiz-adv-x="579" vert-adv-y="1000"  />

      
      <glyph glyph-name="uni201F" unicode="&#x201F;" d="M75 0L75 730L505 730L505 0L75 0M440 695L140 695L290 408L440 695M115 73L268 365L115 657L115 73M465 657L313 365L465 73L465 657M440 35L290 322L140 35L440 35Z"  horiz-adv-x="579" vert-adv-y="1000"  />

      
      <glyph glyph-name="uni41" unicode="&#x41;" d="M14 0L296 692L455 692L738 0L582 0L526 145L225 145L170 0L14 0M479 275L376 540L272 275L479 275Z"  horiz-adv-x="751" vert-adv-y="1000"  />

      
      <glyph glyph-name="unic1" unicode="&#xc1;" d="M279 752L394 910L561 910L413 752L279 752M738 0L582 0L526 145L225 145L170 0L14 0L296 692L455 692L738 0M376 540L272 275L479 275L376 540Z"  horiz-adv-x="751" vert-adv-y="1000"  />

      
      <glyph glyph-name="uni0102" unicode="&#x0102;" d="M377 752Q326 752 290 764Q254 776 231 797Q208 818 197.50 847Q187 876 187 910L311 910Q311 881 329 866.50Q347 852 377 852Q406 852 424 866.50Q442 881 442 910L565 910Q565 876 554.50 847Q544 818 521.50 797Q499 776 463 764Q427 752 377 752M738 0L582 0L526 145L225 145L170 0L14 0L296 692L455 692L738 0M376 540L272 275L479 275L376 540Z"  horiz-adv-x="751" vert-adv-y="1000"  />

      
      <glyph glyph-name="unic2" unicode="&#xc2;" d="M443 910L578 752L435 752L377 825L318 752L175 752L310 910L443 910M738 0L582 0L526 145L225 145L170 0L14 0L296 692L455 692L738 0M376 540L272 275L479 275L376 540Z"  horiz-adv-x="751" vert-adv-y="1000"  />

      
      <glyph glyph-name="unic4" unicode="&#xc4;" d="M259 756Q217 756 192 781Q167 806 167 841Q167 876 192 900.50Q217 925 259 925Q299 925 324 900.50Q349 876 349 841Q349 806 324 781Q299 756 259 756M495 756Q454 756 428.50 781Q403 806 403 841Q403 876 428.50 900.50Q454 925 495 925Q535 925 560 900.50Q585 876 585 841Q585 806 560 781Q535 756 495 756M738 0L582 0L526 145L225 145L170 0L14 0L296 692L455 692L738 0M376 540L272 275L479 275L376 540Z"  horiz-adv-x="751" vert-adv-y="1000"  />

      
      <glyph glyph-name="unic0" unicode="&#xc0;" d="M332 752L184 910L351 910L465 752L332 752M738 0L582 0L526 145L225 145L170 0L14 0L296 692L455 692L738 0M376 540L272 275L479 275L376 540Z"  horiz-adv-x="751" vert-adv-y="1000"  />

      
      <glyph glyph-name="uni0100" unicode="&#x0100;" d="M208 778L208 886L543 886L543 778L208 778M738 0L582 0L526 145L225 145L170 0L14 0L296 692L455 692L738 0M376 540L272 275L479 275L376 540Z"  horiz-adv-x="751" vert-adv-y="1000"  />

      
      <glyph glyph-name="uni0104" unicode="&#x0104;" d="M698-104Q713-104 723.50-102Q734-100 747-97L747-198Q727-203 708-205.50Q689-208 661-208Q634-208 608.50-203Q583-198 563.50-186.50Q544-175 532-156.50Q520-138 520-111Q520-72 548.50-42.50Q577-13 626 0L582 0L526 145L225 145L170 0L14 0L296 692L455 692L738 0Q690-16 672.50-35.50Q655-55 655-72Q655-91 668-97.50Q681-104 698-104M272 275L479 275L376 540L272 275Z"  horiz-adv-x="751" vert-adv-y="1000"  />

      
      <glyph glyph-name="unic5" unicode="&#xc5;" d="M376 752Q311 752 277 784.50Q243 817 243 865Q243 913 277 945Q311 977 376 977Q441 977 475 945Q509 913 509 865Q509 817 475 784.50Q441 752 376 752M376 817Q398 817 411.50 831Q425 845 425 865Q425 885 411.50 898.50Q398 912 376 912Q354 912 340.50 898.50Q327 885 327 865Q327 845 340.50 831Q354 817 376 817M738 0L582 0L526 145L225 145L170 0L14 0L296 692L455 692L738 0M376 540L272 275L479 275L376 540Z"  horiz-adv-x="751" vert-adv-y="1000"  />

      
      <glyph glyph-name="unic3" unicode="&#xc3;" d="M181 753Q181 780 184.50 808Q188 836 200 859Q212 882 235.50 897Q259 912 299 912Q328 912 346.50 904Q365 896 379.50 887Q394 878 407 870Q420 862 437 862Q456 862 462.50 876Q469 890 469 912L575 912Q575 886 571 858Q567 830 555 806.50Q543 783 520.50 768Q498 753 460 753Q428 753 407.50 761Q387 769 372.50 778.50Q358 788 346.50 796Q335 804 321 804Q301 804 294.50 789.50Q288 775 288 753L181 753M738 0L582 0L526 145L225 145L170 0L14 0L296 692L455 692L738 0M376 540L272 275L479 275L376 540Z"  horiz-adv-x="751" vert-adv-y="1000"  />

      
      <glyph glyph-name="unic6" unicode="&#xc6;" d="M1033 692L1033 554L709 554L709 414L995 414L995 276L709 276L709 138L1033 138L1033 0L561 0L561 148L319 148L227 0L71 0L504 692L1033 692M561 542L385 262L561 262L561 542Z"  horiz-adv-x="1109" vert-adv-y="1000"  />

      
      <glyph glyph-name="uni01FC" unicode="&#x01FC;" d="M552 750L667 908L834 908L686 750L552 750M1033 692L1033 554L709 554L709 414L995 414L995 276L709 276L709 138L1033 138L1033 0L561 0L561 148L319 148L227 0L71 0L504 692L1033 692M561 542L385 262L561 262L561 542Z"  horiz-adv-x="1109" vert-adv-y="1000"  />

      
      <glyph glyph-name="uni42" unicode="&#x42;" d="M509 344Q571 330 604.50 293.50Q638 257 638 190Q638 139 618 102.50Q598 66 563.50 43.50Q529 21 481.50 10.50Q434 0 380 0L72 0L72 692L363 692Q618 692 618 504Q618 467 610 440Q602 413 588 394Q574 375 553.50 363Q533 351 509 344M220 565L220 405L369 405Q416 405 444.50 421.50Q473 438 473 482Q473 527 445 546Q417 565 363 565L220 565M220 127L380 127Q435 127 463.50 145.50Q492 164 492 209Q492 246 467.50 269Q443 292 381 292L220 292L220 127Z"  horiz-adv-x="674" vert-adv-y="1000"  />

      
      <glyph glyph-name="uni43" unicode="&#x43;" d="M32 346L32 347Q32 425 56.50 491Q81 557 127 604Q173 651 239 677.50Q305 704 388 704L389 704Q458 704 520 684.50Q582 665 631 620L550 509Q483 566 389 566L388 566Q340 566 301.50 549Q263 532 236 503Q209 474 194.50 434Q180 394 180 347L180 346Q180 299 194.50 258.50Q209 218 236 188.50Q263 159 301.50 142.50Q340 126 388 126L389 126Q440 126 479 141Q518 156 550 183L631 72Q540-12 389-12L388-12Q305-12 239 14.50Q173 41 127 88.50Q81 136 56.50 201.50Q32 267 32 346Z"  horiz-adv-x="650" vert-adv-y="1000"  />

      
      <glyph glyph-name="uni0106" unicode="&#x0106;" d="M272 750L387 908L554 908L406 750L272 750M550 509Q483 566 389 566L388 566Q340 566 301.50 549Q263 532 236 503Q209 474 194.50 434Q180 394 180 347L180 346Q180 299 194.50 258.50Q209 218 236 188.50Q263 159 301.50 142.50Q340 126 388 126L389 126Q440 126 479 141Q518 156 550 183L631 72Q540-12 389-12L388-12Q305-12 239 14.50Q173 41 127 88.50Q81 136 56.50 201.50Q32 267 32 346L32 347Q32 425 56.50 491Q81 557 127 604Q173 651 239 677.50Q305 704 388 704L389 704Q458 704 520 684.50Q582 665 631 620L550 509Z"  horiz-adv-x="650" vert-adv-y="1000"  />

      
      <glyph glyph-name="uni010C" unicode="&#x010C;" d="M435 750L303 750L168 908L311 908L369 835L427 908L570 908L435 750M550 509Q483 566 389 566L388 566Q340 566 301.50 549Q263 532 236 503Q209 474 194.50 434Q180 394 180 347L180 346Q180 299 194.50 258.50Q209 218 236 188.50Q263 159 301.50 142.50Q340 126 388 126L389 126Q440 126 479 141Q518 156 550 183L631 72Q540-12 389-12L388-12Q305-12 239 14.50Q173 41 127 88.50Q81 136 56.50 201.50Q32 267 32 346L32 347Q32 425 56.50 491Q81 557 127 604Q173 651 239 677.50Q305 704 388 704L389 704Q458 704 520 684.50Q582 665 631 620L550 509Z"  horiz-adv-x="650" vert-adv-y="1000"  />

      
      <glyph glyph-name="unic7" unicode="&#xc7;" d="M631 72Q544-7 405-12L384-43Q427-49 454.50-68Q482-87 482-125Q482-149 471-165Q460-181 441-191Q422-201 396-205Q370-209 341-209Q303-209 280-206.50Q257-204 239-200L239-130Q253-134 267-136.50Q281-139 300-139Q329-139 344.50-132Q360-125 360-109Q360-88 335.50-82.50Q311-77 277-77L322-7Q254 3 200 33Q146 63 108.50 109Q71 155 51.50 215.50Q32 276 32 346L32 347Q32 425 56.50 491Q81 557 127 604Q173 651 239 677.50Q305 704 388 704L389 704Q458 704 520 684.50Q582 665 631 620L550 509Q483 566 389 566L388 566Q340 566 301.50 549Q263 532 236 503Q209 474 194.50 434Q180 394 180 347L180 346Q180 299 194.50 258.50Q209 218 236 188.50Q263 159 301.50 142.50Q340 126 388 126L389 126Q440 126 479 141Q518 156 550 183L631 72Z"  horiz-adv-x="650" vert-adv-y="1000"  />

      
      <glyph glyph-name="uni010A" unicode="&#x010A;" d="M370 756Q327 756 301 780.50Q275 805 275 842Q275 877 301 902Q327 927 370 927Q412 927 438 902Q464 877 464 842Q464 805 438 780.50Q412 756 370 756M550 509Q483 566 389 566L388 566Q340 566 301.50 549Q263 532 236 503Q209 474 194.50 434Q180 394 180 347L180 346Q180 299 194.50 258.50Q209 218 236 188.50Q263 159 301.50 142.50Q340 126 388 126L389 126Q440 126 479 141Q518 156 550 183L631 72Q540-12 389-12L388-12Q305-12 239 14.50Q173 41 127 88.50Q81 136 56.50 201.50Q32 267 32 346L32 347Q32 425 56.50 491Q81 557 127 604Q173 651 239 677.50Q305 704 388 704L389 704Q458 704 520 684.50Q582 665 631 620L550 509Z"  horiz-adv-x="650" vert-adv-y="1000"  />

      
      <glyph glyph-name="uni44" unicode="&#x44;" d="M343 692Q426 692 490.50 667Q555 642 599 596.50Q643 551 666.50 487.50Q690 424 690 346L690 345Q690 268 666.50 204.50Q643 141 599 95.50Q555 50 490.50 25Q426 0 343 0L72 0L72 692L343 692M220 139L343 139Q391 139 428 154Q465 169 490.50 196Q516 223 529.50 261Q543 299 543 345L543 346Q543 393 529.50 431Q516 469 490.50 496Q465 523 428 538Q391 553 343 553L220 553L220 139Z"  horiz-adv-x="722" vert-adv-y="1000"  />

      
      <glyph glyph-name="unid0" unicode="&#xd0;" d="M343 692Q426 692 490.50 667Q555 642 599 596.50Q643 551 666.50 487.50Q690 424 690 346L690 345Q690 268 666.50 204.50Q643 141 599 95.50Q555 50 490.50 25Q426 0 343 0L72 0L72 290L-1 290L-1 398L72 398L72 692L343 692M543 346Q543 393 529.50 431Q516 469 490.50 496Q465 523 428 538Q391 553 343 553L220 553L220 398L358 398L358 290L220 290L220 139L343 139Q391 139 428 154Q465 169 490.50 196Q516 223 529.50 261Q543 299 543 345L543 346Z"  horiz-adv-x="722" vert-adv-y="1000"  />

      
      <glyph glyph-name="uni010E" unicode="&#x010E;" d="M433 750L301 750L166 908L309 908L367 835L425 908L568 908L433 750M343 692Q426 692 490.50 667Q555 642 599 596.50Q643 551 666.50 487.50Q690 424 690 346L690 345Q690 268 666.50 204.50Q643 141 599 95.50Q555 50 490.50 25Q426 0 343 0L72 0L72 692L343 692M220 139L343 139Q391 139 428 154Q465 169 490.50 196Q516 223 529.50 261Q543 299 543 345L543 346Q543 393 529.50 431Q516 469 490.50 496Q465 523 428 538Q391 553 343 553L220 553L220 139Z"  horiz-adv-x="722" vert-adv-y="1000"  />

      
      <glyph glyph-name="uni0110" unicode="&#x0110;" d="M343 692Q426 692 490.50 667Q555 642 599 596.50Q643 551 666.50 487.50Q690 424 690 346L690 345Q690 268 666.50 204.50Q643 141 599 95.50Q555 50 490.50 25Q426 0 343 0L72 0L72 290L-1 290L-1 398L72 398L72 692L343 692M543 346Q543 393 529.50 431Q516 469 490.50 496Q465 523 428 538Q391 553 343 553L220 553L220 398L358 398L358 290L220 290L220 139L343 139Q391 139 428 154Q465 169 490.50 196Q516 223 529.50 261Q543 299 543 345L543 346Z"  horiz-adv-x="722" vert-adv-y="1000"  />

      
      <glyph glyph-name="uni45" unicode="&#x45;" d="M544 692L544 554L220 554L220 414L506 414L506 276L220 276L220 138L544 138L544 0L72 0L72 692L544 692Z"  horiz-adv-x="591" vert-adv-y="1000"  />

      
      <glyph glyph-name="unic9" unicode="&#xc9;" d="M214 750L329 908L496 908L348 750L214 750M544 692L544 554L220 554L220 414L506 414L506 276L220 276L220 138L544 138L544 0L72 0L72 692L544 692Z"  horiz-adv-x="591" vert-adv-y="1000"  />

      
      <glyph glyph-name="uni011A" unicode="&#x011A;" d="M378 750L246 750L111 908L254 908L312 835L370 908L513 908L378 750M544 692L544 554L220 554L220 414L506 414L506 276L220 276L220 138L544 138L544 0L72 0L72 692L544 692Z"  horiz-adv-x="591" vert-adv-y="1000"  />

      
      <glyph glyph-name="unica" unicode="&#xca;" d="M378 908L513 750L370 750L312 823L253 750L110 750L245 908L378 908M544 692L544 554L220 554L220 414L506 414L506 276L220 276L220 138L544 138L544 0L72 0L72 692L544 692Z"  horiz-adv-x="591" vert-adv-y="1000"  />

      
      <glyph glyph-name="unicb" unicode="&#xcb;" d="M195 755Q153 755 128 780Q103 805 103 840Q103 875 128 899.50Q153 924 195 924Q235 924 260 899.50Q285 875 285 840Q285 805 260 780Q235 755 195 755M431 755Q390 755 364.50 780Q339 805 339 840Q339 875 364.50 899.50Q390 924 431 924Q471 924 496 899.50Q521 875 521 840Q521 805 496 780Q471 755 431 755M544 692L544 554L220 554L220 414L506 414L506 276L220 276L220 138L544 138L544 0L72 0L72 692L544 692Z"  horiz-adv-x="591" vert-adv-y="1000"  />

      
      <glyph glyph-name="uni0116" unicode="&#x0116;" d="M312 756Q269 756 243 780.50Q217 805 217 842Q217 877 243 902Q269 927 312 927Q354 927 380 902Q406 877 406 842Q406 805 380 780.50Q354 756 312 756M544 692L544 554L220 554L220 414L506 414L506 276L220 276L220 138L544 138L544 0L72 0L72 692L544 692Z"  horiz-adv-x="591" vert-adv-y="1000"  />

      
      <glyph glyph-name="unic8" unicode="&#xc8;" d="M267 750L119 908L286 908L400 750L267 750M544 692L544 554L220 554L220 414L506 414L506 276L220 276L220 138L544 138L544 0L72 0L72 692L544 692Z"  horiz-adv-x="591" vert-adv-y="1000"  />

      
      <glyph glyph-name="uni0112" unicode="&#x0112;" d="M144 776L144 884L479 884L479 776L144 776M544 692L544 554L220 554L220 414L506 414L506 276L220 276L220 138L544 138L544 0L72 0L72 692L544 692Z"  horiz-adv-x="591" vert-adv-y="1000"  />

      
      <glyph glyph-name="uni0118" unicode="&#x0118;" d="M504-104Q519-104 529.50-102Q540-100 553-97L553-198Q533-203 514-205.50Q495-208 467-208Q440-208 414.50-203Q389-198 369.50-186.50Q350-175 338-156.50Q326-138 326-111Q326-72 354.50-42.50Q383-13 432 0L72 0L72 692L544 692L544 554L220 554L220 414L506 414L506 276L220 276L220 138L544 138L544 0Q496-16 478.50-35.50Q461-55 461-72Q461-91 474-97.50Q487-104 504-104Z"  horiz-adv-x="591" vert-adv-y="1000"  />

      
      <glyph glyph-name="uni46" unicode="&#x46;" d="M544 692L544 553L220 553L220 396L506 396L506 256L220 256L220 0L72 0L72 692L544 692Z"  horiz-adv-x="572" vert-adv-y="1000"  />

      
      <glyph glyph-name="uni47" unicode="&#x47;" d="M32 347Q32 425 56.50 490.50Q81 556 128 603.50Q175 651 243 677.50Q311 704 398 704L399 704Q474 704 538.50 684.50Q603 665 652 620L571 509Q504 566 399 566L398 566Q346 566 305.50 549.50Q265 533 237 504Q209 475 194.50 435Q180 395 180 347L180 346Q180 299 194.50 259Q209 219 236 189.50Q263 160 302 143Q341 126 390 126L391 126Q451 126 494 147.50Q537 169 548 207L548 244L401 244L401 363L670 363L670 0L579 0L573 70Q544 29 494 8.50Q444-12 378-12L377-12Q297-12 233 14.50Q169 41 124.50 88.50Q80 136 56 202Q32 268 32 346L32 347Z"  horiz-adv-x="716" vert-adv-y="1000"  />

      
      <glyph glyph-name="uni011E" unicode="&#x011E;" d="M389 750Q338 750 302 762Q266 774 243 795Q220 816 209.50 845Q199 874 199 908L323 908Q323 879 341 864.50Q359 850 389 850Q418 850 436 864.50Q454 879 454 908L577 908Q577 874 566.50 845Q556 816 533.50 795Q511 774 475 762Q439 750 389 750M571 509Q504 566 399 566L398 566Q346 566 305.50 549.50Q265 533 237 504Q209 475 194.50 435Q180 395 180 347L180 346Q180 299 194.50 259Q209 219 236 189.50Q263 160 302 143Q341 126 390 126L391 126Q451 126 494 147.50Q537 169 548 207L548 244L401 244L401 363L670 363L670 0L579 0L573 70Q544 29 494 8.50Q444-12 378-12L377-12Q297-12 233 14.50Q169 41 124.50 88.50Q80 136 56 202Q32 268 32 346L32 347Q32 425 56.50 490.50Q81 556 128 603.50Q175 651 243 677.50Q311 704 398 704L399 704Q474 704 538.50 684.50Q603 665 652 620L571 509Z"  horiz-adv-x="716" vert-adv-y="1000"  />

      
      <glyph glyph-name="uni0122" unicode="&#x0122;" d="M571 509Q504 566 399 566L398 566Q346 566 305.50 549.50Q265 533 237 504Q209 475 194.50 435Q180 395 180 347L180 346Q180 299 194.50 259Q209 219 236 189.50Q263 160 302 143Q341 126 390 126L391 126Q451 126 494 147.50Q537 169 548 207L548 244L401 244L401 363L670 363L670 0L579 0L573 70Q544 29 494 8.50Q444-12 378-12L377-12Q297-12 233 14.50Q169 41 124.50 88.50Q80 136 56 202Q32 268 32 346L32 347Q32 425 56.50 490.50Q81 556 128 603.50Q175 651 243 677.50Q311 704 398 704L399 704Q474 704 538.50 684.50Q603 665 652 620L571 509M310-305L342-197Q320-190 302.50-169Q285-148 285-118Q285-82 310.50-58Q336-34 378-34Q420-34 445.50-58Q471-82 471-118Q471-142 454-177L394-305L310-305Z"  horiz-adv-x="716" vert-adv-y="1000"  />

      
      <glyph glyph-name="uni0120" unicode="&#x0120;" d="M389 756Q346 756 320 780.50Q294 805 294 842Q294 877 320 902Q346 927 389 927Q431 927 457 902Q483 877 483 842Q483 805 457 780.50Q431 756 389 756M571 509Q504 566 399 566L398 566Q346 566 305.50 549.50Q265 533 237 504Q209 475 194.50 435Q180 395 180 347L180 346Q180 299 194.50 259Q209 219 236 189.50Q263 160 302 143Q341 126 390 126L391 126Q451 126 494 147.50Q537 169 548 207L548 244L401 244L401 363L670 363L670 0L579 0L573 70Q544 29 494 8.50Q444-12 378-12L377-12Q297-12 233 14.50Q169 41 124.50 88.50Q80 136 56 202Q32 268 32 346L32 347Q32 425 56.50 490.50Q81 556 128 603.50Q175 651 243 677.50Q311 704 398 704L399 704Q474 704 538.50 684.50Q603 665 652 620L571 509Z"  horiz-adv-x="716" vert-adv-y="1000"  />

      
      <glyph glyph-name="uni48" unicode="&#x48;" d="M72 692L220 692L220 417L534 417L534 692L682 692L682 0L534 0L534 277L220 277L220 0L72 0L72 692Z"  horiz-adv-x="754" vert-adv-y="1000"  />

      
      <glyph glyph-name="uni0126" unicode="&#x0126;" d="M755 609L755 501L682 501L682 0L534 0L534 277L220 277L220 0L72 0L72 501L-2 501L-2 609L72 609L72 692L220 692L220 609L534 609L534 692L682 692L682 609L755 609M534 417L534 501L220 501L220 417L534 417Z"  horiz-adv-x="754" vert-adv-y="1000"  />

      
      <glyph glyph-name="uni49" unicode="&#x49;" d="M72 0L72 692L220 692L220 0L72 0Z"  horiz-adv-x="292" vert-adv-y="1000"  />

      
      <glyph glyph-name="uni0132" unicode="&#x0132;" d="M72 0L72 692L220 692L220 0L72 0M782 692L782 268Q782 135 713 61.50Q644-12 513-12L512-12Q446-12 394 7Q342 26 303 70L384 192Q405 163 435.50 147Q466 131 512 131L513 131Q574 131 604 166Q634 201 634 268L634 553L412 553L412 692L782 692Z"  horiz-adv-x="840" vert-adv-y="1000"  />

      
      <glyph glyph-name="unicd" unicode="&#xcd;" d="M48 750L163 908L330 908L182 750L48 750M72 0L72 692L220 692L220 0L72 0Z"  horiz-adv-x="292" vert-adv-y="1000"  />

      
      <glyph glyph-name="unice" unicode="&#xce;" d="M212 908L345 750L202 750L146 823L89 750L-54 750L79 908L212 908M72 0L72 692L220 692L220 0L72 0Z"  horiz-adv-x="292" vert-adv-y="1000"  />

      
      <glyph glyph-name="unicf" unicode="&#xcf;" d="M33 754Q-9 754-34 779Q-59 804-59 839Q-59 874-34 898.50Q-9 923 33 923Q73 923 98 898.50Q123 874 123 839Q123 804 98 779Q73 754 33 754M260 754Q219 754 193.50 779Q168 804 168 839Q168 874 193.50 898.50Q219 923 260 923Q300 923 325.50 898.50Q351 874 351 839Q351 804 325.50 779Q300 754 260 754M72 0L72 692L220 692L220 0L72 0Z"  horiz-adv-x="292" vert-adv-y="1000"  />

      
      <glyph glyph-name="uni0130" unicode="&#x0130;" d="M146 756Q103 756 77 780.50Q51 805 51 842Q51 877 77 902Q103 927 146 927Q188 927 214 902Q240 877 240 842Q240 805 214 780.50Q188 756 146 756M72 0L72 692L220 692L220 0L72 0Z"  horiz-adv-x="292" vert-adv-y="1000"  />

      
      <glyph glyph-name="unicc" unicode="&#xcc;" d="M101 750L-47 908L120 908L234 750L101 750M72 0L72 692L220 692L220 0L72 0Z"  horiz-adv-x="292" vert-adv-y="1000"  />

      
      <glyph glyph-name="uni012A" unicode="&#x012A;" d="M-12 778L-12 885L302 885L302 778L-12 778M72 0L72 692L220 692L220 0L72 0Z"  horiz-adv-x="292" vert-adv-y="1000"  />

      
      <glyph glyph-name="uni012E" unicode="&#x012E;" d="M188-104Q203-104 213.50-102Q224-100 236-97L236-198Q217-203 197.50-205.50Q178-208 151-208Q124-208 98-203Q72-198 52.50-186Q33-174 21-155.50Q9-137 9-110Q9-72 35-42.50Q61-13 108 0L72 0L72 692L220 692L220 0Q174-16 159.50-35.50Q145-55 145-71Q145-90 158-97Q171-104 188-104Z"  horiz-adv-x="292" vert-adv-y="1000"  />

      
      <glyph glyph-name="uni0128" unicode="&#x0128;" d="M-41 751Q-41 778-37.50 806Q-34 834-22.50 857Q-11 880 11.50 895Q34 910 72 910Q99 910 117 902Q135 894 148.50 885Q162 876 174.50 868Q187 860 203 860Q221 860 227 874Q233 888 233 910L335 910Q335 884 331.50 856Q328 828 316.50 804.50Q305 781 283 766Q261 751 225 751Q194 751 174.50 759Q155 767 141 776.50Q127 786 116.50 794Q106 802 92 802Q73 802 67 787.50Q61 773 61 751L-41 751M72 0L72 692L220 692L220 0L72 0Z"  horiz-adv-x="290" vert-adv-y="1000"  />

      
      <glyph glyph-name="uni4a" unicode="&#x4a;" d="M490 692L490 268Q490 135 421 61.50Q352-12 221-12L220-12Q154-12 102 7Q50 26 11 70L92 192Q113 163 143.50 147Q174 131 220 131L221 131Q282 131 312 166Q342 201 342 268L342 553L120 553L120 692L490 692Z"  horiz-adv-x="548" vert-adv-y="1000"  />

      
      <glyph glyph-name="uni4b" unicode="&#x4b;" d="M72 0L72 692L220 692L220 410L343 410L512 692L674 692L454 334L674 0L511 0L333 271L220 271L220 0L72 0Z"  horiz-adv-x="693" vert-adv-y="1000"  />

      
      <glyph glyph-name="uni0136" unicode="&#x0136;" d="M512 692L674 692L454 334L674 0L511 0L333 271L220 271L220 0L72 0L72 692L220 692L220 410L343 410L512 692M292-305L324-197Q302-190 284.50-169Q267-148 267-118Q267-82 292.50-58Q318-34 360-34Q402-34 427.50-58Q453-82 453-118Q453-142 436-177L376-305L292-305Z"  horiz-adv-x="693" vert-adv-y="1000"  />

      
      <glyph glyph-name="uni4c" unicode="&#x4c;" d="M220 692L220 142L573 142L573 0L72 0L72 692L220 692Z"  horiz-adv-x="594" vert-adv-y="1000"  />

      
      <glyph glyph-name="uni0139" unicode="&#x0139;" d="M48 750L163 908L330 908L182 750L48 750M220 692L220 142L573 142L573 0L72 0L72 692L220 692Z"  horiz-adv-x="594" vert-adv-y="1000"  />

      
      <glyph glyph-name="uni013D" unicode="&#x013D;" d="M389 498L389 714L542 714L506 498L389 498M220 692L220 142L573 142L573 0L72 0L72 692L220 692Z"  horiz-adv-x="619" vert-adv-y="1000"  />

      
      <glyph glyph-name="uni013B" unicode="&#x013B;" d="M220 692L220 142L573 142L573 0L72 0L72 692L220 692M245-305L277-197Q255-190 237.50-169Q220-148 220-118Q220-82 245.50-58Q271-34 313-34Q355-34 380.50-58Q406-82 406-118Q406-142 389-177L329-305L245-305Z"  horiz-adv-x="594" vert-adv-y="1000"  />

      
      <glyph glyph-name="uni013F" unicode="&#x013F;" d="M220 692L220 142L573 142L573 0L72 0L72 692L220 692M448 310Q406 310 380.50 334Q355 358 355 395Q355 430 380.50 454Q406 478 448 478Q490 478 515.50 454Q541 430 541 395Q541 358 515.50 334Q490 310 448 310Z"  horiz-adv-x="594" vert-adv-y="1000"  />

      
      <glyph glyph-name="uni0141" unicode="&#x0141;" d="M220 142L573 142L573 0L72 0L72 248L-2 213L-50 312L72 371L72 692L220 692L220 443L324 493L373 392L220 319L220 142Z"  horiz-adv-x="594" vert-adv-y="1000"  />

      
      <glyph glyph-name="uni4d" unicode="&#x4d;" d="M426 324L637 692L780 692L780 0L637 0L637 445L471 139L381 139L216 445L216 0L72 0L72 692L215 692L426 324Z"  horiz-adv-x="852" vert-adv-y="1000"  />

      
      <glyph glyph-name="uni4e" unicode="&#x4e;" d="M538 692L682 692L682 0L551 0L216 439L216 0L72 0L72 692L203 692L538 252L538 692Z"  horiz-adv-x="754" vert-adv-y="1000"  />

      
      <glyph glyph-name="uni0143" unicode="&#x0143;" d="M564 908L416 750L282 750L397 908L564 908M538 692L682 692L682 0L551 0L216 439L216 0L72 0L72 692L203 692L538 252L538 692Z"  horiz-adv-x="754" vert-adv-y="1000"  />

      
      <glyph glyph-name="uni0147" unicode="&#x0147;" d="M445 750L313 750L178 908L321 908L379 835L437 908L580 908L445 750M538 692L682 692L682 0L551 0L216 439L216 0L72 0L72 692L203 692L538 252L538 692Z"  horiz-adv-x="754" vert-adv-y="1000"  />

      
      <glyph glyph-name="uni0145" unicode="&#x0145;" d="M538 692L682 692L682 0L551 0L216 439L216 0L72 0L72 692L203 692L538 252L538 692M387-34Q429-34 454.50-58Q480-82 480-118Q480-142 463-177L403-305L319-305L351-197Q329-190 311.50-169Q294-148 294-118Q294-82 319.50-58Q345-34 387-34Z"  horiz-adv-x="754" vert-adv-y="1000"  />

      
      <glyph glyph-name="uni014A" unicode="&#x014A;" d="M538 692L682 692L682-13Q682-60 669.50-97.50Q657-135 629.50-161Q602-187 559-200.50Q516-214 454-214L454-87Q505-87 523.50-67Q542-47 542-11L542 14L216 439L216 0L72 0L72 692L203 692L538 255L538 692Z"  horiz-adv-x="758" vert-adv-y="1000"  />

      
      <glyph glyph-name="unid1" unicode="&#xd1;" d="M324 802Q304 802 297.50 787.50Q291 773 291 751L184 751Q184 778 187.50 806Q191 834 203 857Q215 880 238.50 895Q262 910 302 910Q331 910 349.50 902Q368 894 382.50 885Q397 876 410 868Q423 860 440 860Q459 860 465.50 874Q472 888 472 910L578 910Q578 884 574 856Q570 828 558 804.50Q546 781 523.50 766Q501 751 463 751Q431 751 410.50 759Q390 767 375.50 776.50Q361 786 349.50 794Q338 802 324 802M538 692L682 692L682 0L551 0L216 439L216 0L72 0L72 692L203 692L538 252L538 692Z"  horiz-adv-x="754" vert-adv-y="1000"  />

      
      <glyph glyph-name="uni4f" unicode="&#x4f;" d="M32 346L32 347Q32 425 56.50 491Q81 557 127 604Q173 651 239 677.50Q305 704 388 704L389 704Q472 704 538 677.50Q604 651 650 604Q696 557 720.50 491Q745 425 745 347L745 346Q745 267 720.50 201.50Q696 136 650 88.50Q604 41 538 14.50Q472-12 389-12L388-12Q305-12 239 14.50Q173 41 127 88.50Q81 136 56.50 201.50Q32 267 32 346M180 346Q180 298 194.50 257.50Q209 217 236 187.50Q263 158 301.50 142Q340 126 388 126L389 126Q437 126 475.50 142Q514 158 541 187.50Q568 217 582.50 257.50Q597 298 597 346L597 347Q597 395 582.50 435Q568 475 541 504.50Q514 534 475.50 550Q437 566 389 566L388 566Q340 566 301.50 550Q263 534 236 504.50Q209 475 194.50 435Q180 395 180 347L180 346Z"  horiz-adv-x="777" vert-adv-y="1000"  />

      
      <glyph glyph-name="unid3" unicode="&#xd3;" d="M291 750L406 908L573 908L425 750L291 750M389 704Q472 704 538 677.50Q604 651 650 604Q696 557 720.50 491Q745 425 745 347L745 346Q745 267 720.50 201.50Q696 136 650 88.50Q604 41 538 14.50Q472-12 389-12L388-12Q305-12 239 14.50Q173 41 127 88.50Q81 136 56.50 201.50Q32 267 32 346L32 347Q32 425 56.50 491Q81 557 127 604Q173 651 239 677.50Q305 704 388 704L389 704M389 126Q437 126 475.50 142Q514 158 541 187.50Q568 217 582.50 257.50Q597 298 597 346L597 347Q597 395 582.50 435Q568 475 541 504.50Q514 534 475.50 550Q437 566 389 566L388 566Q340 566 301.50 550Q263 534 236 504.50Q209 475 194.50 435Q180 395 180 347L180 346Q180 298 194.50 257.50Q209 217 236 187.50Q263 158 301.50 142Q340 126 388 126L389 126Z"  horiz-adv-x="777" vert-adv-y="1000"  />

      
      <glyph glyph-name="unid4" unicode="&#xd4;" d="M455 908L590 750L447 750L389 823L330 750L187 750L322 908L455 908M389 704Q472 704 538 677.50Q604 651 650 604Q696 557 720.50 491Q745 425 745 347L745 346Q745 267 720.50 201.50Q696 136 650 88.50Q604 41 538 14.50Q472-12 389-12L388-12Q305-12 239 14.50Q173 41 127 88.50Q81 136 56.50 201.50Q32 267 32 346L32 347Q32 425 56.50 491Q81 557 127 604Q173 651 239 677.50Q305 704 388 704L389 704M389 126Q437 126 475.50 142Q514 158 541 187.50Q568 217 582.50 257.50Q597 298 597 346L597 347Q597 395 582.50 435Q568 475 541 504.50Q514 534 475.50 550Q437 566 389 566L388 566Q340 566 301.50 550Q263 534 236 504.50Q209 475 194.50 435Q180 395 180 347L180 346Q180 298 194.50 257.50Q209 217 236 187.50Q263 158 301.50 142Q340 126 388 126L389 126Z"  horiz-adv-x="777" vert-adv-y="1000"  />

      
      <glyph glyph-name="unid6" unicode="&#xd6;" d="M272 755Q230 755 205 780Q180 805 180 840Q180 875 205 899.50Q230 924 272 924Q312 924 337 899.50Q362 875 362 840Q362 805 337 780Q312 755 272 755M508 755Q467 755 441.50 780Q416 805 416 840Q416 875 441.50 899.50Q467 924 508 924Q548 924 573 899.50Q598 875 598 840Q598 805 573 780Q548 755 508 755M389 704Q472 704 538 677.50Q604 651 650 604Q696 557 720.50 491Q745 425 745 347L745 346Q745 267 720.50 201.50Q696 136 650 88.50Q604 41 538 14.50Q472-12 389-12L388-12Q305-12 239 14.50Q173 41 127 88.50Q81 136 56.50 201.50Q32 267 32 346L32 347Q32 425 56.50 491Q81 557 127 604Q173 651 239 677.50Q305 704 388 704L389 704M389 126Q437 126 475.50 142Q514 158 541 187.50Q568 217 582.50 257.50Q597 298 597 346L597 347Q597 395 582.50 435Q568 475 541 504.50Q514 534 475.50 550Q437 566 389 566L388 566Q340 566 301.50 550Q263 534 236 504.50Q209 475 194.50 435Q180 395 180 347L180 346Q180 298 194.50 257.50Q209 217 236 187.50Q263 158 301.50 142Q340 126 388 126L389 126Z"  horiz-adv-x="777" vert-adv-y="1000"  />

      
      <glyph glyph-name="unid2" unicode="&#xd2;" d="M344 750L196 908L363 908L477 750L344 750M389 704Q472 704 538 677.50Q604 651 650 604Q696 557 720.50 491Q745 425 745 347L745 346Q745 267 720.50 201.50Q696 136 650 88.50Q604 41 538 14.50Q472-12 389-12L388-12Q305-12 239 14.50Q173 41 127 88.50Q81 136 56.50 201.50Q32 267 32 346L32 347Q32 425 56.50 491Q81 557 127 604Q173 651 239 677.50Q305 704 388 704L389 704M389 126Q437 126 475.50 142Q514 158 541 187.50Q568 217 582.50 257.50Q597 298 597 346L597 347Q597 395 582.50 435Q568 475 541 504.50Q514 534 475.50 550Q437 566 389 566L388 566Q340 566 301.50 550Q263 534 236 504.50Q209 475 194.50 435Q180 395 180 347L180 346Q180 298 194.50 257.50Q209 217 236 187.50Q263 158 301.50 142Q340 126 388 126L389 126Z"  horiz-adv-x="777" vert-adv-y="1000"  />

      
      <glyph glyph-name="uni0150" unicode="&#x0150;" d="M209 750L294 908L440 908L331 750L209 750M429 750L514 908L660 908L551 750L429 750M389 704Q472 704 538 677.50Q604 651 650 604Q696 557 720.50 491Q745 425 745 347L745 346Q745 267 720.50 201.50Q696 136 650 88.50Q604 41 538 14.50Q472-12 389-12L388-12Q305-12 239 14.50Q173 41 127 88.50Q81 136 56.50 201.50Q32 267 32 346L32 347Q32 425 56.50 491Q81 557 127 604Q173 651 239 677.50Q305 704 388 704L389 704M389 126Q437 126 475.50 142Q514 158 541 187.50Q568 217 582.50 257.50Q597 298 597 346L597 347Q597 395 582.50 435Q568 475 541 504.50Q514 534 475.50 550Q437 566 389 566L388 566Q340 566 301.50 550Q263 534 236 504.50Q209 475 194.50 435Q180 395 180 347L180 346Q180 298 194.50 257.50Q209 217 236 187.50Q263 158 301.50 142Q340 126 388 126L389 126Z"  horiz-adv-x="777" vert-adv-y="1000"  />

      
      <glyph glyph-name="uni014C" unicode="&#x014C;" d="M221 776L221 884L556 884L556 776L221 776M389 704Q472 704 538 677.50Q604 651 650 604Q696 557 720.50 491Q745 425 745 347L745 346Q745 267 720.50 201.50Q696 136 650 88.50Q604 41 538 14.50Q472-12 389-12L388-12Q305-12 239 14.50Q173 41 127 88.50Q81 136 56.50 201.50Q32 267 32 346L32 347Q32 425 56.50 491Q81 557 127 604Q173 651 239 677.50Q305 704 388 704L389 704M389 126Q437 126 475.50 142Q514 158 541 187.50Q568 217 582.50 257.50Q597 298 597 346L597 347Q597 395 582.50 435Q568 475 541 504.50Q514 534 475.50 550Q437 566 389 566L388 566Q340 566 301.50 550Q263 534 236 504.50Q209 475 194.50 435Q180 395 180 347L180 346Q180 298 194.50 257.50Q209 217 236 187.50Q263 158 301.50 142Q340 126 388 126L389 126Z"  horiz-adv-x="777" vert-adv-y="1000"  />

      
      <glyph glyph-name="uni01EA" unicode="&#x01EA;" d="M389 704Q472 704 538 677.50Q604 651 650 604Q696 557 720.50 491Q745 425 745 347L745 346Q745 282 729 227Q713 172 682.50 127.50Q652 83 607.50 51.50Q563 20 507 4Q468-12 453-30Q438-48 438-63Q438-82 451-88.50Q464-95 481-95Q496-95 506.50-93Q517-91 530-88L530-189Q510-194 491-196.50Q472-199 444-199Q417-199 391.50-194Q366-189 346.50-177.50Q327-166 315-147.50Q303-129 303-102Q303-74 318-51Q333-28 360-11Q284-7 223 21.50Q162 50 119.50 97Q77 144 54.50 207.50Q32 271 32 346L32 347Q32 425 56.50 491Q81 557 127 604Q173 651 239 677.50Q305 704 388 704L389 704M597 347Q597 395 582.50 435Q568 475 541 504.50Q514 534 475.50 550Q437 566 389 566L388 566Q340 566 301.50 550Q263 534 236 504.50Q209 475 194.50 435Q180 395 180 347L180 346Q180 298 194.50 257.50Q209 217 236 187.50Q263 158 301.50 142Q340 126 388 126L389 126Q437 126 475.50 142Q514 158 541 187.50Q568 217 582.50 257.50Q597 298 597 346L597 347Z"  horiz-adv-x="777" vert-adv-y="1000"  />

      
      <glyph glyph-name="unid8" unicode="&#xd8;" d="M651 602Q697 554 721 489.50Q745 425 745 347L745 346Q745 267 720.50 201.50Q696 136 650 88.50Q604 41 538 14.50Q472-12 389-12L388-12Q293-12 218 23L152-64L62 2L127 88Q81 136 56.50 201.50Q32 267 32 346L32 347Q32 425 56.50 491Q81 557 127 604Q173 651 239 677.50Q305 704 388 704L389 704Q438 704 480.50 694.50Q523 685 560 668L625 754L714 685L651 602M597 347Q597 395 582.50 435Q568 475 541 504.50Q514 534 475.50 550Q437 566 389 566L388 566Q340 566 301.50 550Q263 534 236 504.50Q209 475 194.50 435Q180 395 180 347L180 346Q180 298 194.50 257.50Q209 217 236 187.50Q263 158 301.50 142Q340 126 388 126L389 126Q437 126 475.50 142Q514 158 541 187.50Q568 217 582.50 257.50Q597 298 597 346L597 347Z"  horiz-adv-x="777" vert-adv-y="1000"  />

      
      <glyph glyph-name="uni01FE" unicode="&#x01FE;" d="M573 908L425 750L291 750L406 908L573 908M651 602Q697 554 721 489.50Q745 425 745 347L745 346Q745 267 720.50 201.50Q696 136 650 88.50Q604 41 538 14.50Q472-12 389-12L388-12Q293-12 218 23L152-64L62 2L127 88Q81 136 56.50 201.50Q32 267 32 346L32 347Q32 425 56.50 491Q81 557 127 604Q173 651 239 677.50Q305 704 388 704L389 704Q438 704 480.50 694.50Q523 685 560 668L625 754L714 685L651 602M597 347Q597 395 582.50 435Q568 475 541 504.50Q514 534 475.50 550Q437 566 389 566L388 566Q340 566 301.50 550Q263 534 236 504.50Q209 475 194.50 435Q180 395 180 347L180 346Q180 298 194.50 257.50Q209 217 236 187.50Q263 158 301.50 142Q340 126 388 126L389 126Q437 126 475.50 142Q514 158 541 187.50Q568 217 582.50 257.50Q597 298 597 346L597 347Z"  horiz-adv-x="777" vert-adv-y="1000"  />

      
      <glyph glyph-name="unid5" unicode="&#xd5;" d="M194 751Q194 778 197.50 806Q201 834 213 857Q225 880 248.50 895Q272 910 312 910Q341 910 359.50 902Q378 894 392.50 885Q407 876 420 868Q433 860 450 860Q469 860 475.50 874Q482 888 482 910L588 910Q588 884 584 856Q580 828 568 804.50Q556 781 533.50 766Q511 751 473 751Q441 751 420.50 759Q400 767 385.50 776.50Q371 786 359.50 794Q348 802 334 802Q314 802 307.50 787.50Q301 773 301 751L194 751M389 704Q472 704 538 677.50Q604 651 650 604Q696 557 720.50 491Q745 425 745 347L745 346Q745 267 720.50 201.50Q696 136 650 88.50Q604 41 538 14.50Q472-12 389-12L388-12Q305-12 239 14.50Q173 41 127 88.50Q81 136 56.50 201.50Q32 267 32 346L32 347Q32 425 56.50 491Q81 557 127 604Q173 651 239 677.50Q305 704 388 704L389 704M389 126Q437 126 475.50 142Q514 158 541 187.50Q568 217 582.50 257.50Q597 298 597 346L597 347Q597 395 582.50 435Q568 475 541 504.50Q514 534 475.50 550Q437 566 389 566L388 566Q340 566 301.50 550Q263 534 236 504.50Q209 475 194.50 435Q180 395 180 347L180 346Q180 298 194.50 257.50Q209 217 236 187.50Q263 158 301.50 142Q340 126 388 126L389 126Z"  horiz-adv-x="777" vert-adv-y="1000"  />

      
      <glyph glyph-name="uni0152" unicode="&#x0152;" d="M1100 554L775 554L775 414L1062 414L1062 276L775 276L775 138L1100 138L1100 0L628 0L628 47Q586 18 533 3Q480-12 417-12L416-12Q333-12 267 14.50Q201 41 155 88.50Q109 136 84.50 201.50Q60 267 60 346L60 347Q60 425 84.50 491Q109 557 155 604Q201 651 267 677.50Q333 704 416 704L417 704Q480 704 533 689Q586 674 628 645L628 692L1100 692L1100 554M625 347Q625 395 610.50 435Q596 475 569 504.50Q542 534 503.50 550Q465 566 417 566L416 566Q368 566 329.50 550Q291 534 264 504.50Q237 475 222.50 435Q208 395 208 347L208 346Q208 298 222.50 257.50Q237 217 264 187.50Q291 158 329.50 142Q368 126 416 126L417 126Q465 126 503.50 142Q542 158 569 187.50Q596 217 610.50 257.50Q625 298 625 346L625 347Z"  horiz-adv-x="1147" vert-adv-y="1000"  />

      
      <glyph glyph-name="uni50" unicode="&#x50;" d="M343 692Q486 692 559 627.50Q632 563 632 438L632 437Q632 312 559 248Q486 184 343 184L220 184L220 0L72 0L72 692L343 692M484 438Q484 498 448.50 525.50Q413 553 343 553L220 553L220 324L343 324Q413 324 448.50 350.50Q484 377 484 437L484 438Z"  horiz-adv-x="659" vert-adv-y="1000"  />

      
      <glyph glyph-name="unide" unicode="&#xde;" d="M220 596L340 596Q483 596 557.50 531.50Q632 467 632 346L632 345Q632 224 557.50 160Q483 96 340 96L220 96L220 0L72 0L72 692L220 692L220 596M220 231L340 231Q410 231 447 257.50Q484 284 484 345L484 346Q484 407 447 434Q410 461 340 461L220 461L220 231Z"  horiz-adv-x="658" vert-adv-y="1000"  />

      
      <glyph glyph-name="uni51" unicode="&#x51;" d="M745 346Q745 257 714 185.50Q683 114 626 66L728-80L600-170L483-2Q461-7 437.50-9.50Q414-12 389-12L388-12Q305-12 239 14.50Q173 41 127 88.50Q81 136 56.50 201.50Q32 267 32 346L32 347Q32 425 56.50 491Q81 557 127 604Q173 651 239 677.50Q305 704 388 704L389 704Q472 704 538 677.50Q604 651 650 604Q696 557 720.50 491Q745 425 745 347L745 346M389 126Q437 126 475.50 142Q514 158 541 187.50Q568 217 582.50 257.50Q597 298 597 346L597 347Q597 395 582.50 435Q568 475 541 504.50Q514 534 475.50 550Q437 566 389 566L388 566Q340 566 301.50 550Q263 534 236 504.50Q209 475 194.50 435Q180 395 180 347L180 346Q180 298 194.50 257.50Q209 217 236 187.50Q263 158 301.50 142Q340 126 388 126L389 126Z"  horiz-adv-x="777" vert-adv-y="1000"  />

      
      <glyph glyph-name="uni52" unicode="&#x52;" d="M484 0L344 224L220 224L220 0L72 0L72 692L356 692Q490 692 561 629.50Q632 567 632 456L632 455Q632 375 595 321.50Q558 268 486 243L649 0L484 0M220 559L220 351L356 351Q416 351 450 374.50Q484 398 484 455L484 456Q484 511 450 535Q416 559 356 559L220 559Z"  horiz-adv-x="675" vert-adv-y="1000"  />

      
      <glyph glyph-name="uni0154" unicode="&#x0154;" d="M521 908L373 750L239 750L354 908L521 908M484 0L344 224L220 224L220 0L72 0L72 692L356 692Q490 692 561 629.50Q632 567 632 456L632 455Q632 375 595 321.50Q558 268 486 243L649 0L484 0M220 559L220 351L356 351Q416 351 450 374.50Q484 398 484 455L484 456Q484 511 450 535Q416 559 356 559L220 559Z"  horiz-adv-x="675" vert-adv-y="1000"  />

      
      <glyph glyph-name="uni0158" unicode="&#x0158;" d="M403 750L271 750L136 908L279 908L337 835L395 908L538 908L403 750M484 0L344 224L220 224L220 0L72 0L72 692L356 692Q490 692 561 629.50Q632 567 632 456L632 455Q632 375 595 321.50Q558 268 486 243L649 0L484 0M220 559L220 351L356 351Q416 351 450 374.50Q484 398 484 455L484 456Q484 511 450 535Q416 559 356 559L220 559Z"  horiz-adv-x="675" vert-adv-y="1000"  />

      
      <glyph glyph-name="uni0156" unicode="&#x0156;" d="M649 0L484 0L344 224L220 224L220 0L72 0L72 692L356 692Q490 692 561 629.50Q632 567 632 456L632 455Q632 375 595 321.50Q558 268 486 243L649 0M220 559L220 351L356 351Q416 351 450 374.50Q484 398 484 455L484 456Q484 511 450 535Q416 559 356 559L220 559M362-34Q404-34 429.50-58Q455-82 455-118Q455-142 438-177L378-305L294-305L326-197Q304-190 286.50-169Q269-148 269-118Q269-82 294.50-58Q320-34 362-34Z"  horiz-adv-x="675" vert-adv-y="1000"  />

      
      <glyph glyph-name="uni53" unicode="&#x53;" d="M503 500Q468 538 427 555.50Q386 573 329 573L328 573Q268 573 233.50 555Q199 537 199 505Q199 482 217.50 465Q236 448 293 436L427 406Q478 395 511.50 373Q545 351 564.50 322.50Q584 294 591.50 260.50Q599 227 599 192Q599 144 578.50 106Q558 68 522 41.50Q486 15 436 1.50Q386-12 326-12L325-12Q214-12 137.50 25.50Q61 63 21 138L142 226Q176 165 222 142Q268 119 328 119L329 119Q388 119 418.50 139.50Q449 160 449 196Q449 255 364 276L210 314Q124 335 87 385Q50 435 50 499Q50 550 70.50 588Q91 626 128.50 652Q166 678 218.50 691Q271 704 334 704L335 704Q417 704 481.50 680Q546 656 589 609L503 500Z"  horiz-adv-x="628" vert-adv-y="1000"  />

      
      <glyph glyph-name="uni015A" unicode="&#x015A;" d="M210 750L325 908L492 908L344 750L210 750M503 500Q468 538 427 555.50Q386 573 329 573L328 573Q268 573 233.50 555Q199 537 199 505Q199 482 217.50 465Q236 448 293 436L427 406Q478 395 511.50 373Q545 351 564.50 322.50Q584 294 591.50 260.50Q599 227 599 192Q599 144 578.50 106Q558 68 522 41.50Q486 15 436 1.50Q386-12 326-12L325-12Q214-12 137.50 25.50Q61 63 21 138L142 226Q176 165 222 142Q268 119 328 119L329 119Q388 119 418.50 139.50Q449 160 449 196Q449 255 364 276L210 314Q124 335 87 385Q50 435 50 499Q50 550 70.50 588Q91 626 128.50 652Q166 678 218.50 691Q271 704 334 704L335 704Q417 704 481.50 680Q546 656 589 609L503 500Z"  horiz-adv-x="628" vert-adv-y="1000"  />

      
      <glyph glyph-name="uni0160" unicode="&#x0160;" d="M374 750L242 750L107 908L250 908L308 835L366 908L509 908L374 750M503 500Q468 538 427 555.50Q386 573 329 573L328 573Q268 573 233.50 555Q199 537 199 505Q199 482 217.50 465Q236 448 293 436L427 406Q478 395 511.50 373Q545 351 564.50 322.50Q584 294 591.50 260.50Q599 227 599 192Q599 144 578.50 106Q558 68 522 41.50Q486 15 436 1.50Q386-12 326-12L325-12Q214-12 137.50 25.50Q61 63 21 138L142 226Q176 165 222 142Q268 119 328 119L329 119Q388 119 418.50 139.50Q449 160 449 196Q449 255 364 276L210 314Q124 335 87 385Q50 435 50 499Q50 550 70.50 588Q91 626 128.50 652Q166 678 218.50 691Q271 704 334 704L335 704Q417 704 481.50 680Q546 656 589 609L503 500Z"  horiz-adv-x="628" vert-adv-y="1000"  />

      
      <glyph glyph-name="uni015E" unicode="&#x015E;" d="M599 192Q599 146 581 109.50Q563 73 530 47Q497 21 451.50 6.50Q406-8 351-11L330-43Q373-49 400.50-68Q428-87 428-125Q428-149 417-165Q406-181 387-191Q368-201 342-205Q316-209 287-209Q249-209 226-206.50Q203-204 185-200L185-130Q199-134 213-136.50Q227-139 246-139Q275-139 290.50-132Q306-125 306-109Q306-88 281.50-82.50Q257-77 223-77L267-9Q91 9 21 138L142 226Q176 165 222 142Q268 119 328 119L329 119Q388 119 418.50 139.50Q449 160 449 196Q449 255 364 276L210 314Q124 335 87 385Q50 435 50 499Q50 550 70.50 588Q91 626 128.50 652Q166 678 218.50 691Q271 704 334 704L335 704Q417 704 481.50 680Q546 656 589 609L503 500Q468 538 427 555.50Q386 573 329 573L328 573Q268 573 233.50 555Q199 537 199 505Q199 482 217.50 465Q236 448 293 436L427 406Q478 395 511.50 373Q545 351 564.50 322.50Q584 294 591.50 260.50Q599 227 599 192Z"  horiz-adv-x="628" vert-adv-y="1000"  />

      
      <glyph glyph-name="uni0218" unicode="&#x0218;" d="M503 500Q468 538 427 555.50Q386 573 329 573L328 573Q268 573 233.50 555Q199 537 199 505Q199 482 217.50 465Q236 448 293 436L427 406Q478 395 511.50 373Q545 351 564.50 322.50Q584 294 591.50 260.50Q599 227 599 192Q599 144 578.50 106Q558 68 522 41.50Q486 15 436 1.50Q386-12 326-12L325-12Q214-12 137.50 25.50Q61 63 21 138L142 226Q176 165 222 142Q268 119 328 119L329 119Q388 119 418.50 139.50Q449 160 449 196Q449 255 364 276L210 314Q124 335 87 385Q50 435 50 499Q50 550 70.50 588Q91 626 128.50 652Q166 678 218.50 691Q271 704 334 704L335 704Q417 704 481.50 680Q546 656 589 609L503 500M242-305L274-197Q252-190 234.50-169Q217-148 217-118Q217-82 242.50-58Q268-34 310-34Q352-34 377.50-58Q403-82 403-118Q403-142 386-177L326-305L242-305Z"  horiz-adv-x="628" vert-adv-y="1000"  />

      
      <glyph glyph-name="uni1E9E" unicode="&#x1E9E;" d="M493 377Q529 369 558.50 355Q588 341 609.50 319Q631 297 642.50 267Q654 237 654 196Q654 141 635 103.50Q616 66 581.50 43Q547 20 499 10Q451 0 392 0L328 0L328 133L392 133Q445 133 475.50 149Q506 165 506 206Q506 245 476 264Q446 283 369 283L350 283L350 389L461 553L313 553Q207 553 207 444L207 0L59 0L59 444Q59 572 125 632Q191 692 313 692L611 692L611 553L493 377Z"  horiz-adv-x="683" vert-adv-y="1000"  />

      
      <glyph glyph-name="uni54" unicode="&#x54;" d="M584 692L584 550L376 550L376 0L229 0L229 550L21 550L21 692L584 692Z"  horiz-adv-x="605" vert-adv-y="1000"  />

      
      <glyph glyph-name="uni0166" unicode="&#x0166;" d="M584 550L376 550L376 375L482 375L482 267L376 267L376 0L229 0L229 267L123 267L123 375L229 375L229 550L21 550L21 692L584 692L584 550Z"  horiz-adv-x="605" vert-adv-y="1000"  />

      
      <glyph glyph-name="uni0164" unicode="&#x0164;" d="M368 750L236 750L101 908L244 908L302 835L360 908L503 908L368 750M584 692L584 550L376 550L376 0L229 0L229 550L21 550L21 692L584 692Z"  horiz-adv-x="605" vert-adv-y="1000"  />

      
      <glyph glyph-name="uni0162" unicode="&#x0162;" d="M376 550L376 0L351 0L322-43Q366-49 393-68Q420-87 420-125Q420-149 409-165Q398-181 379-191Q360-201 334-205Q308-209 279-209Q241-209 218-206.50Q195-204 177-200L177-130Q191-134 205.50-136.50Q220-139 238-139Q267-139 282.50-132Q298-125 298-109Q298-88 273.50-82.50Q249-77 215-77L266 0L229 0L229 550L21 550L21 692L584 692L584 550L376 550Z"  horiz-adv-x="605" vert-adv-y="1000"  />

      
      <glyph glyph-name="uni021A" unicode="&#x021A;" d="M584 692L584 550L376 550L376 0L229 0L229 550L21 550L21 692L584 692M230-305L262-197Q240-190 222.50-169Q205-148 205-118Q205-82 230.50-58Q256-34 298-34Q340-34 365.50-58Q391-82 391-118Q391-142 374-177L314-305L230-305Z"  horiz-adv-x="605" vert-adv-y="1000"  />

      
      <glyph glyph-name="uni55" unicode="&#x55;" d="M55 313L55 692L203 692L203 313Q203 261 216.50 226Q230 191 252.50 170Q275 149 303.50 140Q332 131 363 131L364 131Q395 131 423.50 140Q452 149 474.50 170Q497 191 510.50 226Q524 261 524 313L524 692L672 692L672 313Q672 228 648.50 166.50Q625 105 583.50 65Q542 25 486 6.50Q430-12 364-12L363-12Q297-12 241 6.50Q185 25 143.50 65Q102 105 78.50 166.50Q55 228 55 313Z"  horiz-adv-x="727" vert-adv-y="1000"  />

      
      <glyph glyph-name="unida" unicode="&#xda;" d="M265 750L380 908L547 908L399 750L265 750M524 692L672 692L672 313Q672 228 648.50 166.50Q625 105 583.50 65Q542 25 486 6.50Q430-12 364-12L363-12Q297-12 241 6.50Q185 25 143.50 65Q102 105 78.50 166.50Q55 228 55 313L55 692L203 692L203 313Q203 261 216.50 226Q230 191 252.50 170Q275 149 303.50 140Q332 131 363 131L364 131Q395 131 423.50 140Q452 149 474.50 170Q497 191 510.50 226Q524 261 524 313L524 692Z"  horiz-adv-x="727" vert-adv-y="1000"  />

      
      <glyph glyph-name="unidb" unicode="&#xdb;" d="M429 908L564 750L421 750L363 823L304 750L161 750L296 908L429 908M524 692L672 692L672 313Q672 228 648.50 166.50Q625 105 583.50 65Q542 25 486 6.50Q430-12 364-12L363-12Q297-12 241 6.50Q185 25 143.50 65Q102 105 78.50 166.50Q55 228 55 313L55 692L203 692L203 313Q203 261 216.50 226Q230 191 252.50 170Q275 149 303.50 140Q332 131 363 131L364 131Q395 131 423.50 140Q452 149 474.50 170Q497 191 510.50 226Q524 261 524 313L524 692Z"  horiz-adv-x="727" vert-adv-y="1000"  />

      
      <glyph glyph-name="unidc" unicode="&#xdc;" d="M246 755Q204 755 179 780Q154 805 154 840Q154 875 179 899.50Q204 924 246 924Q286 924 311 899.50Q336 875 336 840Q336 805 311 780Q286 755 246 755M482 755Q441 755 415.50 780Q390 805 390 840Q390 875 415.50 899.50Q441 924 482 924Q522 924 547 899.50Q572 875 572 840Q572 805 547 780Q522 755 482 755M524 692L672 692L672 313Q672 228 648.50 166.50Q625 105 583.50 65Q542 25 486 6.50Q430-12 364-12L363-12Q297-12 241 6.50Q185 25 143.50 65Q102 105 78.50 166.50Q55 228 55 313L55 692L203 692L203 313Q203 261 216.50 226Q230 191 252.50 170Q275 149 303.50 140Q332 131 363 131L364 131Q395 131 423.50 140Q452 149 474.50 170Q497 191 510.50 226Q524 261 524 313L524 692Z"  horiz-adv-x="727" vert-adv-y="1000"  />

      
      <glyph glyph-name="unid9" unicode="&#xd9;" d="M318 750L170 908L337 908L451 750L318 750M524 692L672 692L672 313Q672 228 648.50 166.50Q625 105 583.50 65Q542 25 486 6.50Q430-12 364-12L363-12Q297-12 241 6.50Q185 25 143.50 65Q102 105 78.50 166.50Q55 228 55 313L55 692L203 692L203 313Q203 261 216.50 226Q230 191 252.50 170Q275 149 303.50 140Q332 131 363 131L364 131Q395 131 423.50 140Q452 149 474.50 170Q497 191 510.50 226Q524 261 524 313L524 692Z"  horiz-adv-x="727" vert-adv-y="1000"  />

      
      <glyph glyph-name="uni0170" unicode="&#x0170;" d="M183 750L268 908L414 908L305 750L183 750M403 750L488 908L634 908L525 750L403 750M524 692L672 692L672 313Q672 228 648.50 166.50Q625 105 583.50 65Q542 25 486 6.50Q430-12 364-12L363-12Q297-12 241 6.50Q185 25 143.50 65Q102 105 78.50 166.50Q55 228 55 313L55 692L203 692L203 313Q203 261 216.50 226Q230 191 252.50 170Q275 149 303.50 140Q332 131 363 131L364 131Q395 131 423.50 140Q452 149 474.50 170Q497 191 510.50 226Q524 261 524 313L524 692Z"  horiz-adv-x="727" vert-adv-y="1000"  />

      
      <glyph glyph-name="uni016A" unicode="&#x016A;" d="M195 776L195 884L530 884L530 776L195 776M524 692L672 692L672 313Q672 228 648.50 166.50Q625 105 583.50 65Q542 25 486 6.50Q430-12 364-12L363-12Q297-12 241 6.50Q185 25 143.50 65Q102 105 78.50 166.50Q55 228 55 313L55 692L203 692L203 313Q203 261 216.50 226Q230 191 252.50 170Q275 149 303.50 140Q332 131 363 131L364 131Q395 131 423.50 140Q452 149 474.50 170Q497 191 510.50 226Q524 261 524 313L524 692Z"  horiz-adv-x="727" vert-adv-y="1000"  />

      
      <glyph glyph-name="uni0172" unicode="&#x0172;" d="M524 692L672 692L672 313Q672 246 657.50 194Q643 142 616.50 104Q590 66 553.50 40.50Q517 15 472 2Q435-13 421-30.50Q407-48 407-63Q407-82 420-88.50Q433-95 450-95Q465-95 475.50-93Q486-91 499-88L499-189Q479-194 460-196.50Q441-199 413-199Q386-199 360.50-194Q335-189 315.50-177.50Q296-166 284-147.50Q272-129 272-102Q272-74 287-50.50Q302-27 329-11Q270-7 219.50 14.50Q169 36 132.50 75.50Q96 115 75.50 174Q55 233 55 313L55 692L203 692L203 313Q203 261 216.50 226Q230 191 252.50 170Q275 149 303.50 140Q332 131 363 131L364 131Q395 131 423.50 140Q452 149 474.50 170Q497 191 510.50 226Q524 261 524 313L524 692Z"  horiz-adv-x="727" vert-adv-y="1000"  />

      
      <glyph glyph-name="uni016E" unicode="&#x016E;" d="M363 750Q298 750 264 782.50Q230 815 230 863Q230 911 264 943Q298 975 363 975Q428 975 462 943Q496 911 496 863Q496 815 462 782.50Q428 750 363 750M363 815Q385 815 398.50 829Q412 843 412 863Q412 883 398.50 896.50Q385 910 363 910Q341 910 327.50 896.50Q314 883 314 863Q314 843 327.50 829Q341 815 363 815M524 692L672 692L672 313Q672 228 648.50 166.50Q625 105 583.50 65Q542 25 486 6.50Q430-12 364-12L363-12Q297-12 241 6.50Q185 25 143.50 65Q102 105 78.50 166.50Q55 228 55 313L55 692L203 692L203 313Q203 261 216.50 226Q230 191 252.50 170Q275 149 303.50 140Q332 131 363 131L364 131Q395 131 423.50 140Q452 149 474.50 170Q497 191 510.50 226Q524 261 524 313L524 692Z"  horiz-adv-x="727" vert-adv-y="1000"  />

      
      <glyph glyph-name="uni0168" unicode="&#x0168;" d="M168 751Q168 778 171.50 806Q175 834 187 857Q199 880 222.50 895Q246 910 286 910Q315 910 333.50 902Q352 894 366.50 885Q381 876 394 868Q407 860 424 860Q443 860 449.50 874Q456 888 456 910L562 910Q562 884 558 856Q554 828 542 804.50Q530 781 507.50 766Q485 751 447 751Q415 751 394.50 759Q374 767 359.50 776.50Q345 786 333.50 794Q322 802 308 802Q288 802 281.50 787.50Q275 773 275 751L168 751M524 692L672 692L672 313Q672 228 648.50 166.50Q625 105 583.50 65Q542 25 486 6.50Q430-12 364-12L363-12Q297-12 241 6.50Q185 25 143.50 65Q102 105 78.50 166.50Q55 228 55 313L55 692L203 692L203 313Q203 261 216.50 226Q230 191 252.50 170Q275 149 303.50 140Q332 131 363 131L364 131Q395 131 423.50 140Q452 149 474.50 170Q497 191 510.50 226Q524 261 524 313L524 692Z"  horiz-adv-x="727" vert-adv-y="1000"  />

      
      <glyph glyph-name="uni56" unicode="&#x56;" d="M15 692L170 692L359 181L547 692L702 692L438 0L279 0L15 692Z"  horiz-adv-x="717" vert-adv-y="1000"  />

      
      <glyph glyph-name="uni57" unicode="&#x57;" d="M378 536L510 536L639 216L710 692L865 692L728 0L595 0L445 380L443 380L293 0L160 0L23 692L177 692L249 216L378 536Z"  horiz-adv-x="888" vert-adv-y="1000"  />

      
      <glyph glyph-name="uni1E82" unicode="&#x1E82;" d="M346 750L461 908L628 908L480 750L346 750M378 536L510 536L639 216L710 692L865 692L728 0L595 0L445 380L443 380L293 0L160 0L23 692L177 692L249 216L378 536Z"  horiz-adv-x="888" vert-adv-y="1000"  />

      
      <glyph glyph-name="uni0174" unicode="&#x0174;" d="M510 908L645 750L502 750L444 823L385 750L242 750L377 908L510 908M378 536L510 536L639 216L710 692L865 692L728 0L595 0L445 380L443 380L293 0L160 0L23 692L177 692L249 216L378 536Z"  horiz-adv-x="888" vert-adv-y="1000"  />

      
      <glyph glyph-name="uni1E84" unicode="&#x1E84;" d="M327 755Q285 755 260 780Q235 805 235 840Q235 875 260 899.50Q285 924 327 924Q367 924 392 899.50Q417 875 417 840Q417 805 392 780Q367 755 327 755M563 755Q522 755 496.50 780Q471 805 471 840Q471 875 496.50 899.50Q522 924 563 924Q603 924 628 899.50Q653 875 653 840Q653 805 628 780Q603 755 563 755M378 536L510 536L639 216L710 692L865 692L728 0L595 0L445 380L443 380L293 0L160 0L23 692L177 692L249 216L378 536Z"  horiz-adv-x="888" vert-adv-y="1000"  />

      
      <glyph glyph-name="uni1E80" unicode="&#x1E80;" d="M399 750L251 908L418 908L532 750L399 750M378 536L510 536L639 216L710 692L865 692L728 0L595 0L445 380L443 380L293 0L160 0L23 692L177 692L249 216L378 536Z"  horiz-adv-x="888" vert-adv-y="1000"  />

      
      <glyph glyph-name="uni58" unicode="&#x58;" d="M455 350L680 0L516 0L348 272L179 0L15 0L241 350L23 692L188 692L348 431L508 692L672 692L455 350Z"  horiz-adv-x="696" vert-adv-y="1000"  />

      
      <glyph glyph-name="uni59" unicode="&#x59;" d="M343 383L525 692L687 692L417 251L417 0L269 0L269 251L-1 692L160 692L343 383Z"  horiz-adv-x="685" vert-adv-y="1000"  />

      
      <glyph glyph-name="unidd" unicode="&#xdd;" d="M244 750L359 908L526 908L378 750L244 750M343 383L525 692L687 692L417 251L417 0L269 0L269 251L-1 692L160 692L343 383Z"  horiz-adv-x="685" vert-adv-y="1000"  />

      
      <glyph glyph-name="uni0176" unicode="&#x0176;" d="M408 908L543 750L400 750L342 823L283 750L140 750L275 908L408 908M343 383L525 692L687 692L417 251L417 0L269 0L269 251L-1 692L160 692L343 383Z"  horiz-adv-x="685" vert-adv-y="1000"  />

      
      <glyph glyph-name="uni0178" unicode="&#x0178;" d="M225 755Q183 755 158 780Q133 805 133 840Q133 875 158 899.50Q183 924 225 924Q265 924 290 899.50Q315 875 315 840Q315 805 290 780Q265 755 225 755M461 755Q420 755 394.50 780Q369 805 369 840Q369 875 394.50 899.50Q420 924 461 924Q501 924 526 899.50Q551 875 551 840Q551 805 526 780Q501 755 461 755M343 383L525 692L687 692L417 251L417 0L269 0L269 251L-1 692L160 692L343 383Z"  horiz-adv-x="685" vert-adv-y="1000"  />

      
      <glyph glyph-name="uni1EF2" unicode="&#x1EF2;" d="M297 750L149 908L316 908L430 750L297 750M343 383L525 692L687 692L417 251L417 0L269 0L269 251L-1 692L160 692L343 383Z"  horiz-adv-x="685" vert-adv-y="1000"  />

      
      <glyph glyph-name="uni1EF8" unicode="&#x1EF8;" d="M147 751Q147 778 150.50 806Q154 834 166 857Q178 880 201.50 895Q225 910 265 910Q294 910 312.50 902Q331 894 345.50 885Q360 876 373 868Q386 860 403 860Q422 860 428.50 874Q435 888 435 910L541 910Q541 884 537 856Q533 828 521 804.50Q509 781 486.50 766Q464 751 426 751Q394 751 373.50 759Q353 767 338.50 776.50Q324 786 312.50 794Q301 802 287 802Q267 802 260.50 787.50Q254 773 254 751L147 751M343 383L525 692L687 692L417 251L417 0L269 0L269 251L-1 692L160 692L343 383Z"  horiz-adv-x="685" vert-adv-y="1000"  />

      
      <glyph glyph-name="uni5a" unicode="&#x5a;" d="M230 135L609 135L609 0L39 0L39 135L377 529L405 557L43 557L43 692L596 692L596 557L258 163L230 135Z"  horiz-adv-x="644" vert-adv-y="1000"  />

      
      <glyph glyph-name="uni0179" unicode="&#x0179;" d="M510 908L362 750L228 750L343 908L510 908M230 135L609 135L609 0L39 0L39 135L377 529L405 557L43 557L43 692L596 692L596 557L258 163L230 135Z"  horiz-adv-x="644" vert-adv-y="1000"  />

      
      <glyph glyph-name="uni017D" unicode="&#x017D;" d="M391 750L259 750L124 908L267 908L325 835L383 908L526 908L391 750M230 135L609 135L609 0L39 0L39 135L377 529L405 557L43 557L43 692L596 692L596 557L258 163L230 135Z"  horiz-adv-x="644" vert-adv-y="1000"  />

      
      <glyph glyph-name="uni017B" unicode="&#x017B;" d="M326 756Q283 756 257 780.50Q231 805 231 842Q231 877 257 902Q283 927 326 927Q368 927 394 902Q420 877 420 842Q420 805 394 780.50Q368 756 326 756M230 135L609 135L609 0L39 0L39 135L377 529L405 557L43 557L43 692L596 692L596 557L258 163L230 135Z"  horiz-adv-x="644" vert-adv-y="1000"  />

      
      <glyph glyph-name="uni61" unicode="&#x61;" d="M14 0L296 692L455 692L738 0L582 0L526 145L225 145L170 0L14 0M479 275L376 540L272 275L479 275Z"  horiz-adv-x="751" vert-adv-y="1000"  />

      
      <glyph glyph-name="unie1" unicode="&#xe1;" d="M279 752L394 910L561 910L413 752L279 752M738 0L582 0L526 145L225 145L170 0L14 0L296 692L455 692L738 0M376 540L272 275L479 275L376 540Z"  horiz-adv-x="751" vert-adv-y="1000"  />

      
      <glyph glyph-name="uni0103" unicode="&#x0103;" d="M377 752Q326 752 290 764Q254 776 231 797Q208 818 197.50 847Q187 876 187 910L311 910Q311 881 329 866.50Q347 852 377 852Q406 852 424 866.50Q442 881 442 910L565 910Q565 876 554.50 847Q544 818 521.50 797Q499 776 463 764Q427 752 377 752M738 0L582 0L526 145L225 145L170 0L14 0L296 692L455 692L738 0M376 540L272 275L479 275L376 540Z"  horiz-adv-x="751" vert-adv-y="1000"  />

      
      <glyph glyph-name="unie2" unicode="&#xe2;" d="M443 910L578 752L435 752L377 825L318 752L175 752L310 910L443 910M738 0L582 0L526 145L225 145L170 0L14 0L296 692L455 692L738 0M376 540L272 275L479 275L376 540Z"  horiz-adv-x="751" vert-adv-y="1000"  />

      
      <glyph glyph-name="unie4" unicode="&#xe4;" d="M259 756Q217 756 192 781Q167 806 167 841Q167 876 192 900.50Q217 925 259 925Q299 925 324 900.50Q349 876 349 841Q349 806 324 781Q299 756 259 756M495 756Q454 756 428.50 781Q403 806 403 841Q403 876 428.50 900.50Q454 925 495 925Q535 925 560 900.50Q585 876 585 841Q585 806 560 781Q535 756 495 756M738 0L582 0L526 145L225 145L170 0L14 0L296 692L455 692L738 0M376 540L272 275L479 275L376 540Z"  horiz-adv-x="751" vert-adv-y="1000"  />

      
      <glyph glyph-name="unie0" unicode="&#xe0;" d="M332 752L184 910L351 910L465 752L332 752M738 0L582 0L526 145L225 145L170 0L14 0L296 692L455 692L738 0M376 540L272 275L479 275L376 540Z"  horiz-adv-x="751" vert-adv-y="1000"  />

      
      <glyph glyph-name="uni0101" unicode="&#x0101;" d="M208 778L208 886L543 886L543 778L208 778M738 0L582 0L526 145L225 145L170 0L14 0L296 692L455 692L738 0M376 540L272 275L479 275L376 540Z"  horiz-adv-x="751" vert-adv-y="1000"  />

      
      <glyph glyph-name="uni0105" unicode="&#x0105;" d="M698-104Q713-104 723.50-102Q734-100 747-97L747-198Q727-203 708-205.50Q689-208 661-208Q634-208 608.50-203Q583-198 563.50-186.50Q544-175 532-156.50Q520-138 520-111Q520-72 548.50-42.50Q577-13 626 0L582 0L526 145L225 145L170 0L14 0L296 692L455 692L738 0Q690-16 672.50-35.50Q655-55 655-72Q655-91 668-97.50Q681-104 698-104M272 275L479 275L376 540L272 275Z"  horiz-adv-x="751" vert-adv-y="1000"  />

      
      <glyph glyph-name="unie5" unicode="&#xe5;" d="M376 752Q311 752 277 784.50Q243 817 243 865Q243 913 277 945Q311 977 376 977Q441 977 475 945Q509 913 509 865Q509 817 475 784.50Q441 752 376 752M376 817Q398 817 411.50 831Q425 845 425 865Q425 885 411.50 898.50Q398 912 376 912Q354 912 340.50 898.50Q327 885 327 865Q327 845 340.50 831Q354 817 376 817M738 0L582 0L526 145L225 145L170 0L14 0L296 692L455 692L738 0M376 540L272 275L479 275L376 540Z"  horiz-adv-x="751" vert-adv-y="1000"  />

      
      <glyph glyph-name="unie3" unicode="&#xe3;" d="M181 753Q181 780 184.50 808Q188 836 200 859Q212 882 235.50 897Q259 912 299 912Q328 912 346.50 904Q365 896 379.50 887Q394 878 407 870Q420 862 437 862Q456 862 462.50 876Q469 890 469 912L575 912Q575 886 571 858Q567 830 555 806.50Q543 783 520.50 768Q498 753 460 753Q428 753 407.50 761Q387 769 372.50 778.50Q358 788 346.50 796Q335 804 321 804Q301 804 294.50 789.50Q288 775 288 753L181 753M738 0L582 0L526 145L225 145L170 0L14 0L296 692L455 692L738 0M376 540L272 275L479 275L376 540Z"  horiz-adv-x="751" vert-adv-y="1000"  />

      
      <glyph glyph-name="unie6" unicode="&#xe6;" d="M1033 692L1033 554L709 554L709 414L995 414L995 276L709 276L709 138L1033 138L1033 0L561 0L561 148L319 148L227 0L71 0L504 692L1033 692M561 542L385 262L561 262L561 542Z"  horiz-adv-x="1109" vert-adv-y="1000"  />

      
      <glyph glyph-name="uni01FD" unicode="&#x01FD;" d="M552 750L667 908L834 908L686 750L552 750M1033 692L1033 554L709 554L709 414L995 414L995 276L709 276L709 138L1033 138L1033 0L561 0L561 148L319 148L227 0L71 0L504 692L1033 692M561 542L385 262L561 262L561 542Z"  horiz-adv-x="1109" vert-adv-y="1000"  />

      
      <glyph glyph-name="uni62" unicode="&#x62;" d="M363 692Q618 692 618 504Q618 467 610 440Q602 413 588 394Q574 375 553.50 363Q533 351 509 344Q571 330 604.50 293.50Q638 257 638 190Q638 139 618 102.50Q598 66 563.50 43.50Q529 21 481.50 10.50Q434 0 380 0L72 0L72 692L363 692M380 127Q435 127 463.50 145.50Q492 164 492 209Q492 246 467.50 269Q443 292 381 292L220 292L220 127L380 127M220 405L369 405Q416 405 444.50 421.50Q473 438 473 482Q473 527 445 546Q417 565 363 565L220 565L220 405Z"  horiz-adv-x="674" vert-adv-y="1000"  />

      
      <glyph glyph-name="uni63" unicode="&#x63;" d="M32 346L32 347Q32 425 56.50 491Q81 557 127 604Q173 651 239 677.50Q305 704 388 704L389 704Q458 704 520 684.50Q582 665 631 620L550 509Q483 566 389 566L388 566Q340 566 301.50 549Q263 532 236 503Q209 474 194.50 434Q180 394 180 347L180 346Q180 299 194.50 258.50Q209 218 236 188.50Q263 159 301.50 142.50Q340 126 388 126L389 126Q440 126 479 141Q518 156 550 183L631 72Q540-12 389-12L388-12Q305-12 239 14.50Q173 41 127 88.50Q81 136 56.50 201.50Q32 267 32 346Z"  horiz-adv-x="650" vert-adv-y="1000"  />

      
      <glyph glyph-name="uni0107" unicode="&#x0107;" d="M272 750L387 908L554 908L406 750L272 750M550 509Q483 566 389 566L388 566Q340 566 301.50 549Q263 532 236 503Q209 474 194.50 434Q180 394 180 347L180 346Q180 299 194.50 258.50Q209 218 236 188.50Q263 159 301.50 142.50Q340 126 388 126L389 126Q440 126 479 141Q518 156 550 183L631 72Q540-12 389-12L388-12Q305-12 239 14.50Q173 41 127 88.50Q81 136 56.50 201.50Q32 267 32 346L32 347Q32 425 56.50 491Q81 557 127 604Q173 651 239 677.50Q305 704 388 704L389 704Q458 704 520 684.50Q582 665 631 620L550 509Z"  horiz-adv-x="650" vert-adv-y="1000"  />

      
      <glyph glyph-name="uni010D" unicode="&#x010D;" d="M435 750L303 750L168 908L311 908L369 835L427 908L570 908L435 750M550 509Q483 566 389 566L388 566Q340 566 301.50 549Q263 532 236 503Q209 474 194.50 434Q180 394 180 347L180 346Q180 299 194.50 258.50Q209 218 236 188.50Q263 159 301.50 142.50Q340 126 388 126L389 126Q440 126 479 141Q518 156 550 183L631 72Q540-12 389-12L388-12Q305-12 239 14.50Q173 41 127 88.50Q81 136 56.50 201.50Q32 267 32 346L32 347Q32 425 56.50 491Q81 557 127 604Q173 651 239 677.50Q305 704 388 704L389 704Q458 704 520 684.50Q582 665 631 620L550 509Z"  horiz-adv-x="650" vert-adv-y="1000"  />

      
      <glyph glyph-name="unie7" unicode="&#xe7;" d="M631 72Q544-7 405-12L384-43Q427-49 454.50-68Q482-87 482-125Q482-149 471-165Q460-181 441-191Q422-201 396-205Q370-209 341-209Q303-209 280-206.50Q257-204 239-200L239-130Q253-134 267-136.50Q281-139 300-139Q329-139 344.50-132Q360-125 360-109Q360-88 335.50-82.50Q311-77 277-77L322-7Q254 3 200 33Q146 63 108.50 109Q71 155 51.50 215.50Q32 276 32 346L32 347Q32 425 56.50 491Q81 557 127 604Q173 651 239 677.50Q305 704 388 704L389 704Q458 704 520 684.50Q582 665 631 620L550 509Q483 566 389 566L388 566Q340 566 301.50 549Q263 532 236 503Q209 474 194.50 434Q180 394 180 347L180 346Q180 299 194.50 258.50Q209 218 236 188.50Q263 159 301.50 142.50Q340 126 388 126L389 126Q440 126 479 141Q518 156 550 183L631 72Z"  horiz-adv-x="650" vert-adv-y="1000"  />

      
      <glyph glyph-name="uni010B" unicode="&#x010B;" d="M370 756Q327 756 301 780.50Q275 805 275 842Q275 877 301 902Q327 927 370 927Q412 927 438 902Q464 877 464 842Q464 805 438 780.50Q412 756 370 756M550 509Q483 566 389 566L388 566Q340 566 301.50 549Q263 532 236 503Q209 474 194.50 434Q180 394 180 347L180 346Q180 299 194.50 258.50Q209 218 236 188.50Q263 159 301.50 142.50Q340 126 388 126L389 126Q440 126 479 141Q518 156 550 183L631 72Q540-12 389-12L388-12Q305-12 239 14.50Q173 41 127 88.50Q81 136 56.50 201.50Q32 267 32 346L32 347Q32 425 56.50 491Q81 557 127 604Q173 651 239 677.50Q305 704 388 704L389 704Q458 704 520 684.50Q582 665 631 620L550 509Z"  horiz-adv-x="650" vert-adv-y="1000"  />

      
      <glyph glyph-name="uni64" unicode="&#x64;" d="M343 692Q426 692 490.50 667Q555 642 599 596.50Q643 551 666.50 487.50Q690 424 690 346L690 345Q690 268 666.50 204.50Q643 141 599 95.50Q555 50 490.50 25Q426 0 343 0L72 0L72 692L343 692M220 139L343 139Q391 139 428 154Q465 169 490.50 196Q516 223 529.50 261Q543 299 543 345L543 346Q543 393 529.50 431Q516 469 490.50 496Q465 523 428 538Q391 553 343 553L220 553L220 139Z"  horiz-adv-x="722" vert-adv-y="1000"  />

      
      <glyph glyph-name="unif0" unicode="&#xf0;" d="M343 692Q426 692 490.50 667Q555 642 599 596.50Q643 551 666.50 487.50Q690 424 690 346L690 345Q690 268 666.50 204.50Q643 141 599 95.50Q555 50 490.50 25Q426 0 343 0L72 0L72 290L-1 290L-1 398L72 398L72 692L343 692M543 346Q543 393 529.50 431Q516 469 490.50 496Q465 523 428 538Q391 553 343 553L220 553L220 398L358 398L358 290L220 290L220 139L343 139Q391 139 428 154Q465 169 490.50 196Q516 223 529.50 261Q543 299 543 345L543 346Z"  horiz-adv-x="722" vert-adv-y="1000"  />

      
      <glyph glyph-name="uni010F" unicode="&#x010F;" d="M433 750L301 750L166 908L309 908L367 835L425 908L568 908L433 750M343 692Q426 692 490.50 667Q555 642 599 596.50Q643 551 666.50 487.50Q690 424 690 346L690 345Q690 268 666.50 204.50Q643 141 599 95.50Q555 50 490.50 25Q426 0 343 0L72 0L72 692L343 692M220 139L343 139Q391 139 428 154Q465 169 490.50 196Q516 223 529.50 261Q543 299 543 345L543 346Q543 393 529.50 431Q516 469 490.50 496Q465 523 428 538Q391 553 343 553L220 553L220 139Z"  horiz-adv-x="722" vert-adv-y="1000"  />

      
      <glyph glyph-name="uni0111" unicode="&#x0111;" d="M343 692Q426 692 490.50 667Q555 642 599 596.50Q643 551 666.50 487.50Q690 424 690 346L690 345Q690 268 666.50 204.50Q643 141 599 95.50Q555 50 490.50 25Q426 0 343 0L72 0L72 290L-1 290L-1 398L72 398L72 692L343 692M543 346Q543 393 529.50 431Q516 469 490.50 496Q465 523 428 538Q391 553 343 553L220 553L220 398L358 398L358 290L220 290L220 139L343 139Q391 139 428 154Q465 169 490.50 196Q516 223 529.50 261Q543 299 543 345L543 346Z"  horiz-adv-x="722" vert-adv-y="1000"  />

      
      <glyph glyph-name="uni65" unicode="&#x65;" d="M544 692L544 554L220 554L220 414L506 414L506 276L220 276L220 138L544 138L544 0L72 0L72 692L544 692Z"  horiz-adv-x="591" vert-adv-y="1000"  />

      
      <glyph glyph-name="unie9" unicode="&#xe9;" d="M214 750L329 908L496 908L348 750L214 750M544 692L544 554L220 554L220 414L506 414L506 276L220 276L220 138L544 138L544 0L72 0L72 692L544 692Z"  horiz-adv-x="591" vert-adv-y="1000"  />

      
      <glyph glyph-name="uni011B" unicode="&#x011B;" d="M378 750L246 750L111 908L254 908L312 835L370 908L513 908L378 750M544 692L544 554L220 554L220 414L506 414L506 276L220 276L220 138L544 138L544 0L72 0L72 692L544 692Z"  horiz-adv-x="591" vert-adv-y="1000"  />

      
      <glyph glyph-name="uniea" unicode="&#xea;" d="M378 908L513 750L370 750L312 823L253 750L110 750L245 908L378 908M544 692L544 554L220 554L220 414L506 414L506 276L220 276L220 138L544 138L544 0L72 0L72 692L544 692Z"  horiz-adv-x="591" vert-adv-y="1000"  />

      
      <glyph glyph-name="unieb" unicode="&#xeb;" d="M195 755Q153 755 128 780Q103 805 103 840Q103 875 128 899.50Q153 924 195 924Q235 924 260 899.50Q285 875 285 840Q285 805 260 780Q235 755 195 755M431 755Q390 755 364.50 780Q339 805 339 840Q339 875 364.50 899.50Q390 924 431 924Q471 924 496 899.50Q521 875 521 840Q521 805 496 780Q471 755 431 755M544 692L544 554L220 554L220 414L506 414L506 276L220 276L220 138L544 138L544 0L72 0L72 692L544 692Z"  horiz-adv-x="591" vert-adv-y="1000"  />

      
      <glyph glyph-name="uni0117" unicode="&#x0117;" d="M312 756Q269 756 243 780.50Q217 805 217 842Q217 877 243 902Q269 927 312 927Q354 927 380 902Q406 877 406 842Q406 805 380 780.50Q354 756 312 756M544 692L544 554L220 554L220 414L506 414L506 276L220 276L220 138L544 138L544 0L72 0L72 692L544 692Z"  horiz-adv-x="591" vert-adv-y="1000"  />

      
      <glyph glyph-name="unie8" unicode="&#xe8;" d="M267 750L119 908L286 908L400 750L267 750M544 692L544 554L220 554L220 414L506 414L506 276L220 276L220 138L544 138L544 0L72 0L72 692L544 692Z"  horiz-adv-x="591" vert-adv-y="1000"  />

      
      <glyph glyph-name="uni0113" unicode="&#x0113;" d="M144 776L144 884L479 884L479 776L144 776M544 692L544 554L220 554L220 414L506 414L506 276L220 276L220 138L544 138L544 0L72 0L72 692L544 692Z"  horiz-adv-x="591" vert-adv-y="1000"  />

      
      <glyph glyph-name="uni0119" unicode="&#x0119;" d="M504-104Q519-104 529.50-102Q540-100 553-97L553-198Q533-203 514-205.50Q495-208 467-208Q440-208 414.50-203Q389-198 369.50-186.50Q350-175 338-156.50Q326-138 326-111Q326-72 354.50-42.50Q383-13 432 0L72 0L72 692L544 692L544 554L220 554L220 414L506 414L506 276L220 276L220 138L544 138L544 0Q496-16 478.50-35.50Q461-55 461-72Q461-91 474-97.50Q487-104 504-104Z"  horiz-adv-x="591" vert-adv-y="1000"  />

      
      <glyph glyph-name="uni66" unicode="&#x66;" d="M72 692L544 692L544 553L220 553L220 396L506 396L506 256L220 256L220 0L72 0L72 692Z"  horiz-adv-x="572" vert-adv-y="1000"  />

      
      <glyph glyph-name="uni67" unicode="&#x67;" d="M32 347Q32 425 56.50 490.50Q81 556 128 603.50Q175 651 243 677.50Q311 704 398 704L399 704Q474 704 538.50 684.50Q603 665 652 620L571 509Q504 566 399 566L398 566Q346 566 305.50 549.50Q265 533 237 504Q209 475 194.50 435Q180 395 180 347L180 346Q180 299 194.50 259Q209 219 236 189.50Q263 160 302 143Q341 126 390 126L391 126Q451 126 494 147.50Q537 169 548 207L548 244L401 244L401 363L670 363L670 0L579 0L573 70Q544 29 494 8.50Q444-12 378-12L377-12Q297-12 233 14.50Q169 41 124.50 88.50Q80 136 56 202Q32 268 32 346L32 347Z"  horiz-adv-x="716" vert-adv-y="1000"  />

      
      <glyph glyph-name="uni011F" unicode="&#x011F;" d="M389 750Q338 750 302 762Q266 774 243 795Q220 816 209.50 845Q199 874 199 908L323 908Q323 879 341 864.50Q359 850 389 850Q418 850 436 864.50Q454 879 454 908L577 908Q577 874 566.50 845Q556 816 533.50 795Q511 774 475 762Q439 750 389 750M571 509Q504 566 399 566L398 566Q346 566 305.50 549.50Q265 533 237 504Q209 475 194.50 435Q180 395 180 347L180 346Q180 299 194.50 259Q209 219 236 189.50Q263 160 302 143Q341 126 390 126L391 126Q451 126 494 147.50Q537 169 548 207L548 244L401 244L401 363L670 363L670 0L579 0L573 70Q544 29 494 8.50Q444-12 378-12L377-12Q297-12 233 14.50Q169 41 124.50 88.50Q80 136 56 202Q32 268 32 346L32 347Q32 425 56.50 490.50Q81 556 128 603.50Q175 651 243 677.50Q311 704 398 704L399 704Q474 704 538.50 684.50Q603 665 652 620L571 509Z"  horiz-adv-x="716" vert-adv-y="1000"  />

      
      <glyph glyph-name="uni0123" unicode="&#x0123;" d="M571 509Q504 566 399 566L398 566Q346 566 305.50 549.50Q265 533 237 504Q209 475 194.50 435Q180 395 180 347L180 346Q180 299 194.50 259Q209 219 236 189.50Q263 160 302 143Q341 126 390 126L391 126Q451 126 494 147.50Q537 169 548 207L548 244L401 244L401 363L670 363L670 0L579 0L573 70Q544 29 494 8.50Q444-12 378-12L377-12Q297-12 233 14.50Q169 41 124.50 88.50Q80 136 56 202Q32 268 32 346L32 347Q32 425 56.50 490.50Q81 556 128 603.50Q175 651 243 677.50Q311 704 398 704L399 704Q474 704 538.50 684.50Q603 665 652 620L571 509M310-305L342-197Q320-190 302.50-169Q285-148 285-118Q285-82 310.50-58Q336-34 378-34Q420-34 445.50-58Q471-82 471-118Q471-142 454-177L394-305L310-305Z"  horiz-adv-x="716" vert-adv-y="1000"  />

      
      <glyph glyph-name="uni0121" unicode="&#x0121;" d="M389 756Q346 756 320 780.50Q294 805 294 842Q294 877 320 902Q346 927 389 927Q431 927 457 902Q483 877 483 842Q483 805 457 780.50Q431 756 389 756M571 509Q504 566 399 566L398 566Q346 566 305.50 549.50Q265 533 237 504Q209 475 194.50 435Q180 395 180 347L180 346Q180 299 194.50 259Q209 219 236 189.50Q263 160 302 143Q341 126 390 126L391 126Q451 126 494 147.50Q537 169 548 207L548 244L401 244L401 363L670 363L670 0L579 0L573 70Q544 29 494 8.50Q444-12 378-12L377-12Q297-12 233 14.50Q169 41 124.50 88.50Q80 136 56 202Q32 268 32 346L32 347Q32 425 56.50 490.50Q81 556 128 603.50Q175 651 243 677.50Q311 704 398 704L399 704Q474 704 538.50 684.50Q603 665 652 620L571 509Z"  horiz-adv-x="716" vert-adv-y="1000"  />

      
      <glyph glyph-name="uni68" unicode="&#x68;" d="M534 417L534 692L682 692L682 0L534 0L534 277L220 277L220 0L72 0L72 692L220 692L220 417L534 417Z"  horiz-adv-x="754" vert-adv-y="1000"  />

      
      <glyph glyph-name="uni0127" unicode="&#x0127;" d="M755 609L755 501L682 501L682 0L534 0L534 277L220 277L220 0L72 0L72 501L-2 501L-2 609L72 609L72 692L220 692L220 609L534 609L534 692L682 692L682 609L755 609M534 417L534 501L220 501L220 417L534 417Z"  horiz-adv-x="754" vert-adv-y="1000"  />

      
      <glyph glyph-name="uni69" unicode="&#x69;" d="M72 0L72 692L220 692L220 0L72 0Z"  horiz-adv-x="292" vert-adv-y="1000"  />

      
      <glyph glyph-name="unied" unicode="&#xed;" d="M48 750L163 908L330 908L182 750L48 750M72 0L72 692L220 692L220 0L72 0Z"  horiz-adv-x="292" vert-adv-y="1000"  />

      
      <glyph glyph-name="uniee" unicode="&#xee;" d="M212 908L345 750L202 750L146 823L89 750L-54 750L79 908L212 908M72 0L72 692L220 692L220 0L72 0Z"  horiz-adv-x="292" vert-adv-y="1000"  />

      
      <glyph glyph-name="unief" unicode="&#xef;" d="M33 754Q-9 754-34 779Q-59 804-59 839Q-59 874-34 898.50Q-9 923 33 923Q73 923 98 898.50Q123 874 123 839Q123 804 98 779Q73 754 33 754M260 754Q219 754 193.50 779Q168 804 168 839Q168 874 193.50 898.50Q219 923 260 923Q300 923 325.50 898.50Q351 874 351 839Q351 804 325.50 779Q300 754 260 754M72 0L72 692L220 692L220 0L72 0Z"  horiz-adv-x="292" vert-adv-y="1000"  />

      
      <glyph glyph-name="uniec" unicode="&#xec;" d="M101 750L-47 908L120 908L234 750L101 750M72 0L72 692L220 692L220 0L72 0Z"  horiz-adv-x="292" vert-adv-y="1000"  />

      
      <glyph glyph-name="uni0133" unicode="&#x0133;" d="M72 0L72 692L220 692L220 0L72 0M782 692L782 268Q782 135 713 61.50Q644-12 513-12L512-12Q446-12 394 7Q342 26 303 70L384 192Q405 163 435.50 147Q466 131 512 131L513 131Q574 131 604 166Q634 201 634 268L634 553L412 553L412 692L782 692Z"  horiz-adv-x="840" vert-adv-y="1000"  />

      
      <glyph glyph-name="uni012B" unicode="&#x012B;" d="M-12 778L-12 885L302 885L302 778L-12 778M72 0L72 692L220 692L220 0L72 0Z"  horiz-adv-x="292" vert-adv-y="1000"  />

      
      <glyph glyph-name="uni012F" unicode="&#x012F;" d="M188-104Q203-104 213.50-102Q224-100 236-97L236-198Q217-203 197.50-205.50Q178-208 151-208Q124-208 98-203Q72-198 52.50-186Q33-174 21-155.50Q9-137 9-110Q9-72 35-42.50Q61-13 108 0L72 0L72 692L220 692L220 0Q174-16 159.50-35.50Q145-55 145-71Q145-90 158-97Q171-104 188-104Z"  horiz-adv-x="292" vert-adv-y="1000"  />

      
      <glyph glyph-name="uni0129" unicode="&#x0129;" d="M-41 751Q-41 778-37.50 806Q-34 834-22.50 857Q-11 880 11.50 895Q34 910 72 910Q99 910 117 902Q135 894 148.50 885Q162 876 174.50 868Q187 860 203 860Q221 860 227 874Q233 888 233 910L335 910Q335 884 331.50 856Q328 828 316.50 804.50Q305 781 283 766Q261 751 225 751Q194 751 174.50 759Q155 767 141 776.50Q127 786 116.50 794Q106 802 92 802Q73 802 67 787.50Q61 773 61 751L-41 751M72 0L72 692L220 692L220 0L72 0Z"  horiz-adv-x="290" vert-adv-y="1000"  />

      
      <glyph glyph-name="uni6a" unicode="&#x6a;" d="M490 692L490 268Q490 135 421 61.50Q352-12 221-12L220-12Q154-12 102 7Q50 26 11 70L92 192Q113 163 143.50 147Q174 131 220 131L221 131Q282 131 312 166Q342 201 342 268L342 553L120 553L120 692L490 692Z"  horiz-adv-x="548" vert-adv-y="1000"  />

      
      <glyph glyph-name="uni6b" unicode="&#x6b;" d="M512 692L674 692L454 334L674 0L511 0L333 271L220 271L220 0L72 0L72 692L220 692L220 410L343 410L512 692Z"  horiz-adv-x="693" vert-adv-y="1000"  />

      
      <glyph glyph-name="uni0137" unicode="&#x0137;" d="M512 692L674 692L454 334L674 0L511 0L333 271L220 271L220 0L72 0L72 692L220 692L220 410L343 410L512 692M292-305L324-197Q302-190 284.50-169Q267-148 267-118Q267-82 292.50-58Q318-34 360-34Q402-34 427.50-58Q453-82 453-118Q453-142 436-177L376-305L292-305Z"  horiz-adv-x="693" vert-adv-y="1000"  />

      
      <glyph glyph-name="uni6c" unicode="&#x6c;" d="M220 692L220 142L573 142L573 0L72 0L72 692L220 692Z"  horiz-adv-x="594" vert-adv-y="1000"  />

      
      <glyph glyph-name="uni013A" unicode="&#x013A;" d="M48 750L163 908L330 908L182 750L48 750M220 692L220 142L573 142L573 0L72 0L72 692L220 692Z"  horiz-adv-x="594" vert-adv-y="1000"  />

      
      <glyph glyph-name="uni013E" unicode="&#x013E;" d="M389 498L389 714L542 714L506 498L389 498M220 692L220 142L573 142L573 0L72 0L72 692L220 692Z"  horiz-adv-x="619" vert-adv-y="1000"  />

      
      <glyph glyph-name="uni013C" unicode="&#x013C;" d="M220 692L220 142L573 142L573 0L72 0L72 692L220 692M245-305L277-197Q255-190 237.50-169Q220-148 220-118Q220-82 245.50-58Q271-34 313-34Q355-34 380.50-58Q406-82 406-118Q406-142 389-177L329-305L245-305Z"  horiz-adv-x="594" vert-adv-y="1000"  />

      
      <glyph glyph-name="uni0140" unicode="&#x0140;" d="M220 692L220 142L573 142L573 0L72 0L72 692L220 692M448 310Q406 310 380.50 334Q355 358 355 395Q355 430 380.50 454Q406 478 448 478Q490 478 515.50 454Q541 430 541 395Q541 358 515.50 334Q490 310 448 310Z"  horiz-adv-x="594" vert-adv-y="1000"  />

      
      <glyph glyph-name="uni0142" unicode="&#x0142;" d="M220 142L573 142L573 0L72 0L72 248L-2 213L-50 312L72 371L72 692L220 692L220 443L324 493L373 392L220 319L220 142Z"  horiz-adv-x="594" vert-adv-y="1000"  />

      
      <glyph glyph-name="uni6d" unicode="&#x6d;" d="M215 692L426 324L637 692L780 692L780 0L637 0L637 445L471 139L381 139L216 445L216 0L72 0L72 692L215 692Z"  horiz-adv-x="852" vert-adv-y="1000"  />

      
      <glyph glyph-name="uni6e" unicode="&#x6e;" d="M538 692L682 692L682 0L551 0L216 439L216 0L72 0L72 692L203 692L538 252L538 692Z"  horiz-adv-x="754" vert-adv-y="1000"  />

      
      <glyph glyph-name="uni0144" unicode="&#x0144;" d="M564 908L416 750L282 750L397 908L564 908M538 692L682 692L682 0L551 0L216 439L216 0L72 0L72 692L203 692L538 252L538 692Z"  horiz-adv-x="754" vert-adv-y="1000"  />

      
      <glyph glyph-name="uni0148" unicode="&#x0148;" d="M445 750L313 750L178 908L321 908L379 835L437 908L580 908L445 750M538 692L682 692L682 0L551 0L216 439L216 0L72 0L72 692L203 692L538 252L538 692Z"  horiz-adv-x="754" vert-adv-y="1000"  />

      
      <glyph glyph-name="uni0146" unicode="&#x0146;" d="M538 692L682 692L682 0L551 0L216 439L216 0L72 0L72 692L203 692L538 252L538 692M387-34Q429-34 454.50-58Q480-82 480-118Q480-142 463-177L403-305L319-305L351-197Q329-190 311.50-169Q294-148 294-118Q294-82 319.50-58Q345-34 387-34Z"  horiz-adv-x="754" vert-adv-y="1000"  />

      
      <glyph glyph-name="uni014B" unicode="&#x014B;" d="M72 0L72 692L203 692L538 255L538 692L682 692L682-13Q682-60 669.50-97.50Q657-135 629.50-161Q602-187 559-200.50Q516-214 454-214L454-87Q505-87 523.50-67Q542-47 542-11L542 14L216 439L216 0L72 0Z"  horiz-adv-x="758" vert-adv-y="1000"  />

      
      <glyph glyph-name="unif1" unicode="&#xf1;" d="M324 802Q304 802 297.50 787.50Q291 773 291 751L184 751Q184 778 187.50 806Q191 834 203 857Q215 880 238.50 895Q262 910 302 910Q331 910 349.50 902Q368 894 382.50 885Q397 876 410 868Q423 860 440 860Q459 860 465.50 874Q472 888 472 910L578 910Q578 884 574 856Q570 828 558 804.50Q546 781 523.50 766Q501 751 463 751Q431 751 410.50 759Q390 767 375.50 776.50Q361 786 349.50 794Q338 802 324 802M538 692L682 692L682 0L551 0L216 439L216 0L72 0L72 692L203 692L538 252L538 692Z"  horiz-adv-x="754" vert-adv-y="1000"  />

      
      <glyph glyph-name="uni6f" unicode="&#x6f;" d="M32 346L32 347Q32 425 56.50 491Q81 557 127 604Q173 651 239 677.50Q305 704 388 704L389 704Q472 704 538 677.50Q604 651 650 604Q696 557 720.50 491Q745 425 745 347L745 346Q745 267 720.50 201.50Q696 136 650 88.50Q604 41 538 14.50Q472-12 389-12L388-12Q305-12 239 14.50Q173 41 127 88.50Q81 136 56.50 201.50Q32 267 32 346M180 346Q180 298 194.50 257.50Q209 217 236 187.50Q263 158 301.50 142Q340 126 388 126L389 126Q437 126 475.50 142Q514 158 541 187.50Q568 217 582.50 257.50Q597 298 597 346L597 347Q597 395 582.50 435Q568 475 541 504.50Q514 534 475.50 550Q437 566 389 566L388 566Q340 566 301.50 550Q263 534 236 504.50Q209 475 194.50 435Q180 395 180 347L180 346Z"  horiz-adv-x="777" vert-adv-y="1000"  />

      
      <glyph glyph-name="unif3" unicode="&#xf3;" d="M291 750L406 908L573 908L425 750L291 750M389 704Q472 704 538 677.50Q604 651 650 604Q696 557 720.50 491Q745 425 745 347L745 346Q745 267 720.50 201.50Q696 136 650 88.50Q604 41 538 14.50Q472-12 389-12L388-12Q305-12 239 14.50Q173 41 127 88.50Q81 136 56.50 201.50Q32 267 32 346L32 347Q32 425 56.50 491Q81 557 127 604Q173 651 239 677.50Q305 704 388 704L389 704M389 126Q437 126 475.50 142Q514 158 541 187.50Q568 217 582.50 257.50Q597 298 597 346L597 347Q597 395 582.50 435Q568 475 541 504.50Q514 534 475.50 550Q437 566 389 566L388 566Q340 566 301.50 550Q263 534 236 504.50Q209 475 194.50 435Q180 395 180 347L180 346Q180 298 194.50 257.50Q209 217 236 187.50Q263 158 301.50 142Q340 126 388 126L389 126Z"  horiz-adv-x="777" vert-adv-y="1000"  />

      
      <glyph glyph-name="unif4" unicode="&#xf4;" d="M455 908L590 750L447 750L389 823L330 750L187 750L322 908L455 908M389 704Q472 704 538 677.50Q604 651 650 604Q696 557 720.50 491Q745 425 745 347L745 346Q745 267 720.50 201.50Q696 136 650 88.50Q604 41 538 14.50Q472-12 389-12L388-12Q305-12 239 14.50Q173 41 127 88.50Q81 136 56.50 201.50Q32 267 32 346L32 347Q32 425 56.50 491Q81 557 127 604Q173 651 239 677.50Q305 704 388 704L389 704M389 126Q437 126 475.50 142Q514 158 541 187.50Q568 217 582.50 257.50Q597 298 597 346L597 347Q597 395 582.50 435Q568 475 541 504.50Q514 534 475.50 550Q437 566 389 566L388 566Q340 566 301.50 550Q263 534 236 504.50Q209 475 194.50 435Q180 395 180 347L180 346Q180 298 194.50 257.50Q209 217 236 187.50Q263 158 301.50 142Q340 126 388 126L389 126Z"  horiz-adv-x="777" vert-adv-y="1000"  />

      
      <glyph glyph-name="unif6" unicode="&#xf6;" d="M272 755Q230 755 205 780Q180 805 180 840Q180 875 205 899.50Q230 924 272 924Q312 924 337 899.50Q362 875 362 840Q362 805 337 780Q312 755 272 755M508 755Q467 755 441.50 780Q416 805 416 840Q416 875 441.50 899.50Q467 924 508 924Q548 924 573 899.50Q598 875 598 840Q598 805 573 780Q548 755 508 755M389 704Q472 704 538 677.50Q604 651 650 604Q696 557 720.50 491Q745 425 745 347L745 346Q745 267 720.50 201.50Q696 136 650 88.50Q604 41 538 14.50Q472-12 389-12L388-12Q305-12 239 14.50Q173 41 127 88.50Q81 136 56.50 201.50Q32 267 32 346L32 347Q32 425 56.50 491Q81 557 127 604Q173 651 239 677.50Q305 704 388 704L389 704M389 126Q437 126 475.50 142Q514 158 541 187.50Q568 217 582.50 257.50Q597 298 597 346L597 347Q597 395 582.50 435Q568 475 541 504.50Q514 534 475.50 550Q437 566 389 566L388 566Q340 566 301.50 550Q263 534 236 504.50Q209 475 194.50 435Q180 395 180 347L180 346Q180 298 194.50 257.50Q209 217 236 187.50Q263 158 301.50 142Q340 126 388 126L389 126Z"  horiz-adv-x="777" vert-adv-y="1000"  />

      
      <glyph glyph-name="unif2" unicode="&#xf2;" d="M344 750L196 908L363 908L477 750L344 750M389 704Q472 704 538 677.50Q604 651 650 604Q696 557 720.50 491Q745 425 745 347L745 346Q745 267 720.50 201.50Q696 136 650 88.50Q604 41 538 14.50Q472-12 389-12L388-12Q305-12 239 14.50Q173 41 127 88.50Q81 136 56.50 201.50Q32 267 32 346L32 347Q32 425 56.50 491Q81 557 127 604Q173 651 239 677.50Q305 704 388 704L389 704M389 126Q437 126 475.50 142Q514 158 541 187.50Q568 217 582.50 257.50Q597 298 597 346L597 347Q597 395 582.50 435Q568 475 541 504.50Q514 534 475.50 550Q437 566 389 566L388 566Q340 566 301.50 550Q263 534 236 504.50Q209 475 194.50 435Q180 395 180 347L180 346Q180 298 194.50 257.50Q209 217 236 187.50Q263 158 301.50 142Q340 126 388 126L389 126Z"  horiz-adv-x="777" vert-adv-y="1000"  />

      
      <glyph glyph-name="uni0151" unicode="&#x0151;" d="M209 750L294 908L440 908L331 750L209 750M429 750L514 908L660 908L551 750L429 750M389 704Q472 704 538 677.50Q604 651 650 604Q696 557 720.50 491Q745 425 745 347L745 346Q745 267 720.50 201.50Q696 136 650 88.50Q604 41 538 14.50Q472-12 389-12L388-12Q305-12 239 14.50Q173 41 127 88.50Q81 136 56.50 201.50Q32 267 32 346L32 347Q32 425 56.50 491Q81 557 127 604Q173 651 239 677.50Q305 704 388 704L389 704M389 126Q437 126 475.50 142Q514 158 541 187.50Q568 217 582.50 257.50Q597 298 597 346L597 347Q597 395 582.50 435Q568 475 541 504.50Q514 534 475.50 550Q437 566 389 566L388 566Q340 566 301.50 550Q263 534 236 504.50Q209 475 194.50 435Q180 395 180 347L180 346Q180 298 194.50 257.50Q209 217 236 187.50Q263 158 301.50 142Q340 126 388 126L389 126Z"  horiz-adv-x="777" vert-adv-y="1000"  />

      
      <glyph glyph-name="uni014D" unicode="&#x014D;" d="M221 776L221 884L556 884L556 776L221 776M389 704Q472 704 538 677.50Q604 651 650 604Q696 557 720.50 491Q745 425 745 347L745 346Q745 267 720.50 201.50Q696 136 650 88.50Q604 41 538 14.50Q472-12 389-12L388-12Q305-12 239 14.50Q173 41 127 88.50Q81 136 56.50 201.50Q32 267 32 346L32 347Q32 425 56.50 491Q81 557 127 604Q173 651 239 677.50Q305 704 388 704L389 704M389 126Q437 126 475.50 142Q514 158 541 187.50Q568 217 582.50 257.50Q597 298 597 346L597 347Q597 395 582.50 435Q568 475 541 504.50Q514 534 475.50 550Q437 566 389 566L388 566Q340 566 301.50 550Q263 534 236 504.50Q209 475 194.50 435Q180 395 180 347L180 346Q180 298 194.50 257.50Q209 217 236 187.50Q263 158 301.50 142Q340 126 388 126L389 126Z"  horiz-adv-x="777" vert-adv-y="1000"  />

      
      <glyph glyph-name="uni01EB" unicode="&#x01EB;" d="M389 704Q472 704 538 677.50Q604 651 650 604Q696 557 720.50 491Q745 425 745 347L745 346Q745 282 729 227Q713 172 682.50 127.50Q652 83 607.50 51.50Q563 20 507 4Q468-12 453-30Q438-48 438-63Q438-82 451-88.50Q464-95 481-95Q496-95 506.50-93Q517-91 530-88L530-189Q510-194 491-196.50Q472-199 444-199Q417-199 391.50-194Q366-189 346.50-177.50Q327-166 315-147.50Q303-129 303-102Q303-74 318-51Q333-28 360-11Q284-7 223 21.50Q162 50 119.50 97Q77 144 54.50 207.50Q32 271 32 346L32 347Q32 425 56.50 491Q81 557 127 604Q173 651 239 677.50Q305 704 388 704L389 704M597 347Q597 395 582.50 435Q568 475 541 504.50Q514 534 475.50 550Q437 566 389 566L388 566Q340 566 301.50 550Q263 534 236 504.50Q209 475 194.50 435Q180 395 180 347L180 346Q180 298 194.50 257.50Q209 217 236 187.50Q263 158 301.50 142Q340 126 388 126L389 126Q437 126 475.50 142Q514 158 541 187.50Q568 217 582.50 257.50Q597 298 597 346L597 347Z"  horiz-adv-x="777" vert-adv-y="1000"  />

      
      <glyph glyph-name="unif8" unicode="&#xf8;" d="M651 602Q697 554 721 489.50Q745 425 745 347L745 346Q745 267 720.50 201.50Q696 136 650 88.50Q604 41 538 14.50Q472-12 389-12L388-12Q293-12 218 23L152-64L62 2L127 88Q81 136 56.50 201.50Q32 267 32 346L32 347Q32 425 56.50 491Q81 557 127 604Q173 651 239 677.50Q305 704 388 704L389 704Q438 704 480.50 694.50Q523 685 560 668L625 754L714 685L651 602M597 347Q597 395 582.50 435Q568 475 541 504.50Q514 534 475.50 550Q437 566 389 566L388 566Q340 566 301.50 550Q263 534 236 504.50Q209 475 194.50 435Q180 395 180 347L180 346Q180 298 194.50 257.50Q209 217 236 187.50Q263 158 301.50 142Q340 126 388 126L389 126Q437 126 475.50 142Q514 158 541 187.50Q568 217 582.50 257.50Q597 298 597 346L597 347Z"  horiz-adv-x="777" vert-adv-y="1000"  />

      
      <glyph glyph-name="uni01FF" unicode="&#x01FF;" d="M573 908L425 750L291 750L406 908L573 908M651 602Q697 554 721 489.50Q745 425 745 347L745 346Q745 267 720.50 201.50Q696 136 650 88.50Q604 41 538 14.50Q472-12 389-12L388-12Q293-12 218 23L152-64L62 2L127 88Q81 136 56.50 201.50Q32 267 32 346L32 347Q32 425 56.50 491Q81 557 127 604Q173 651 239 677.50Q305 704 388 704L389 704Q438 704 480.50 694.50Q523 685 560 668L625 754L714 685L651 602M597 347Q597 395 582.50 435Q568 475 541 504.50Q514 534 475.50 550Q437 566 389 566L388 566Q340 566 301.50 550Q263 534 236 504.50Q209 475 194.50 435Q180 395 180 347L180 346Q180 298 194.50 257.50Q209 217 236 187.50Q263 158 301.50 142Q340 126 388 126L389 126Q437 126 475.50 142Q514 158 541 187.50Q568 217 582.50 257.50Q597 298 597 346L597 347Z"  horiz-adv-x="777" vert-adv-y="1000"  />

      
      <glyph glyph-name="unif5" unicode="&#xf5;" d="M194 751Q194 778 197.50 806Q201 834 213 857Q225 880 248.50 895Q272 910 312 910Q341 910 359.50 902Q378 894 392.50 885Q407 876 420 868Q433 860 450 860Q469 860 475.50 874Q482 888 482 910L588 910Q588 884 584 856Q580 828 568 804.50Q556 781 533.50 766Q511 751 473 751Q441 751 420.50 759Q400 767 385.50 776.50Q371 786 359.50 794Q348 802 334 802Q314 802 307.50 787.50Q301 773 301 751L194 751M389 704Q472 704 538 677.50Q604 651 650 604Q696 557 720.50 491Q745 425 745 347L745 346Q745 267 720.50 201.50Q696 136 650 88.50Q604 41 538 14.50Q472-12 389-12L388-12Q305-12 239 14.50Q173 41 127 88.50Q81 136 56.50 201.50Q32 267 32 346L32 347Q32 425 56.50 491Q81 557 127 604Q173 651 239 677.50Q305 704 388 704L389 704M389 126Q437 126 475.50 142Q514 158 541 187.50Q568 217 582.50 257.50Q597 298 597 346L597 347Q597 395 582.50 435Q568 475 541 504.50Q514 534 475.50 550Q437 566 389 566L388 566Q340 566 301.50 550Q263 534 236 504.50Q209 475 194.50 435Q180 395 180 347L180 346Q180 298 194.50 257.50Q209 217 236 187.50Q263 158 301.50 142Q340 126 388 126L389 126Z"  horiz-adv-x="777" vert-adv-y="1000"  />

      
      <glyph glyph-name="uni0153" unicode="&#x0153;" d="M1100 554L775 554L775 414L1062 414L1062 276L775 276L775 138L1100 138L1100 0L628 0L628 47Q586 18 533 3Q480-12 417-12L416-12Q333-12 267 14.50Q201 41 155 88.50Q109 136 84.50 201.50Q60 267 60 346L60 347Q60 425 84.50 491Q109 557 155 604Q201 651 267 677.50Q333 704 416 704L417 704Q480 704 533 689Q586 674 628 645L628 692L1100 692L1100 554M625 347Q625 395 610.50 435Q596 475 569 504.50Q542 534 503.50 550Q465 566 417 566L416 566Q368 566 329.50 550Q291 534 264 504.50Q237 475 222.50 435Q208 395 208 347L208 346Q208 298 222.50 257.50Q237 217 264 187.50Q291 158 329.50 142Q368 126 416 126L417 126Q465 126 503.50 142Q542 158 569 187.50Q596 217 610.50 257.50Q625 298 625 346L625 347Z"  horiz-adv-x="1147" vert-adv-y="1000"  />

      
      <glyph glyph-name="uni70" unicode="&#x70;" d="M343 692Q486 692 559 627.50Q632 563 632 438L632 437Q632 312 559 248Q486 184 343 184L220 184L220 0L72 0L72 692L343 692M220 324L343 324Q413 324 448.50 350.50Q484 377 484 437L484 438Q484 498 448.50 525.50Q413 553 343 553L220 553L220 324Z"  horiz-adv-x="659" vert-adv-y="1000"  />

      
      <glyph glyph-name="unife" unicode="&#xfe;" d="M220 692L220 596L340 596Q483 596 557.50 531.50Q632 467 632 346L632 345Q632 224 557.50 160Q483 96 340 96L220 96L220 0L72 0L72 692L220 692M340 231Q410 231 447 257.50Q484 284 484 345L484 346Q484 407 447 434Q410 461 340 461L220 461L220 231L340 231Z"  horiz-adv-x="658" vert-adv-y="1000"  />

      
      <glyph glyph-name="uni71" unicode="&#x71;" d="M388 704L389 704Q472 704 538 677.50Q604 651 650 604Q696 557 720.50 491Q745 425 745 347L745 346Q745 257 714 185.50Q683 114 626 66L728-80L600-170L483-2Q461-7 437.50-9.50Q414-12 389-12L388-12Q305-12 239 14.50Q173 41 127 88.50Q81 136 56.50 201.50Q32 267 32 346L32 347Q32 425 56.50 491Q81 557 127 604Q173 651 239 677.50Q305 704 388 704M180 347L180 346Q180 298 194.50 257.50Q209 217 236 187.50Q263 158 301.50 142Q340 126 388 126L389 126Q437 126 475.50 142Q514 158 541 187.50Q568 217 582.50 257.50Q597 298 597 346L597 347Q597 395 582.50 435Q568 475 541 504.50Q514 534 475.50 550Q437 566 389 566L388 566Q340 566 301.50 550Q263 534 236 504.50Q209 475 194.50 435Q180 395 180 347Z"  horiz-adv-x="777" vert-adv-y="1000"  />

      
      <glyph glyph-name="uni72" unicode="&#x72;" d="M484 0L344 224L220 224L220 0L72 0L72 692L356 692Q490 692 561 629.50Q632 567 632 456L632 455Q632 375 595 321.50Q558 268 486 243L649 0L484 0M220 559L220 351L356 351Q416 351 450 374.50Q484 398 484 455L484 456Q484 511 450 535Q416 559 356 559L220 559Z"  horiz-adv-x="675" vert-adv-y="1000"  />

      
      <glyph glyph-name="uni0155" unicode="&#x0155;" d="M521 908L373 750L239 750L354 908L521 908M484 0L344 224L220 224L220 0L72 0L72 692L356 692Q490 692 561 629.50Q632 567 632 456L632 455Q632 375 595 321.50Q558 268 486 243L649 0L484 0M220 559L220 351L356 351Q416 351 450 374.50Q484 398 484 455L484 456Q484 511 450 535Q416 559 356 559L220 559Z"  horiz-adv-x="675" vert-adv-y="1000"  />

      
      <glyph glyph-name="uni0159" unicode="&#x0159;" d="M403 750L271 750L136 908L279 908L337 835L395 908L538 908L403 750M484 0L344 224L220 224L220 0L72 0L72 692L356 692Q490 692 561 629.50Q632 567 632 456L632 455Q632 375 595 321.50Q558 268 486 243L649 0L484 0M220 559L220 351L356 351Q416 351 450 374.50Q484 398 484 455L484 456Q484 511 450 535Q416 559 356 559L220 559Z"  horiz-adv-x="675" vert-adv-y="1000"  />

      
      <glyph glyph-name="uni0157" unicode="&#x0157;" d="M649 0L484 0L344 224L220 224L220 0L72 0L72 692L356 692Q490 692 561 629.50Q632 567 632 456L632 455Q632 375 595 321.50Q558 268 486 243L649 0M220 559L220 351L356 351Q416 351 450 374.50Q484 398 484 455L484 456Q484 511 450 535Q416 559 356 559L220 559M362-34Q404-34 429.50-58Q455-82 455-118Q455-142 438-177L378-305L294-305L326-197Q304-190 286.50-169Q269-148 269-118Q269-82 294.50-58Q320-34 362-34Z"  horiz-adv-x="675" vert-adv-y="1000"  />

      
      <glyph glyph-name="uni73" unicode="&#x73;" d="M503 500Q468 538 427 555.50Q386 573 329 573L328 573Q268 573 233.50 555Q199 537 199 505Q199 482 217.50 465Q236 448 293 436L427 406Q478 395 511.50 373Q545 351 564.50 322.50Q584 294 591.50 260.50Q599 227 599 192Q599 144 578.50 106Q558 68 522 41.50Q486 15 436 1.50Q386-12 326-12L325-12Q214-12 137.50 25.50Q61 63 21 138L142 226Q176 165 222 142Q268 119 328 119L329 119Q388 119 418.50 139.50Q449 160 449 196Q449 255 364 276L210 314Q124 335 87 385Q50 435 50 499Q50 550 70.50 588Q91 626 128.50 652Q166 678 218.50 691Q271 704 334 704L335 704Q417 704 481.50 680Q546 656 589 609L503 500Z"  horiz-adv-x="628" vert-adv-y="1000"  />

      
      </font>
</defs>
</svg>
