<svg width="78" height="78" viewBox="0 0 78 78" fill="none" xmlns="http://www.w3.org/2000/svg">
<g clip-path="url(#clip0_22_98)">
<mask id="mask0_22_98" style="mask-type:luminance" maskUnits="userSpaceOnUse" x="0" y="-1" width="78" height="79">
<path d="M23.5548 -4.27291e-06C22.7871 -4.27291e-06 21.8244 0.0121832 20.5084 0.0365582C18.4246 0.0974957 16.8283 0.219371 15.2807 0.499683C13.392 0.840933 11.6738 1.38937 10.0409 2.21812C8.3715 3.05906 6.8483 4.15593 5.53226 5.46C4.21622 6.76406 3.10733 8.27531 2.25434 9.92062C1.41353 11.5416 0.852992 13.2478 0.511795 15.1247C0.231526 16.6603 0.10967 18.2325 0.0487424 20.28L0.0243712 21.1331C0.0243712 21.4256 0.0243712 21.7303 0.0243712 22.0472V23.8997L0 54.1491V55.4653C0 56.3062 0.0243712 57.0253 0.0365568 57.72C0.0974848 59.7675 0.219341 61.3275 0.499609 62.8631C0.840806 64.74 1.40134 66.4462 2.24215 68.0672C3.09514 69.7125 4.20403 71.2237 5.52007 72.54C6.8483 73.8441 8.3715 74.9409 10.0287 75.7819C11.6616 76.6106 13.3798 77.1591 15.2685 77.5003C16.6821 77.7562 18.12 77.8781 19.9113 77.9391L21.2517 77.9756C21.9463 77.9756 22.982 77.9878 25.0536 78H54.3234C55.1033 78 56.0415 77.9756 57.4673 77.9634C59.551 77.9025 61.1473 77.7806 62.6949 77.5003C64.5837 77.1591 66.3018 76.6106 67.9347 75.7819C69.6041 74.9409 71.1273 73.8441 72.4434 72.54C73.7716 71.2359 74.8805 69.7247 75.7213 68.0672C76.5621 66.4462 77.1226 64.74 77.4638 62.8631C77.7197 61.4616 77.8416 60.0356 77.9147 58.2562V57.7078C77.9391 57.2934 77.9512 56.8669 77.9634 56.4037V52.8206V23.1441V21.5353C77.9512 21.0844 77.9391 20.6578 77.9269 20.2312C77.866 18.1959 77.7441 16.6237 77.4638 15.0881C77.1226 13.2112 76.5621 11.505 75.7213 9.88406C74.8683 8.23875 73.7594 6.7275 72.4434 5.42343C71.1273 4.11937 69.5919 3.0225 67.9347 2.18156C66.3018 1.35281 64.5837 0.804371 62.6949 0.463121C61.2814 0.207183 59.8435 0.0853082 58.0522 0.0243707L56.5046 -0.0121918C56.3827 -0.0121918 56.2487 -0.0121918 56.1025 -0.0121918H23.5304L23.5548 -4.27291e-06Z" fill="white"/>
</mask>
<g mask="url(#mask0_22_98)">
<path fill-rule="evenodd" clip-rule="evenodd" d="M19.3873 0.0365625L22.7261 0H57.4307C57.9547 0.024375 58.2837 0.024375 58.6127 0.0365625C60.3309 0.0853125 62.0734 0.182813 63.7672 0.4875C65.4976 0.792188 67.1061 1.29188 68.6658 2.08406C70.2012 2.86406 71.6147 3.87563 72.8455 5.08219C74.064 6.28875 75.0876 7.69031 75.8797 9.21375C76.684 10.7616 77.1836 12.3581 77.5004 14.0644C77.805 15.7463 77.9025 17.4647 77.9513 19.1588C77.9756 19.9388 77.9878 20.7188 77.9878 21.4987V22.8881V53.6981C77.9878 54.6244 77.9878 55.5506 77.9878 56.4769C77.9878 57.2569 77.9756 58.0369 77.9513 58.8169C77.9025 60.5109 77.805 62.2294 77.5004 63.9112C77.1957 65.6175 76.684 67.2141 75.8797 68.7619C75.0998 70.2853 74.0762 71.6747 72.8455 72.8934C71.6269 74.1 70.2134 75.1116 68.6658 75.8916C67.0939 76.6838 65.4854 77.1834 63.7672 77.4881C62.0612 77.7928 60.3309 77.8903 58.6127 77.9391L53.4338 77.9756L20.5693 77.9512C20.0453 77.9512 19.7163 77.9512 19.3873 77.9269C17.6691 77.8781 15.9266 77.7806 14.2328 77.4759C12.5024 77.1712 10.8939 76.6716 9.33416 75.8794C7.78659 75.0994 6.38524 74.0878 5.1545 72.8812C3.93594 71.6747 2.91235 70.2731 2.12028 68.7497C1.31604 67.2019 0.816426 65.6053 0.4996 63.8991C0.19496 62.2172 0.0974757 60.4987 0.0487333 58.8047C0.0243621 58.0247 0.0121765 57.2447 0.0121765 56.4647V55.0753V24.2653C0.0121765 23.3391 0.0121765 22.4128 0.0121765 21.4866C0.0121765 20.7066 0.0243621 19.9266 0.0487333 19.1466C0.0974757 17.4403 0.19496 15.7341 0.4996 14.0522C0.816426 12.3459 1.31604 10.7616 2.12028 9.20156C2.90016 7.67813 3.93594 6.27656 5.1545 5.07C6.37306 3.86344 7.78659 2.85188 9.33416 2.07188C10.9061 1.27969 12.5146 0.78 14.2328 0.475312C15.9388 0.170625 17.6691 0.073125 19.3873 0.024375V0.0365625Z" fill="black"/>
<path d="M77.9878 0H0V78H77.9878V0Z" fill="#19AA1E"/>
<path fill-rule="evenodd" clip-rule="evenodd" d="M0 0H77.9878V25.5938L0 13.4062V0Z" fill="#FFB919"/>
<path fill-rule="evenodd" clip-rule="evenodd" d="M0 69.4688L77.9878 57.2812V78H0V69.4688Z" fill="#82D714"/>
<path fill-rule="evenodd" clip-rule="evenodd" d="M0 11.8584L27.2226 16.1119C30.6102 13.9669 34.6436 12.7847 38.9939 12.7847C45.0258 12.7847 50.4362 15.0394 54.3721 19.0003C54.8717 19.5 55.3348 20.0241 55.7735 20.5603L77.9756 24.0337V27.1172L58.0278 23.9972C59.5144 26.8369 60.3065 30.0056 60.3065 33.2475C60.3065 37.4278 59.3682 41.5959 57.4429 45.7762L57.382 45.8981L56.5655 47.6531H54.628C50.619 47.6531 47.9625 48.8475 46.2321 50.9803C44.8674 52.65 44.0753 54.8925 43.8194 57.3544V57.4275L43.7707 57.8175V57.9881L43.7219 58.3172C43.6244 59.4141 43.5513 60.3403 43.5148 61.0959L77.9878 55.7091V58.7925L0 71.0166V67.9331L34.5096 62.5341V61.8394L34.4852 61.6444V61.5469V61.3884C34.4487 60.5475 34.3756 59.475 34.2537 58.1709L34.2293 57.9272L34.1928 57.5006C33.9491 55.0387 33.1692 52.7597 31.8044 51.0656C30.0862 48.9328 27.4541 47.7141 23.4816 47.6897H23.3598H21.4223L20.6058 45.9347C18.6318 41.7056 17.6813 37.5009 17.6813 33.2841C17.6813 27.9703 19.8381 22.8394 23.6279 19.0369C23.7375 18.9272 23.8472 18.8175 23.9569 18.7078L0 14.9541V11.8706V11.8584Z" fill="white"/>
<path fill-rule="evenodd" clip-rule="evenodd" d="M38.9939 15.8437C49.8756 15.8437 57.2723 24.2287 57.2723 33.2719C57.2723 36.9037 56.4802 40.6819 54.628 44.6428C43.9169 44.6428 41.2726 52.3209 40.773 57.1472L40.7364 57.4641C40.5658 59.1825 40.4684 60.5719 40.444 61.6078L37.5438 62.0587V61.9612C37.5438 60.8644 37.4342 59.3409 37.2392 57.3666V57.2812C36.7639 52.4672 34.1806 44.6306 23.3598 44.6306C21.5076 40.6697 20.7155 36.8916 20.7155 33.2597C20.7155 24.2166 28.1 15.8316 38.9939 15.8316V15.8437Z" fill="#0073FA"/>
</g>
</g>
<defs>
<clipPath id="clip0_22_98">
<rect width="78" height="78" fill="white"/>
</clipPath>
</defs>
</svg>
