<svg width="84" height="84" viewBox="0 0 84 84" fill="none" xmlns="http://www.w3.org/2000/svg">
<g clip-path="url(#clip0_24_11)">
<path d="M26.3648 37.9258H5.93686C5.94178 38.4271 6.35917 38.604 6.61943 38.8645C10.2041 42.4767 13.8036 46.0742 17.3932 49.6766C18.3311 50.6153 18.4686 51.5883 17.791 52.2911C17.0544 53.0578 16.0821 52.9497 15.0705 51.9422C10.3613 47.2488 5.65696 42.5455 0.957559 37.8423C-0.240617 36.6431 -0.289723 36.1025 0.716942 34.7166C4.82708 29.0402 8.99614 23.4131 13.0228 17.6777C13.9411 16.3705 14.933 15.9871 16.4062 16.0068C20.4476 16.0559 24.4939 16.0068 28.5402 15.992C33.6668 16.0019 38.7885 16.0215 43.9151 16.0264C51.9635 16.0314 60.0119 16.0412 68.0603 16.0117C69.1554 16.0117 69.9067 16.3311 70.5745 17.2649C74.7976 23.1427 79.0944 28.9764 83.3469 34.8345C84.2897 36.132 84.2406 36.6333 83.1259 37.7489C69.9362 50.9544 56.7366 64.1549 43.537 77.3555C42.3241 78.5694 41.6563 78.5546 40.409 77.3113C36.6966 73.6057 32.9891 69.8853 29.2767 66.1797C28.9674 65.8701 28.6236 65.5949 28.2995 65.3049C27.617 64.5874 26.9541 63.8453 26.242 63.1523C25.638 62.5577 25.1863 61.9384 25.5153 61.0489C25.8246 60.2085 26.5219 59.9874 27.3322 59.9726C27.9165 60.1102 28.2799 60.5525 28.6728 60.9457C31.3932 63.6635 34.1038 66.3911 36.8292 69.1039C37.1091 69.384 37.3301 69.8067 37.8997 69.8067C37.8751 69.5855 37.885 69.4234 37.8358 69.2808C34.4328 59.0634 31.02 48.8558 27.6366 38.6335C27.396 37.9111 26.9884 37.8079 26.3697 37.9209L26.3648 37.9258ZM26.6103 30.6866C27.0424 31.3108 27.5188 31.9054 27.8969 32.5591C28.3732 33.3896 28.7022 33.257 29.2031 32.5591C31.2901 29.6251 33.4163 26.7255 35.5279 23.8111C36.5493 22.4006 37.5609 20.9902 38.7001 19.4077H18.3311C21.1891 23.3049 23.8997 26.9958 26.6103 30.6915V30.6866ZM42.0589 70.8142C42.1326 70.6667 42.221 70.5439 42.2652 70.4112C45.786 59.8596 49.2971 49.3031 52.8376 38.7613C53.1519 37.8177 52.651 37.8914 52.047 37.8914C45.3588 37.8963 38.6706 37.916 31.9825 37.8717C30.912 37.8668 30.912 38.2059 31.1919 39.0512C34.6391 49.3276 38.0617 59.6138 41.4942 69.9001C41.6022 70.2244 41.6219 70.6078 42.0589 70.8191V70.8142ZM45.953 69.733C56.4714 59.2256 67.1764 48.5216 77.8127 37.8963C71.0852 37.8963 64.1663 37.9061 57.2473 37.8816C56.4321 37.8816 56.383 38.432 56.2112 38.9382C54.021 45.5041 51.8408 52.07 49.6556 58.6358C48.3837 62.4594 47.1021 66.2829 45.953 69.7379V69.733ZM25.2599 34.4856C21.96 29.9445 18.7976 25.6344 15.6941 21.2752C15.1147 20.4594 14.8937 20.7543 14.4665 21.3391C11.4956 25.4526 8.50509 29.5514 5.52438 33.66C5.3476 33.9057 5.05787 34.117 5.17082 34.4856H25.255H25.2599ZM65.5658 19.4273H45.4767C45.5209 19.6092 45.516 19.7369 45.5798 19.8254C48.7226 24.165 51.88 28.4898 55.0032 32.8441C55.4549 33.4732 55.6366 33.1439 55.9214 32.7508C57.5174 30.549 59.1231 28.3522 60.7191 26.1505C62.3052 23.9635 63.8815 21.7667 65.5658 19.4322V19.4273ZM78.952 34.5053C78.7261 34.1268 78.6131 33.9155 78.4756 33.7238C75.4507 29.5464 72.4013 25.3887 69.4058 21.1917C68.792 20.3316 68.5661 20.9263 68.2519 21.3538C65.4332 25.2314 62.6096 29.1041 59.8204 33.0014C59.4963 33.4535 58.9512 33.8172 58.9611 34.5003H78.947L78.952 34.5053ZM31.8744 34.4905H51.9733C51.8899 34.2644 51.8653 34.1023 51.7818 33.9843C48.6587 29.6841 45.5209 25.3985 42.4125 21.0835C41.9509 20.4446 41.7741 20.8034 41.4942 21.1867C39.9228 23.3541 38.3416 25.5116 36.7703 27.6789C35.1645 29.9003 33.5686 32.1315 31.8744 34.4905Z" fill="#E1B674"/>
<path d="M81.1764 6.62978C81.4171 6.62978 81.6577 6.65436 81.8934 6.62978C82.9148 6.51675 83.7103 6.92957 83.8772 7.92232C84.054 8.96912 83.3813 9.6031 82.3795 9.88815C81.5496 10.124 80.7001 10.1191 79.8997 9.94221C78.9618 9.7358 78.3725 9.09199 78.5149 8.02552C78.6573 6.96889 79.2662 6.49709 80.3367 6.62978C80.6117 6.66418 80.8965 6.6347 81.1764 6.6347V6.62978Z" fill="#E1B674"/>
<path d="M77.3315 13.6969C77.3315 14.095 77.3511 14.498 77.3315 14.8961C77.2774 15.879 76.6096 16.3852 75.765 16.3901C74.9253 16.395 74.2231 15.8987 74.1838 14.9207C74.1445 14.0459 74.1494 13.1612 74.1936 12.2864C74.2378 11.4461 74.7092 10.9644 75.5735 10.9693C76.4525 10.9792 77.1547 11.2986 77.3069 12.2619C77.3806 12.7288 77.3216 13.2202 77.3216 13.6969C77.3266 13.6969 77.3315 13.6969 77.3364 13.6969H77.3315Z" fill="#E1B674"/>
<path d="M74.1592 2.75216C74.1592 2.31476 74.1298 1.86754 74.1642 1.43505C74.2378 0.560259 74.7485 -0.0245762 75.6079 0.00491129C76.4868 0.0343988 77.2529 0.457053 77.3364 1.4842C77.4002 2.24105 77.3806 3.00281 77.3511 3.76457C77.3118 4.80154 76.6489 5.46501 75.7257 5.45518C74.8074 5.44535 74.1985 4.77697 74.1494 3.71542C74.1347 3.39597 74.1494 3.07652 74.1494 2.75708C74.1494 2.75708 74.1592 2.75708 74.1642 2.75708L74.1592 2.75216Z" fill="#E1B674"/>
<path d="M70.167 9.82426C69.6906 9.79968 69.1947 9.84392 68.738 9.73088C67.8836 9.51464 67.4563 8.8266 67.5791 8.02552C67.6871 7.30799 67.9572 6.53149 69.0179 6.61995C69.7692 6.68384 70.5303 6.61995 71.2915 6.6347C72.2638 6.64944 72.8923 7.10649 72.9856 8.10907C73.074 9.0281 72.3964 9.71614 71.3602 9.79477C70.9625 9.82426 70.5647 9.79968 70.1621 9.79968C70.1621 9.80951 70.1621 9.81934 70.1621 9.82917L70.167 9.82426Z" fill="#E1B674"/>
<path d="M12.1733 70.421C12.1733 70.6618 12.1831 70.9027 12.1733 71.1386C12.1193 72.3279 11.5742 72.9668 10.5872 73.011C9.5805 73.0552 8.92248 72.3721 8.85374 71.1582C8.81936 70.5636 8.81445 69.9591 8.85374 69.3644C8.9274 68.2684 9.6296 67.4969 10.5626 67.5804C11.5889 67.6689 12.0898 68.3471 12.1635 69.3447C12.188 69.7035 12.1635 70.0623 12.1684 70.421H12.1733Z" fill="#E1B674"/>
<path d="M12.1635 81.3117C12.1733 83.1056 11.6184 84.0049 10.5086 84.0049C9.39881 84.0049 8.839 83.1056 8.84883 81.3068C8.84883 80.8301 8.82427 80.3386 8.93231 79.8816C9.13855 79.0068 9.69835 78.476 10.6461 78.5546C11.5742 78.6333 12.0702 79.2034 12.1585 80.1126C12.1978 80.5057 12.1635 80.9087 12.1635 81.3068V81.3117Z" fill="#E1B674"/>
<path d="M16.0477 74.1757C16.1263 74.1757 16.2097 74.1757 16.2883 74.1757C17.9334 74.1807 18.6356 74.6279 18.6798 75.7091C18.7289 76.8542 17.8695 77.4833 16.195 77.4783C15.6401 77.4783 15.0754 77.4341 14.5303 77.326C13.6513 77.154 13.2045 76.4905 13.2683 75.6747C13.3371 74.8097 13.8772 74.2052 14.8495 74.1807C15.2473 74.1708 15.6499 74.1807 16.0526 74.1807C16.0526 74.1807 16.0526 74.1758 16.0526 74.1708L16.0477 74.1757Z" fill="#E1B674"/>
<path d="M5.06769 74.1758C5.26903 74.1758 5.46545 74.1758 5.66678 74.1758C7.00737 74.1954 7.79305 74.7802 7.79797 75.7681C7.79797 76.6724 7.0221 77.3751 5.8141 77.4636C5.14135 77.5128 4.45388 77.4882 3.78604 77.3899C2.81375 77.2474 2.2785 76.6036 2.36198 75.6305C2.44055 74.7114 3.06419 74.2298 3.98737 74.1856C4.34584 74.1659 4.70922 74.1856 5.06769 74.1856C5.06769 74.1856 5.06769 74.1856 5.06769 74.1807V74.1758Z" fill="#E1B674"/>
</g>
<defs>
<clipPath id="clip0_24_11">
<rect width="84" height="84" fill="white"/>
</clipPath>
</defs>
</svg>
