<svg width="87" height="87" viewBox="0 0 87 87" fill="none" xmlns="http://www.w3.org/2000/svg">
<path d="M71.1538 86.946H7.11566C7.16318 86.7904 7.30248 86.7118 7.40736 86.607C17.9034 76.1066 28.4011 65.6078 38.8988 55.1107C38.9823 55.0272 39.079 54.9568 39.1708 54.8814C39.2658 54.9862 39.356 55.0943 39.4559 55.1926C49.9094 65.6488 60.3628 76.1033 70.8162 86.5611C70.9359 86.6823 71.0883 86.7773 71.1555 86.946H71.1538Z" fill="#3E7BF0"/>
<path d="M39.1692 54.8798C39.079 54.9568 38.9807 55.0255 38.8971 55.1091C28.3994 65.6062 17.9018 76.1049 7.40571 86.6053C7.30083 86.7101 7.16318 86.7887 7.11402 86.9443H5.74404C5.70143 86.8804 5.63261 86.8886 5.57034 86.8788C4.24461 86.6888 3.08439 86.1353 2.10934 85.2248C0.557471 83.7739 -0.117685 81.9643 0.0166907 79.8485C0.128124 79.7454 0.242835 79.6471 0.349352 79.539C15.8009 64.0881 31.2525 48.6356 46.704 33.1847C46.7876 33.1011 46.8761 33.0209 46.9629 32.939C46.9892 32.9718 47.0203 33.0029 47.0432 33.0389C48.11 34.7109 49.2719 36.3158 50.4698 37.8944C51.281 38.9638 52.084 40.0381 52.8918 41.1107C50.7582 43.2462 48.6262 45.3816 46.4943 47.5187C46.4025 47.6104 46.3189 47.7103 46.2321 47.8053C46.1747 47.8544 46.1124 47.8986 46.0584 47.951C43.8149 50.1929 41.5715 52.4365 39.3297 54.68C39.2691 54.7406 39.2216 54.8127 39.1675 54.8798H39.1692Z" fill="#FDD63D"/>
<path d="M78.261 79.8338C78.2855 80.7115 78.2773 81.5844 77.9791 82.4294C77.1597 84.7515 75.5603 86.209 73.1793 86.8215C73.0056 86.8657 72.8122 86.8362 72.6549 86.946H71.1554C71.0883 86.7773 70.9359 86.6807 70.8162 86.5611C60.3644 76.1033 49.9094 65.6488 39.4559 55.1926C39.356 55.0927 39.2658 54.9846 39.1708 54.8814C39.2249 54.8143 39.2724 54.7422 39.333 54.6816C41.5748 52.4381 43.8182 50.1946 46.0616 47.9527C46.1141 47.9003 46.1763 47.8544 46.2353 47.8069C46.3205 47.9052 46.4008 48.0067 46.491 48.0984C52.1855 53.7957 57.8818 59.4913 63.5763 65.187C63.6599 65.2705 63.7517 65.3491 63.8385 65.4293C63.9074 65.7667 63.9598 66.1106 64.0499 66.4414C64.2597 67.2012 64.7775 67.5058 65.5477 67.3486C65.6116 67.3355 65.6755 67.329 65.7395 67.3191C65.8099 67.401 65.8755 67.4862 65.9525 67.5631C69.9723 71.5851 73.9937 75.6071 78.0152 79.6274C78.0905 79.7028 78.1774 79.7683 78.2593 79.8371L78.261 79.8338Z" fill="#EEEEEE"/>
<path d="M86.9462 21.0073C86.9642 21.0041 86.9823 21.0057 87.0003 21.0106V22.5107C86.9806 22.5107 86.9626 22.5123 86.9429 22.5139C86.9429 22.0112 86.9446 21.5101 86.9462 21.0073Z" fill="#F4D0CE"/>
<path d="M0.0166988 79.8485C0.0134214 79.729 0.00686646 79.6094 0.00686646 79.4899C0.00686646 58.1206 0.00686646 36.753 0.00686646 15.3838C0.00686646 12.4967 1.57841 10.145 4.20037 9.11334C4.89191 8.84149 5.61623 8.68919 6.36021 8.68756C20.119 8.68428 33.8793 8.68428 47.6381 8.68428C47.6922 8.68428 47.7463 8.68919 47.8003 8.69083C47.7479 8.77271 47.6987 8.85623 47.6414 8.93484C45.1571 12.3624 43.7871 16.1944 43.5183 20.4145C43.3053 23.752 43.9346 26.9339 45.3635 29.9586C45.8453 30.9804 46.4123 31.9548 46.9646 32.9374C46.8777 33.0193 46.7892 33.0995 46.7057 33.183C31.2541 48.6372 15.8026 64.0881 0.350999 79.539C0.244482 79.6455 0.128132 79.7454 0.0183375 79.8485H0.0166988ZM24.1175 22.9004C24.1175 22.9004 24.1175 22.8939 24.1175 22.8906C22.3345 22.8906 20.5532 22.8955 18.7703 22.8857C18.5359 22.8857 18.4557 22.9299 18.4573 23.1854C18.472 24.5118 18.472 25.8367 18.4573 27.1631C18.454 27.4186 18.5392 27.4628 18.7719 27.4628C20.7286 27.4546 22.6836 27.4628 24.6402 27.453C24.9253 27.453 24.9581 27.5152 24.8647 27.7789C23.9569 30.3811 21.7823 31.9974 18.9112 32.1857C14.249 32.4903 10.5078 28.2718 11.3682 23.6816C12.3694 18.338 18.667 15.9749 22.9359 19.3468C23.1146 19.4876 23.1998 19.4794 23.3522 19.3239C24.3207 18.3413 25.2924 17.3604 26.2806 16.3975C26.4969 16.1878 26.4707 16.0994 26.256 15.9144C22.4836 12.6915 17.1643 12.1216 12.766 14.4798C8.24802 16.9018 5.73422 22.0914 6.7109 27.1173C7.54992 31.4308 10.0539 34.4342 14.1048 36.1144C16.5318 37.1215 19.0538 37.1559 21.5938 36.6237C23.793 36.1618 25.7103 35.1563 27.1589 33.4156C29.6449 30.4286 30.3086 26.947 29.7924 23.1755C29.7645 22.9708 29.6842 22.8972 29.463 22.8988C27.68 22.9086 25.8987 22.9053 24.1158 22.9053L24.1175 22.9004Z" fill="#1C9857"/>
<path d="M46.9646 32.939C46.4107 31.9564 45.8453 30.9821 45.3635 29.9602C43.9346 26.9355 43.3053 23.7536 43.5183 20.4162C43.7887 16.196 45.1587 12.3656 47.6414 8.93647C47.6987 8.85787 47.7479 8.77435 47.8003 8.69247C48.8098 7.40858 49.9028 6.20657 51.1532 5.1503C54.3077 2.49081 57.9228 0.84501 62.0015 0.222716C62.8062 0.0998946 63.6173 0.0262019 64.4334 0C64.9578 0 65.4806 0 66.0049 0C71.9175 0.27512 76.9467 2.53012 81.0255 6.81576C84.2161 10.1696 86.1105 14.1768 86.7512 18.7687C86.8545 19.5122 86.9151 20.2573 86.9462 21.0057C86.9462 21.5085 86.9446 22.0096 86.943 22.5123C86.7971 26.2084 85.5255 29.536 83.6196 32.6557C82.0727 35.1891 80.2438 37.5194 78.4544 39.8792C78.3823 39.9742 78.32 40.0741 78.2528 40.1724C78.1889 40.2461 78.1233 40.3165 78.0643 40.3934C76.9582 41.8444 75.8766 43.3117 74.8393 44.8134C72.0371 48.8747 69.7757 53.2078 68.291 57.9274C67.4798 60.5083 66.9144 63.1448 66.5211 65.8207C66.4359 66.4037 66.3278 66.9883 65.7395 67.3142C65.6756 67.324 65.6117 67.3306 65.5477 67.3437C64.7775 67.5009 64.2581 67.1947 64.0499 66.4364C63.9582 66.104 63.9074 65.7618 63.8386 65.4244C63.7779 65.0281 63.7222 64.6318 63.6567 64.2371C63.1913 61.4286 62.4669 58.6872 61.4935 56.0114C59.9482 51.7601 57.754 47.8561 55.15 44.1714C54.4175 43.1348 53.6916 42.0949 52.8935 41.1074C52.0856 40.0348 51.2826 38.9605 50.4715 37.8912C49.2735 36.3125 48.1117 34.7076 47.0449 33.0356C47.0219 32.9996 46.9908 32.9685 46.9646 32.9357V32.939ZM57.595 21.741C57.6786 25.9791 60.9528 29.3313 65.2102 29.3346C69.4659 29.3395 72.8384 26.0021 72.8253 21.6951C72.8139 17.4979 69.5151 14.1179 65.2118 14.1212C60.9331 14.1261 57.6671 17.4881 57.595 21.741Z" fill="#D63F35"/>
<path d="M52.8951 41.1091C53.6931 42.0966 54.4207 43.1364 55.1516 44.1731C57.7539 47.8577 59.9482 51.7618 61.4951 56.013C62.4685 58.6889 63.1928 61.4303 63.6582 64.2388C63.7238 64.6334 63.7795 65.0297 63.8401 65.426C63.7533 65.3458 63.6615 65.2688 63.5779 65.1837C57.8817 59.488 52.1872 53.7924 46.4926 48.0951C46.4008 48.0034 46.3222 47.9003 46.2369 47.8036C46.3238 47.707 46.4074 47.6088 46.4991 47.5171C48.6311 45.38 50.7647 43.2445 52.8967 41.1091H52.8951Z" fill="#CACBC8"/>
<path d="M65.7395 67.3158C66.3278 66.99 66.4343 66.4053 66.5212 65.8223C66.9145 63.1465 67.4798 60.5099 68.291 57.929C69.774 53.2078 72.0355 48.8763 74.8394 44.815C75.875 43.3133 76.9582 41.846 78.0644 40.3951C78.1234 40.3181 78.1905 40.2477 78.2528 40.174C78.2561 40.2493 78.2626 40.3263 78.2626 40.4016C78.2626 53.5468 78.2626 66.6903 78.2626 79.8354C78.1807 79.765 78.0939 79.7011 78.0185 79.6258C73.997 75.6055 69.9756 71.5835 65.9558 67.5615C65.8804 67.4862 65.8132 67.3994 65.7428 67.3175L65.7395 67.3158Z" fill="#CACBC8"/>
<path d="M24.1174 22.9004C25.9004 22.9004 27.6817 22.9053 29.4646 22.8939C29.6858 22.8939 29.7661 22.9643 29.794 23.1706C30.3102 26.9437 29.6481 30.4236 27.1606 33.4106C25.7119 35.1514 23.7946 36.1569 21.5954 36.6187C19.0571 37.151 16.5334 37.1166 14.1065 36.1094C10.0555 34.4292 7.55155 31.4259 6.71253 27.1124C5.73584 22.0865 8.24965 16.8969 12.7676 14.4749C17.166 12.1167 22.4853 12.6866 26.2576 15.9094C26.4723 16.0929 26.4985 16.1813 26.2822 16.3925C25.294 17.3555 24.3223 18.3364 23.3538 19.319C23.2014 19.4745 23.1162 19.4827 22.9376 19.3419C18.667 15.97 12.371 18.3331 11.3698 23.6767C10.5095 28.2685 14.2507 32.487 18.9128 32.1808C21.7839 31.9925 23.9568 30.3778 24.8663 27.774C24.9581 27.5103 24.927 27.4481 24.6418 27.4481C22.6852 27.4579 20.7302 27.4481 18.7736 27.4579C18.5409 27.4579 18.4573 27.4153 18.4589 27.1582C18.4737 25.8318 18.4737 24.5069 18.4589 23.1805C18.4556 22.925 18.5376 22.8808 18.7719 22.8808C20.5548 22.8906 22.3361 22.8857 24.1191 22.8857C24.1191 22.889 24.1191 22.8922 24.1191 22.8955L24.1174 22.9004Z" fill="#FDFEFD"/>
<path d="M57.595 21.741C57.6671 17.4881 60.9331 14.1261 65.2118 14.1212C69.5151 14.1162 72.8138 17.4979 72.8253 21.6951C72.8368 26.0021 69.4643 29.3395 65.2101 29.3346C60.9544 29.3297 57.6785 25.9791 57.595 21.741Z" fill="#752622"/>
</svg>
