<svg width="201" height="182" viewBox="0 0 201 182" fill="none" xmlns="http://www.w3.org/2000/svg">
<g clip-path="url(#clip0_24_10)">
<path d="M201 134.142C199.31 140.273 195.084 143.736 189.385 146.204C165.522 156.546 141.804 167.223 117.941 177.565C101.813 184.554 86.0862 183.153 70.9923 174.267C64.5695 170.485 58.2057 166.609 51.8223 162.764C48.1707 160.564 44.1417 159.545 39.987 158.868C39.0122 158.71 38.5994 159.076 38.1435 159.844C35.6357 164.066 32.0077 166.219 26.9842 166.14C19.6653 166.026 12.3424 166.121 5.02344 166.109C1.34824 166.101 0.00394292 164.787 0.00394292 161.182C-0.00391847 138.211 -0.00391847 115.244 0.00394292 92.2731C0.00394292 88.6604 1.37576 87.2791 4.97234 87.2752C12.4249 87.2634 19.8736 87.2909 27.3262 87.2673C32.161 87.2516 35.7458 89.4121 38.0884 93.5482C38.7763 94.7642 39.5192 95.1578 40.8478 95.1499C49.346 95.1027 57.8402 95.1696 66.3383 95.1105C71.0945 95.079 75.544 96.1692 79.6791 98.4595C86.3141 102.131 92.9177 105.854 99.5095 109.601C101.035 110.466 102.583 110.876 104.352 110.864C112.131 110.805 119.91 110.817 127.685 110.844C137 110.876 143.777 117.593 143.816 126.912C143.824 128.711 144.288 129.034 145.958 128.451C157.432 124.445 168.918 120.478 180.423 116.558C186.114 114.618 191.389 115.504 196.079 119.325C198.783 121.529 200.037 124.622 200.996 127.861V134.146L201 134.142ZM108.927 142.548C102.261 142.548 95.5906 142.56 88.9241 142.544C85.8307 142.536 83.9911 140.974 84.0304 138.443C84.0658 135.956 85.9564 134.417 89.0342 134.405C93.5466 134.394 98.0551 134.405 102.568 134.401C110.936 134.401 119.304 134.433 127.673 134.386C132.075 134.358 135.322 131.324 135.684 127.07C136.006 123.264 132.999 119.825 128.746 119.199C127.716 119.05 126.667 118.994 125.625 118.99C118.043 118.971 110.456 118.947 102.874 118.998C100.441 119.014 98.232 118.388 96.1409 117.208C89.5923 113.512 83.0477 109.817 76.4992 106.122C73.9049 104.658 71.1652 103.705 68.1583 103.524C59.1452 102.977 50.1203 103.438 41.1072 103.257C39.5349 103.225 39.5035 104.134 39.5035 105.284C39.5192 119.683 39.5349 134.083 39.4838 148.482C39.4799 149.993 39.987 150.466 41.4413 150.694C47.2352 151.603 52.6988 153.445 57.7301 156.585C63.8306 160.395 69.986 164.122 76.228 167.695C88.8259 174.901 101.856 175.609 115.162 169.781C132.225 162.311 149.264 154.779 166.312 147.266C173.67 144.023 181.032 140.793 188.363 137.495C191.688 135.995 193.371 133.052 192.848 130.01C191.995 125.063 187.903 122.772 182.789 124.524C167.888 129.62 153.006 134.779 138.113 139.895C134.552 141.119 131.163 142.768 127.178 142.615C121.105 142.382 115.02 142.556 108.939 142.552L108.927 142.548ZM8.12476 126.546C8.12476 136.353 8.15227 146.164 8.09724 155.971C8.08938 157.514 8.57679 158.018 10.1176 157.998C15.3415 157.923 20.5654 157.971 25.7932 157.971C30.1209 157.971 31.3827 156.711 31.3866 152.37C31.3905 135.24 31.3905 118.109 31.3866 100.974C31.3866 96.7791 30.0698 95.4411 25.8915 95.4214C20.7305 95.3978 15.5695 95.4844 10.4124 95.3781C8.6043 95.3388 8.06973 95.9015 8.08545 97.7118C8.168 107.322 8.12476 116.936 8.12476 126.546Z" fill="#E1B673"/>
<path d="M91.0349 0.0432795C101.66 0.0944396 109.324 5.34031 115.114 13.8565C116.486 15.8754 116.482 15.8911 117.811 13.9155C122.41 7.09156 128.365 2.09362 136.627 0.523397C150.829 -2.17235 164.303 5.66695 169.334 19.4605C173.434 30.7039 171.87 41.3255 165.573 51.3529C161.072 58.5192 155.129 64.4223 148.977 70.1129C139.662 78.7275 129.886 86.8226 120.275 95.1026C117.992 97.0703 116.117 97.2081 113.955 95.323C102.167 85.0674 89.7771 75.5044 78.5825 64.5601C75.7248 61.7699 72.993 58.8656 70.5717 55.6818C68.9247 53.5174 69.1134 51.0814 70.9687 49.5584C72.7296 48.1101 75.2217 48.3581 76.8687 50.3927C85.1153 60.5971 95.3901 68.6332 105.264 77.0943C108.739 80.0734 112.261 83.0013 115.739 85.9725C116.518 86.6376 117.123 86.9446 118.074 86.1103C128.935 76.5788 140.275 67.5864 150.365 57.2009C154.48 52.9664 158.21 48.4132 160.73 42.9981C165.435 32.8841 163.474 21.0032 155.927 13.7857C147.743 5.96211 134.874 6.57209 127.402 15.0647C124.458 18.4097 122.343 22.1956 120.802 26.3435C119.733 29.2203 118.448 30.4284 116.384 30.3143C113.778 30.1687 112.827 28.3348 112.099 26.1349C110.162 20.2673 106.907 15.2575 101.754 11.7314C91.935 5.01368 78.6925 8.49256 72.8712 19.2401C72.0575 20.7395 71.4247 22.3097 70.8508 23.9193C69.9349 26.4852 67.7848 27.6304 65.4893 26.8708C63.3117 26.1507 62.329 23.9626 63.0248 21.4124C66.4838 8.7641 77.871 0.0826334 91.0349 0.0432795Z" fill="#E1B673"/>
<path d="M66.5113 42.762C64.1489 42.7974 62.4037 41.0934 62.3919 38.7479C62.3801 36.4142 64.1371 34.6472 66.4602 34.659C68.7046 34.6708 70.4223 36.3551 70.4813 38.5944C70.5402 40.9556 68.854 42.7265 66.5113 42.758V42.762Z" fill="#E1B673"/>
<path d="M19.4609 111.1C17.1575 110.97 15.5538 109.093 15.7189 106.724C15.8721 104.52 17.7078 102.91 19.9522 103.009C22.2517 103.107 23.9104 104.965 23.7964 107.314C23.6824 109.62 21.835 111.238 19.4609 111.104V111.1Z" fill="#E1B673"/>
</g>
<defs>
<clipPath id="clip0_24_10">
<rect width="201" height="182" fill="white"/>
</clipPath>
</defs>
</svg>
