<svg width="298" height="94" viewBox="0 0 298 94" fill="none" xmlns="http://www.w3.org/2000/svg">
<g clip-path="url(#clip0_4_6)">
<mask id="mask0_4_6" style="mask-type:luminance" maskUnits="userSpaceOnUse" x="0" y="0" width="298" height="94">
<path d="M297.981 0H0V94H297.981V0Z" fill="white"/>
</mask>
<g mask="url(#mask0_4_6)">
<path fill-rule="evenodd" clip-rule="evenodd" d="M225.314 35.6636L225.033 35.5696L222.708 35.3816L222.164 35.7576L220.664 38.2768C219.37 40.702 217.944 41.83 214.419 41.83H203.317C202.567 41.83 202.005 41.266 202.005 40.608V25.3988C202.005 24.6468 202.548 24.1956 203.317 24.1956H210.031C214.325 24.1956 215.15 25.4928 216.369 27.6548L216.819 28.5008L217.476 28.8768L219.895 28.6888L220.082 28.5948V28.3128L217.926 19.8152L217.476 19.5332H203.299C202.548 19.5332 201.986 18.9692 201.986 18.236V6.16641C201.986 5.50841 202.53 4.96321 203.299 4.96321H212.431C215.413 4.96321 217.476 5.50841 218.77 8.51641L220.176 11.1296L220.832 11.5056L223.158 11.3176L223.345 11.2236L223.439 10.9416L220.832 0.676812L220.382 0.300812H187.64L186.984 0.676812L186.046 2.74481V3.02681L186.327 3.12081C188.84 3.12081 190.903 4.06081 190.903 7.31321V45.496C190.903 46.248 191.559 46.5112 192.122 46.5112H222.239L222.689 46.2292L225.314 35.8704V35.6824V35.6636Z" fill="#FDF8F5"/>
<path fill-rule="evenodd" clip-rule="evenodd" d="M92.226 29.4972H78.7053L84.8562 15.3032C85.0437 14.852 85.4188 14.7392 85.6063 14.7392C85.7938 14.7392 86.1689 14.7392 86.4502 15.3032L92.226 29.4972ZM114.617 43.8792L114.429 43.7664C111.916 43.7664 109.854 42.3564 108.841 40.044L92.6011 0.658013L91.9447 0.282013H79.8117L79.1554 0.658013L78.2177 2.72601L78.3115 2.91401L78.499 3.00801C81.6682 3.00801 83.6185 4.68121 81.9495 7.95241L65.1658 46.2292V46.4172L65.4471 46.5112H76.83L77.4864 46.1352L78.3302 44.18V43.898L78.049 43.7852C74.1296 43.7852 73.117 42.1872 74.5984 39.2168L76.755 34.0844H94.1013L99.0333 46.1164L99.6896 46.4924H113.117L113.773 46.1164L114.617 44.1612V43.8792Z" fill="#FDF8F5"/>
<path fill-rule="evenodd" clip-rule="evenodd" d="M50.3512 43.8792L50.1636 43.7664C47.0882 43.7664 45.7755 42.9204 44.8378 40.608L28.3354 0.658013L27.7728 0.282013H15.2835L14.6272 0.658013L13.6895 2.72601V2.91401L13.9708 3.00801H14.2521C16.5774 3.00801 18.8278 4.96321 17.3276 8.61041L1.29395 45.2704C1.29395 45.2704 0.825128 46.4924 2.13782 46.4924H12.8644L13.5207 46.1164L14.4584 44.1612L14.3646 43.8792L14.1771 43.7664H13.8958C9.32012 43.7664 9.32013 41.5292 10.4453 38.916L20.5905 15.2844C20.8718 14.8332 21.1531 14.7204 21.4344 14.7204C21.5282 14.7204 21.997 14.7204 22.1845 15.2844L34.8801 46.0788L35.4427 46.4548H48.8697L49.526 46.0788L50.4637 44.1236L50.3699 43.8416V43.8792H50.3512Z" fill="#FDF8F5"/>
<path fill-rule="evenodd" clip-rule="evenodd" d="M146.14 4.1924H147.078C154.166 4.2864 157.711 7.4636 157.711 13.4232C157.711 21.8268 150.716 23.7068 147.734 24.158C146.89 24.252 146.234 24.252 146.14 24.252C145.203 24.252 144.471 23.6128 144.471 22.8608V5.6964C144.471 4.9444 145.221 4.1924 146.14 4.1924ZM146.14 28.7452H146.984C157.054 28.294 169.094 24.0828 169.094 13.63C169.094 4.5684 161.255 0 148.391 0H147.378C146.722 0 146.065 0.094 145.409 0.094C142.708 0.188 139.633 0.282 136.445 0.282H130.107L129.45 0.658L128.606 2.726V3.008L128.794 3.102C131.326 3.102 133.463 4.042 133.463 7.2944V45.4772C133.463 46.2292 134.12 46.4924 134.57 46.4924H147.828L148.466 46.1164L149.309 44.0484V43.8604L149.122 43.7476C146.515 43.7476 144.452 42.8076 144.452 39.5552V30.2116C144.452 29.3656 145.203 28.7076 146.121 28.7076H146.14V28.7452Z" fill="#FDF8F5"/>
<path fill-rule="evenodd" clip-rule="evenodd" d="M297.888 42.112L297.681 41.924H292.843C292.205 41.924 290.78 41.83 290.78 39.8748V1.41001C290.78 0.564012 290.143 0.300812 289.58 0.300812H276.434L275.778 0.676812L274.84 2.74481L274.953 3.02681L275.14 3.12081C277.653 3.12081 279.716 4.06081 279.716 7.31321V40.8148C279.716 41.6608 279.06 42.3188 278.122 42.3188H261.62C260.682 42.3188 259.951 41.6608 259.951 40.8148V1.41001C259.951 0.564012 259.294 0.300812 258.732 0.300812H245.586L244.948 0.676812L244.011 2.74481V3.02681L244.292 3.12081C246.824 3.12081 248.868 4.06081 248.868 7.31321V45.496C248.868 46.248 249.505 46.5112 250.087 46.5112H287.573C288.774 46.5112 289.805 46.9812 290.555 47.8272C291.212 48.5792 291.493 49.5944 291.099 50.7224L289.88 55.4788L289.974 55.7608L290.161 55.8548H292.88L293.424 55.4788L298 42.3188L297.906 42.1308L297.888 42.112Z" fill="#FDF8F5"/>
<path d="M278.835 72.0228H283.504V84.1488H276.097C277.86 80.8588 278.516 76.4596 278.835 72.0228ZM272.384 94V89.3188H287.198V94H292.355V84.1488H289.449V66.7024H273.321C273.321 72.6808 272.684 78.9788 269.777 84.1488H267.189V94H272.384ZM239.829 74.448C239.829 76.4784 238.216 77.0424 236.416 77.0424H233.153V71.8724H236.416C238.216 71.8724 239.829 72.4176 239.829 74.4668V74.448ZM227.19 66.6836V89.3H233.153V82.1936H236.116C241.685 82.1936 245.942 80.3888 245.942 74.4292C245.942 68.4696 241.685 66.6648 236.116 66.6648H227.19V66.6836ZM192.478 74.3916C192.666 73.8464 192.872 73.2824 193.06 72.098C193.266 73.3012 193.453 73.8464 193.641 74.3916L195.966 80.9152H190.172L192.497 74.3916H192.478ZM187.096 89.3188L188.371 85.7656H197.729L199.004 89.3188H205.136L196.266 66.7024H189.815L180.945 89.3188H187.096ZM147.228 84.1488V79.8812H151.616C153.004 79.8812 154.148 80.276 154.148 82.0056C154.148 83.7352 152.985 84.13 151.616 84.13H147.228V84.1488ZM147.228 74.6924V72.0228H158.386V66.6836H141.264V89.3H151.672C156.248 89.3 160.28 87.6456 160.28 82.0056C160.28 76.3656 156.248 74.7112 151.672 74.7112H147.228V74.6924ZM111.504 66.6836L104.64 77.2868L97.7768 66.6836H92.1323V89.3H98.0956V77.2492L102.934 84.7128H106.347L111.185 77.2868V89.3188H117.148V66.7024H111.504V66.6836ZM62.9905 78.0012C62.9905 81.6296 60.9277 84.2992 57.0271 84.2992C53.1265 84.2992 51.0637 81.6296 51.0637 78.0012C51.0637 74.3728 53.1265 71.7032 57.0271 71.7032C60.9277 71.7032 62.9905 74.3728 62.9905 78.0012ZM44.9316 78.0012C44.9316 84.2992 48.9634 89.8076 57.0271 89.8076C65.0908 89.8076 69.1227 84.2992 69.1227 78.0012C69.1227 71.7032 65.0908 66.1948 57.0271 66.1948C48.9634 66.1948 44.9316 71.6844 44.9316 78.0012ZM5.64458 66.6836C5.13825 73.5456 5.19451 83.6788 1.53773 84.0736C0.918885 84.13 0.412561 84.0736 0 83.942V89.1496C0.993896 89.4692 1.93153 89.6008 2.77541 89.6008C9.26386 89.6008 10.389 81.2912 11.0829 72.0228H15.9586V89.3188H21.922V66.7024H5.64458V66.6836Z" fill="#FDF8F5"/>
</g>
</g>
<defs>
<clipPath id="clip0_4_6">
<rect width="298" height="94" fill="white"/>
</clipPath>
</defs>
</svg>
