<svg width="89" height="89" viewBox="0 0 89 89" fill="none" xmlns="http://www.w3.org/2000/svg">
<path d="M47.28 86.84L86.84 47.28C88.61 45.51 88.61 42.65 86.84 40.88L47.28 1.33C45.51 -0.439998 42.65 -0.439998 40.88 1.33L1.33 40.88C-0.440001 42.65 -0.440001 45.51 1.33 47.28L40.89 86.84C42.66 88.61 45.52 88.61 47.29 86.84H47.28ZM61.22 56.44V32.13H66.89V56.44H61.22ZM56.06 56.44H31.75V32.13H56.06V56.44ZM61.22 26.97V23.69L64.5 26.97H61.22ZM56.06 21.44V26.97H31.75V21.44H56.06ZM26.59 26.97H23.07L26.59 23.45V26.97ZM26.59 32.13V56.44H21.06V32.13H26.59ZM26.59 61.6V64.74L23.45 61.6H26.59ZM31.75 67.28V61.61H56.06V67.28H31.75ZM61.22 61.6H64.12L61.22 64.5V61.6ZM78.99 41.46C80.45 42.92 80.45 45.28 78.99 46.73L72.05 53.67V34.52L78.99 41.46ZM46.42 8.89L53.67 16.14H33.9L41.15 8.89C42.61 7.43 44.97 7.43 46.42 8.89ZM8.58 46.73C7.12 45.27 7.12 42.91 8.58 41.46L15.76 34.28V53.9L8.58 46.72V46.73ZM41.15 79.3L34.28 72.43H53.29L46.42 79.3C44.96 80.76 42.6 80.76 41.15 79.3Z" fill="#FDF8F5"/>
</svg>
