<svg width="219" height="215" viewBox="0 0 219 215" fill="none" xmlns="http://www.w3.org/2000/svg">
<g clip-path="url(#clip0_24_9)">
<path d="M219 207.733C217.163 212.847 213.38 215 208.119 214.994C186.911 214.983 165.698 214.994 144.49 214.983C143.851 214.983 143.206 214.92 142.579 214.811C140.445 214.427 139.315 213.093 139.446 211.181C139.572 209.337 140.958 208.065 143.086 208.048C148.564 208.002 154.047 208.025 159.53 208.025C164.368 208.025 169.212 207.951 174.051 208.06C175.957 208.106 176.847 207.607 176.624 205.557C176.487 204.286 176.556 202.986 176.624 201.704C176.733 199.585 177.993 198.251 179.882 198.165C181.828 198.079 183.186 199.19 183.448 201.36C183.636 202.912 183.596 204.498 183.574 206.067C183.556 207.361 183.933 208.048 185.388 208.043C193.29 208.002 201.187 208.054 209.089 208.002C211.588 207.985 212.667 206.519 212.096 204.028C211.075 199.579 210.202 195.078 208.867 190.72C204.776 177.361 195.555 169.848 181.936 167.655C177.366 166.916 172.818 166.092 168.362 164.855C166.947 164.46 165.977 164.786 164.882 165.685C152.757 175.66 133.758 175.586 121.622 165.519C120.72 164.769 119.893 164.391 118.723 164.729C113.451 166.241 108.002 166.939 102.645 168.05C89.864 170.707 81.4938 178.369 77.7908 190.95C76.5242 195.256 75.6569 199.682 74.6641 204.063C74.105 206.519 75.1948 207.985 77.6995 208.002C85.8872 208.054 94.0691 208.002 102.257 208.043C103.597 208.043 103.997 207.436 103.951 206.21C103.9 204.784 103.917 203.353 103.951 201.927C104.02 199.47 105.252 198.136 107.358 198.17C109.383 198.205 110.57 199.51 110.644 201.841C110.684 203.055 110.752 204.28 110.633 205.483C110.444 207.401 111.066 208.146 113.109 208.077C117.588 207.934 122.078 208.02 126.557 208.043C129.193 208.054 130.642 209.222 130.711 211.312C130.779 213.431 129.467 214.679 126.831 214.937C126.055 215.011 125.268 215.006 124.486 215.006C109.611 215.006 94.7366 215.006 79.862 215.011C78.0761 215.011 76.2845 214.971 74.5671 214.508C69.7744 213.219 66.7732 208.621 67.7888 203.393C68.9186 197.586 69.9969 191.717 72.0852 186.168C77.517 171.738 88.0895 163.498 103.141 160.915C107.278 160.205 111.374 159.306 115.488 158.51C118.683 157.897 120.64 156.225 122.124 153.482C124.218 149.606 124.303 149.646 120.783 147.075C112.07 140.701 106.291 132.243 103.267 121.907C102.696 119.949 101.874 119.016 99.7918 118.609C93.6069 117.401 89.3448 112.545 88.3406 106.028C87.5019 100.588 90.5087 94.5128 95.7237 91.6954C97.3783 90.8021 97.481 89.9031 97.0702 88.3112C94.788 79.3953 94.2231 70.4336 96.6994 61.4433C99.672 50.6435 106.102 42.535 115.688 36.8832C116.236 36.5568 116.812 36.259 117.411 36.0414C119.151 35.4172 120.52 36.0414 121.439 37.536C122.335 38.9962 122.09 40.4736 120.869 41.6246C120.104 42.3461 119.123 42.8385 118.221 43.4112C107.939 49.9506 102.696 59.4105 102.097 71.5273C101.834 76.8471 102.559 82.058 103.803 87.2232C104.191 88.838 104.733 89.4736 106.559 88.9869C122.449 84.7666 137.421 78.5707 150.692 68.647C151.776 67.8396 152.74 66.8719 153.802 66.0358C156.266 64.0831 158.509 64.5642 159.821 67.4445C162.075 72.4092 164.682 77.1449 168.254 81.285C170.958 84.423 174.045 86.9827 178.245 87.8416C181.508 88.5116 182.176 88.1222 182.809 84.9441C184.452 76.681 184.966 68.4065 183.117 60.0919C180.938 50.2656 173.429 46.7439 164.58 47.7918C162.297 48.0609 160.74 47.6372 159.182 45.8105C155.268 41.218 149.848 39.4657 144.113 38.5782C139.087 37.8051 134.066 37.7765 129.056 38.8759C126.523 39.4314 124.817 38.4522 124.326 36.4251C123.853 34.4667 125.028 32.7087 127.544 32.222C140.553 29.6909 152.757 30.9965 163.256 40.0498C163.895 40.5996 164.505 40.8229 165.373 40.7599C178.998 39.7521 188.737 48.0953 190.54 61.9587C191.744 71.2296 191.054 80.3172 188.846 89.3362C188.486 90.8078 188.646 91.724 189.964 92.7548C194.762 96.5055 196.782 101.527 195.419 107.523C194.021 113.673 190.027 117.447 183.842 118.701C182.347 119.004 181.748 119.76 181.348 121.163C178.302 131.802 172.539 140.604 163.495 147.08C162.331 147.916 162.075 148.758 162.748 149.961C162.816 150.087 162.874 150.218 162.919 150.35C164.791 155.464 168.163 158.562 173.788 159.163C177.526 159.564 181.217 160.423 184.903 161.19C201.529 164.649 211.908 174.693 216.124 191.179C217.094 194.981 218.041 198.789 218.994 202.591V207.733H219ZM107.649 103.102C107.552 106.034 107.677 108.949 108.071 111.858C109.503 122.48 113.634 131.711 121.719 138.96C129.952 146.342 139.463 149.445 150.144 146.17C161.556 142.671 168.961 134.471 173.349 123.517C176.904 114.641 177.286 105.335 176.607 95.9214C176.521 94.7304 175.808 94.4097 174.867 94.1062C171.055 92.8865 167.855 90.6761 165.03 87.8817C161.396 84.2856 158.543 80.1168 156.169 75.6159C155.428 74.213 154.829 74.1385 153.602 75.0662C151.502 76.6524 149.328 78.1641 147.075 79.5155C135.412 86.5303 123.042 91.8958 109.845 95.2343C108.293 95.6294 107.506 96.2478 107.626 97.96C107.746 99.6664 107.654 101.384 107.654 103.096L107.649 103.102ZM143.514 166.12C148.957 166.086 154.189 164.815 158.914 161.7C160.312 160.778 160.586 159.879 159.553 158.384C158.389 156.695 157.487 154.811 156.586 152.955C156.072 151.896 155.525 151.684 154.412 152.097C147.115 154.782 139.703 155.091 132.246 152.852C130.836 152.429 130.174 152.824 129.575 154.066C128.834 155.601 128.046 157.153 127.025 158.504C125.958 159.913 126.317 160.697 127.624 161.568C132.394 164.763 137.683 166.092 143.509 166.126L143.514 166.12ZM100.625 102.747C100.625 101.59 100.636 100.096 100.625 98.6013C100.613 97.3301 99.963 97.101 98.9816 97.7252C96.5396 99.2828 95.1702 101.453 95.2273 104.454C95.2844 107.426 96.6309 109.602 99.1414 111.085C100.499 111.886 101.167 111.463 100.979 109.888C100.705 107.626 100.534 105.358 100.631 102.747H100.625ZM188.948 103.87C188.743 101.739 187.819 99.5863 185.679 98.0917C185.223 97.771 184.738 97.2843 184.156 97.5076C183.488 97.7653 183.699 98.4754 183.682 99.0136C183.596 102.782 183.933 106.561 183.351 110.317C183.169 111.503 183.75 111.657 184.749 111.222C187.094 110.191 189 107.088 188.943 103.87H188.948Z" fill="#E1B673"/>
<path d="M46.2668 0.0171001C67.8228 0.0571842 84.2322 14.4016 89.8865 31.2827C93.7264 42.7354 93.1901 54.0563 88.3346 65.1138C87.5757 66.8489 87.376 68.395 87.9295 70.2388C89.1277 74.2014 90.1376 78.2156 91.1475 82.2297C92.7508 88.626 88.3403 93.0353 81.9614 91.4204C78.1671 90.4584 74.3786 89.4678 70.6357 88.3454C68.4732 87.6983 66.5675 87.8644 64.4678 88.7921C42.1873 98.6356 15.6674 89.0498 5.01496 67.118C-1.76906 53.1515 -1.64924 39.0247 5.22036 25.0239C5.47141 24.5143 5.73387 23.9989 6.04768 23.5236C7.22875 21.7313 9.00892 21.1529 10.6179 22.0061C12.3581 22.9281 12.9743 24.7891 11.9759 26.7933C10.2527 30.2577 8.83204 33.8081 7.94766 37.5931C2.72699 59.8914 18.2178 82.4874 40.8636 85.3391C48.4806 86.3011 55.9379 85.3792 62.9159 81.9262C65.4949 80.6493 68.0168 80.4259 70.7612 81.2333C74.6524 82.3786 78.5779 83.3864 82.492 84.4458C84.7457 85.0528 84.8028 84.9898 84.1752 82.6592C83.1025 78.6622 82.0584 74.6538 80.9344 70.674C80.2211 68.1487 80.4323 65.8067 81.5563 63.4073C90.4685 44.3044 83.6788 22.5616 65.5633 11.9908C52.1779 4.18585 34.3648 5.46855 22.1833 15.1174C21.51 15.6499 20.871 16.2168 20.1806 16.7207C18.3947 18.0435 16.4719 17.9175 15.2281 16.423C13.9329 14.8654 14.0984 13.1074 15.7872 11.4869C17.807 9.55713 20.1178 7.99958 22.4857 6.54509C29.4237 2.3019 38.7125 -0.240584 46.2668 0.0171001Z" fill="#E1B673"/>
<path d="M47.1515 59.0497C42.4044 59.0497 39.1522 60.5099 36.5675 63.4876C34.6847 65.6521 32.9673 66.0243 31.2556 64.6557C29.5496 63.2929 29.5781 61.1741 31.3355 59.0096C38.884 49.7101 54.1467 49.8933 61.37 59.3703C62.8307 61.2887 62.8249 63.2127 61.3472 64.524C59.7325 65.9671 57.8839 65.7838 56.1436 63.8025C53.519 60.8134 50.4152 58.9409 47.1458 59.0439L47.1515 59.0497Z" fill="#E1B673"/>
<path d="M58.928 33.9112C58.928 35.045 59.0535 36.2017 58.8995 37.3126C58.6598 39.0592 57.5872 40.1357 55.7842 40.2445C53.9926 40.3533 52.7202 39.4772 52.3494 37.7249C51.8016 35.1366 51.7902 32.4854 52.3266 29.8971C52.7031 28.0876 54.004 27.0396 55.8812 27.2515C57.7013 27.4519 58.8196 28.5972 58.9394 30.5041C59.0136 31.6379 58.9508 32.7774 58.9508 33.9112C58.9394 33.9112 58.9337 33.9112 58.9223 33.9112H58.928Z" fill="#E1B673"/>
<path d="M40.1849 33.9513C40.1849 35.0221 40.2591 36.0987 40.1735 37.1638C40.008 39.1279 38.6672 40.3361 36.7843 40.256C34.8615 40.1758 33.6747 39.1222 33.5663 37.2153C33.4351 34.9362 33.4465 32.6457 33.5549 30.3666C33.6405 28.5228 35.2039 27.1771 36.9555 27.2C38.6101 27.2229 40.0251 28.5285 40.1678 30.3151C40.2648 31.5234 40.1849 32.7431 40.1906 33.957L40.1849 33.9513Z" fill="#E1B673"/>
</g>
<defs>
<clipPath id="clip0_24_9">
<rect width="219" height="215" fill="white"/>
</clipPath>
</defs>
</svg>
