<svg width="390" height="570" viewBox="0 0 390 570" fill="none" xmlns="http://www.w3.org/2000/svg">
<path opacity="0.96" fill-rule="evenodd" clip-rule="evenodd" d="M416.275 869.9C432.532 836.368 453.457 785.419 462.197 726.26L462.221 726.236C462.522 725.943 462.824 725.65 463.125 725.358C502.148 687.42 541.299 647.961 569.269 612.217C583.254 594.345 594.47 577.368 601.475 561.95C608.476 546.541 611.308 532.605 608.398 520.862C608.398 520.862 608.398 520.862 608.398 520.861C605.338 508.522 596.359 500.302 582.991 495.088C572.142 490.856 558.389 488.596 542.516 487.681C530.881 476.861 511.427 472.014 487.248 470.53C475.289 460.02 456.779 455.2 434.299 453.614C422.094 443.668 405.155 438.768 385.273 436.866C382.579 435.033 379.743 433.303 376.757 431.682C367.16 426.472 356.398 423.107 344.784 421.09C344.381 420.862 343.977 420.635 343.572 420.41C319.221 404.617 291.55 393.178 260.839 387.256C212.254 377.883 174.927 385.264 142.454 391.685C140.87 391.998 139.297 392.309 137.735 392.616C131.566 393.827 125.571 394.969 119.699 395.919C120.24 387.61 121.596 379.539 122.981 371.606L123.127 370.77L123.259 370.015C126.795 349.823 130.194 330.408 119.9 310.583L118.904 311.009L119.9 310.583C114.876 300.907 107.182 292.256 95.9513 285.236C95.5291 284.346 95.0885 283.454 94.6288 282.562L94.6281 282.561C89.4375 272.53 81.5548 263.428 70.0517 255.915C69.8295 255.468 69.6036 255.02 69.3743 254.573L69.3733 254.571C63.9483 244.05 55.7946 234.335 43.9001 226.149C38.1274 215.057 29.6067 204.589 17.2448 195.541C10.9827 184.23 2.14752 173.288 -10.2863 163.477C-17.2648 151.56 -26.6514 139.68 -39.3913 128.57C-67.3848 81.8893 -122.255 29.3964 -238.237 9.5133e-06L-239.023 1.75138C-127.973 29.8975 -73.3339 79.2601 -44.6149 124.211C-56.204 114.956 -70.3032 106.325 -87.492 98.767C-131.573 79.3841 -195.914 67.0816 -290.235 69.3259L-290.365 71.1495C-196.28 68.9108 -132.313 81.1889 -88.6197 100.401C-69.055 109.004 -53.5436 119.002 -41.2068 129.723C-38.4445 134.342 -35.9474 138.902 -33.6816 143.374C-32.473 145.759 -31.3185 148.143 -30.2154 150.523C-43.3596 143.484 -59.2471 137.446 -78.4438 132.831C-134.022 119.469 -217.314 118.04 -342.08 138.684L-341.847 140.473C-217.247 119.857 -134.336 121.334 -79.2017 134.589C-58.8781 139.475 -42.3256 145.961 -28.8459 153.536C-25.3219 161.441 -22.3522 169.315 -19.8358 177.132C-33.722 172.555 -50.09 169.058 -69.3583 166.948C-136.403 159.606 -238.627 169.032 -393.856 208.068L-393.411 209.813C-238.298 170.806 -136.425 161.464 -69.8202 168.758C-49.9306 170.936 -33.1918 174.596 -19.1203 179.392C-16.41 188.099 -14.2513 196.732 -12.504 205.259C-26.3373 202.848 -42.1602 201.395 -60.2355 201.088C-138.736 199.755 -259.892 220.024 -445.593 277.449L-445.012 279.156C-259.396 221.757 -138.557 201.586 -60.469 202.912C-42.0611 203.225 -26.0387 204.731 -12.1083 207.224C-10.2372 216.673 -8.85992 225.989 -7.784 235.123C-20.7474 234.387 -35.1382 234.383 -51.0983 235.212C-141.052 239.881 -281.14 270.989 -497.312 346.802L-496.637 348.478C-280.531 272.688 -140.729 241.682 -51.156 237.032C-35.0447 236.196 -20.5676 236.212 -7.56989 236.972C-6.4126 247.148 -5.61511 257.093 -4.90948 266.745C-16.3071 267.115 -28.6232 267.976 -41.9236 269.376C-143.329 280.043 -302.349 321.985 -549 416.183L-548.257 417.835C-301.661 323.657 -142.901 281.816 -41.8445 271.186C-28.4995 269.782 -16.1675 268.923 -4.77765 268.558C-4.72223 269.325 -4.6673 270.089 -4.61267 270.852C-4.53241 271.973 -4.45288 273.09 -4.37366 274.202L-4.37329 274.206V274.207V274.208C-4.02118 279.153 -3.67505 284.013 -3.29706 288.78C0.111084 331.764 6.11041 367.351 43.1762 387.938C45.7939 389.391 48.3928 390.695 50.9769 391.859C52.7902 393.454 54.7108 395.007 56.7455 396.516C60.9689 399.649 65.3359 402.33 69.8331 404.609C69.999 404.767 70.166 404.924 70.3338 405.081C75.6367 410.039 81.4183 414.179 87.6084 417.614C92.7415 422.799 98.4579 427.215 104.673 430.956C109.549 436.175 115.029 440.705 121.031 444.624C125.636 449.882 130.842 454.52 136.577 458.6C155.965 482.573 187.401 495.047 224.962 500.73C271.457 507.764 327.505 504.424 382.119 499.551C391.061 498.754 399.962 497.915 408.778 497.074C414.26 508.973 418.826 521.651 422.616 534.916C425.617 545.423 428.13 556.291 430.224 567.421C430.181 569.355 430.126 571.297 430.059 573.248C429.156 599.596 426.082 627.309 422.953 654.755C416.709 672.785 410.508 690.697 405.249 707.891C403.123 714.839 401.146 721.684 399.376 728.389C395.732 735.028 392.27 741.546 389.053 747.905C381.404 763.028 375.111 777.32 371.063 790.305C361.045 804.532 352.957 817.618 347.795 829.071C345.536 834.082 343.827 838.804 342.767 843.187C335.057 852.199 328.768 860.411 324.313 867.63C320.924 873.123 318.571 878.081 317.475 882.407C316.38 886.734 316.524 890.498 318.236 893.53C320.494 897.525 325.091 899.586 331.169 900.219C337.227 900.851 344.889 900.086 353.575 898.333C370.958 894.826 392.78 887.293 414.812 878.549L414.361 877.595L414.633 877.531L414.316 876.167L414.622 874.681C414.502 874.673 414.381 874.663 414.261 874.654L415.264 873.866C415.098 873.714 414.934 873.559 414.77 873.401L415.53 873.302L415.522 873.208L415.512 873.074C415.505 872.982 415.498 872.89 415.491 872.798C415.484 872.705 415.478 872.612 415.471 872.519L415.505 872.523L415.631 872.095C415.842 871.376 416.057 870.644 416.275 869.9ZM409.595 878.657C394.629 881.811 380.361 883.042 368.73 880.94C355.72 878.589 346.026 872.06 342.42 859.542C341.363 855.873 341.259 851.713 341.977 847.126C335.456 854.92 330.111 862.039 326.212 868.357C322.876 873.764 320.624 878.546 319.588 882.636C318.552 886.726 318.749 890.055 320.203 892.63C322.081 895.953 325.949 897.818 331.618 898.409C337.307 899.002 344.673 898.291 353.251 896.561C369.239 893.335 389.142 886.629 409.595 878.657ZM344.785 843.812C343.433 849.606 343.29 854.685 344.523 858.966C347.933 870.803 357.002 876.921 369.358 879.155C381.237 881.302 396.168 879.852 411.99 876.292C401.215 875.103 391.441 871.086 383.646 863.423C375.326 855.243 369.31 842.955 366.66 825.639C366.401 823.95 366.236 822.207 366.161 820.413C363.199 823.506 360.338 826.537 357.589 829.502C352.983 834.471 348.698 839.249 344.785 843.812ZM368.274 818.214C375.395 810.829 383.069 803.108 391.15 795.119C392.765 815.889 395.248 832.742 398.761 845.85C402.326 859.147 406.975 868.687 412.953 874.535C402.44 873.467 392.928 869.628 385.339 862.167C377.335 854.298 371.421 842.351 368.804 825.25C368.46 823.004 368.287 820.657 368.274 818.214ZM393.175 793.119C394.783 814.639 397.295 831.959 400.872 845.301C404.12 857.417 408.225 866.172 413.249 871.815C412.656 862.057 413.194 848.553 413.864 831.744C413.907 830.649 413.951 829.54 413.996 828.418C414.635 812.276 415.335 793.219 415.287 771.552C407.682 778.911 400.279 786.115 393.175 793.119ZM417.443 769.468C417.538 791.966 416.814 811.697 416.156 828.318C416.113 829.418 416.069 830.505 416.027 831.577L416.026 831.582C415.472 845.505 415.011 857.084 415.197 866.14C422.978 839.502 434.199 798.851 438.115 749.535C436.825 750.778 435.539 752.017 434.255 753.254L434.252 753.257L434.216 753.292C433.862 753.633 433.508 753.974 433.154 754.314C427.849 759.425 422.602 764.481 417.443 769.468ZM440.441 747.294C437.069 792.507 427.508 830.594 419.87 857.494C434.762 824.981 451.763 780.011 459.672 728.711C453.232 734.959 446.805 741.161 440.441 747.294ZM345.977 839.482C346.958 836.359 348.242 833.056 349.807 829.584C354.281 819.657 361.008 808.44 369.347 796.245C367.305 803.95 366.159 811.136 366.114 817.692C362.576 821.368 359.175 824.96 355.932 828.459C352.426 832.242 349.099 835.919 345.977 839.482ZM368.328 815.4C375.399 808.103 382.99 800.489 390.961 792.622C390.94 792.336 390.919 792.05 390.899 791.762C390.314 783.635 390.698 774.883 391.837 765.636C385.658 773.617 379.854 781.354 374.561 788.782C374.058 789.487 373.561 790.189 373.068 790.888C370.315 799.773 368.643 807.993 368.328 815.4ZM392.997 790.616C400.164 783.561 407.624 776.311 415.278 768.91C415.26 765.31 415.221 761.639 415.157 757.899C415.035 750.797 415.157 743.474 415.466 735.976C408.16 744.962 401.095 753.763 394.432 762.299C393.012 772.371 392.447 781.863 392.997 790.616ZM432.725 752.083L432.739 752.07L433.195 751.63C434.903 749.985 436.615 748.335 438.333 746.68C438.871 739.322 439.244 731.776 439.417 724.059C439.548 718.211 439.652 712.315 439.719 706.385L438.067 708.395L436.06 710.836L436.059 710.838L436.056 710.841C429.861 718.376 423.729 725.835 417.746 733.177C417.351 741.592 417.182 749.791 417.318 757.712C417.371 760.8 417.407 763.84 417.428 766.832C422.457 761.974 427.565 757.053 432.725 752.083ZM440.644 744.452C447.103 738.226 453.619 731.934 460.139 725.601C461.822 714.091 463.041 702.272 463.67 690.211C463.91 685.624 464.062 681.047 464.127 676.481C461.231 680.07 458.321 683.657 455.404 687.236C450.908 692.754 446.398 698.254 441.906 703.723C441.842 710.509 441.728 717.253 441.578 723.933C441.422 730.916 441.102 737.761 440.644 744.452ZM462.641 723.169C501.301 685.558 539.886 646.594 567.497 611.308C581.432 593.5 592.546 576.661 599.465 561.432C606.388 546.194 609.073 532.651 606.28 521.383C603.369 509.642 594.862 501.794 581.946 496.756C571.91 492.842 559.226 490.631 544.48 489.644C546.929 492.281 548.96 495.237 550.535 498.546C555.549 509.073 555.711 521.663 552.283 535.689C548.855 549.715 541.823 565.235 532.363 581.673C515.802 610.452 491.734 642.16 466.316 673.763C466.277 679.203 466.115 684.661 465.83 690.13C465.243 701.371 464.147 712.402 462.641 723.169ZM541.363 489.455C538.034 489.274 534.605 489.151 531.084 489.081C521.345 488.887 510.925 489.1 499.964 489.602C506.045 506.601 503.43 527.787 495.696 551.224C488.421 573.27 476.572 597.435 462.967 622.202C465.17 638.074 466.302 654.271 466.325 670.637C491.071 639.785 514.331 608.979 530.434 580.997C539.847 564.64 546.792 549.284 550.168 535.474C553.543 521.664 553.333 509.459 548.519 499.351C546.736 495.606 544.334 492.323 541.363 489.455ZM497.685 489.71C484.841 490.34 471.278 491.352 457.22 492.561C459.067 501.238 459.695 510.599 459.36 520.483C458.834 535.995 455.935 552.839 451.623 570.424C456.388 586.087 460.025 602.296 462.489 618.873C475.446 595.099 486.649 571.995 493.617 550.881C501.406 527.279 503.851 506.312 497.685 489.71ZM455.031 492.75C445.292 493.599 435.324 494.536 425.199 495.503C427.118 502.31 428.6 509.422 429.71 516.784C437.963 532.493 444.88 549.145 450.4 566.493C454.197 550.334 456.715 534.881 457.199 520.592C457.535 510.685 456.893 501.356 455.031 492.75ZM417.788 496.212C419.527 496.045 421.262 495.879 422.993 495.713C424.384 500.604 425.548 505.658 426.508 510.858C423.739 505.872 420.831 500.987 417.788 496.212ZM414.289 496.547C414.656 496.512 415.023 496.477 415.389 496.442C419.738 503.217 423.811 510.217 427.602 517.417C429.467 529.89 430.268 543.119 430.322 556.859C428.677 549.202 426.817 541.685 424.72 534.343C420.975 521.236 416.469 508.675 411.063 496.856C412.14 496.753 413.215 496.65 414.289 496.547ZM132.126 452.576C131.581 451.766 131.047 450.943 130.526 450.109C129.596 449.634 128.675 449.148 127.764 448.65C129.172 450.006 130.627 451.314 132.126 452.576ZM128.58 446.835C127.419 444.778 126.329 442.654 125.314 440.459C122.918 439.635 120.569 438.747 118.269 437.79C119.66 439.692 121.123 441.521 122.655 443.28C124.576 444.527 126.552 445.711 128.58 446.835ZM124.236 438.039C122.975 435.091 121.917 432.181 121.038 429.307C117.849 428.69 114.716 427.974 111.643 427.15C112.125 428.066 112.628 428.983 113.153 429.901C114.102 431.561 115.098 433.174 116.141 434.74C118.768 435.934 121.469 437.032 124.236 438.039ZM120.446 427.28C119.375 423.435 118.617 419.654 118.113 415.932C114.176 415.783 110.287 415.503 106.454 415.069C107.557 418.324 108.888 421.587 110.484 424.86C113.732 425.79 117.055 426.593 120.446 427.28ZM117.883 414.089C117.264 408.642 117.173 403.32 117.421 398.105C112.492 398.859 107.631 399.467 102.812 399.854C103.468 404.271 104.441 408.695 105.824 413.132C109.781 413.612 113.803 413.923 117.883 414.089ZM117.522 396.263C118.056 387.753 119.441 379.525 120.843 371.498C120.927 371.017 121.011 370.538 121.094 370.06C124.647 349.758 127.964 330.803 117.908 311.435C113.486 302.919 106.909 295.169 97.4896 288.663C107.223 311.632 105.227 333.885 103.26 355.818L103.146 357.094C101.918 370.809 100.791 384.403 102.562 398.056C107.482 397.668 112.458 397.044 117.522 396.263ZM94.1409 286.478C89.6046 283.681 84.4767 281.148 78.6946 278.921C84.3154 300.218 83.7171 320.785 83.1429 340.522L83.1097 341.663L83.081 342.661C82.5247 362.062 82.2142 380.63 87.9905 398.432C92.0989 398.57 96.2247 398.481 100.388 398.212C98.6258 384.423 99.7698 370.757 100.99 357.118L101.094 355.961C103.151 333.012 105.202 310.132 94.1409 286.478ZM76.1843 277.989C71.038 276.145 65.3988 274.535 59.2267 273.185C62.1717 290.913 62.4153 308.026 62.6476 324.349C62.6667 325.696 62.6859 327.038 62.7064 328.375C63.0911 353.412 63.9842 376.475 75.1119 397.188C78.6299 397.764 82.1454 398.134 85.671 398.329C80.0386 380.451 80.3718 361.897 80.9201 342.778C80.9397 342.095 80.9595 341.411 80.9794 340.727C81.5674 320.487 82.1745 299.59 76.1843 277.989ZM56.9357 272.702C51.4221 271.577 45.4969 270.655 39.1334 269.954C40.5706 282.943 41.1273 295.535 41.662 307.628C41.7627 309.906 41.8627 312.167 41.9676 314.409C43.4013 345.051 45.7649 372.179 63.3862 394.467C66.4067 395.383 69.4152 396.122 72.4194 396.706C61.7628 375.967 60.9211 353.031 60.5451 328.559C60.5248 327.242 60.506 325.92 60.4871 324.594V324.593C60.2496 307.967 60.0019 290.628 56.9357 272.702ZM36.9178 269.721C31.1483 269.141 25.0272 268.739 18.5355 268.528C19.1575 276.088 19.6221 283.487 20.0748 290.698V290.698C20.2933 294.179 20.5091 297.616 20.7385 301.006C23.1921 337.263 27.2097 368.051 52.3902 390.353C54.8838 391.467 57.3632 392.449 59.8326 393.31C43.4313 371.016 41.1926 344.239 39.8077 314.64C39.7033 312.409 39.6038 310.16 39.5035 307.896V307.894C38.9596 295.609 38.3948 282.855 36.9178 269.721ZM16.3488 268.464C10.3467 268.31 4.034 268.317 -2.604 268.494C-2.47211 270.322 -2.34296 272.138 -2.2146 273.943V273.943L-2.21442 273.945C-1.86273 278.889 -1.5174 283.744 -1.14032 288.5C2.27368 331.557 8.28967 366.291 44.472 386.387C45.0605 386.714 45.6479 387.033 46.2345 387.344C24.5443 364.978 20.8793 335.24 18.5804 301.27C18.351 297.879 18.1352 294.446 17.9169 290.972C17.4562 283.642 16.9842 276.131 16.3488 268.464ZM-2.73566 266.68C3.8847 266.499 10.1902 266.487 16.1942 266.634C15.4161 257.598 14.3958 248.349 12.887 238.927C7.1618 238.144 1.08484 237.534 -5.36365 237.109C-4.22235 247.228 -3.43396 257.107 -2.73566 266.68ZM18.3818 266.695C24.8379 266.896 30.9387 267.285 36.7012 267.848C35.7159 259.56 34.3526 251.123 32.389 242.559C27.0408 241.263 21.3011 240.154 15.144 239.248C16.6177 248.59 17.6174 257.753 18.3818 266.695ZM38.9196 268.076C45.2137 268.75 51.0947 269.638 56.5861 270.722C55.243 263.358 53.4092 255.896 50.8915 248.346C45.9747 246.402 40.6091 244.662 34.7585 243.152C36.6481 251.597 37.9648 259.913 38.9196 268.076ZM58.8846 271.192C64.9066 272.467 70.4449 273.985 75.5325 275.724C73.702 269.588 71.3232 263.395 68.2454 257.145C63.8919 254.335 59.0074 251.75 53.5372 249.429C55.8915 256.775 57.6154 264.033 58.8846 271.192ZM78.0637 276.62C83.3903 278.575 88.1987 280.781 92.5301 283.21C87.9758 274.482 81.2973 266.436 71.7917 259.567C74.4077 265.301 76.4601 270.986 78.0637 276.62ZM119.593 397.764C119.326 403.121 119.42 408.579 120.082 414.164C138.827 414.69 158.787 412.293 179.425 409.383C182.996 408.879 186.586 408.36 190.193 407.839L190.198 407.838C232.555 401.716 277.214 395.261 318.795 409.466C320.735 410.129 322.645 410.822 324.526 411.545C304.905 401.187 283.415 393.516 260.185 389.036C212.082 379.757 175.182 387.052 142.726 393.468L142.645 393.484L142.629 393.487C141.092 393.791 139.564 394.093 138.046 394.391C131.757 395.626 125.622 396.795 119.593 397.764ZM120.32 416.001C120.861 419.852 121.681 423.765 122.846 427.746C152.11 433.169 186.199 430.359 220.854 426.437C226.125 425.841 231.408 425.219 236.686 424.598L236.687 424.598L236.688 424.598L236.69 424.598C260.246 421.825 283.715 419.063 305.611 418.615C317.227 418.378 328.433 418.79 339.005 420.204C332.379 416.751 325.332 413.726 317.837 411.167C276.821 397.154 232.758 403.517 190.298 409.648C186.719 410.165 183.15 410.68 179.596 411.181C159.169 414.062 139.199 416.481 120.32 416.001ZM123.462 429.756C124.397 432.674 125.522 435.63 126.862 438.626C126.921 438.758 126.98 438.89 127.04 439.021C137.536 442.557 148.947 444.861 161.02 446.239C191.866 449.759 226.937 447.222 261.915 443.769C268.722 443.097 275.526 442.39 282.295 441.687L282.309 441.685L282.315 441.685L282.321 441.684C310.1 438.798 337.269 435.975 361.477 435.886C355.704 431.236 349.707 426.854 343.491 422.761C331.656 420.766 318.88 420.165 305.472 420.439C283.713 420.884 260.4 423.627 236.849 426.399L236.816 426.403C231.536 427.024 226.243 427.647 220.954 428.245C186.893 432.099 152.918 434.96 123.462 429.756ZM128.162 441.402C129.409 443.95 130.761 446.4 132.214 448.755C147.045 456.233 164.446 460.743 183.504 463.201C219.493 467.841 261.268 465.146 302.55 461.352C310.864 460.588 319.16 459.779 327.383 458.978L327.384 458.978C346.09 457.154 364.422 455.366 381.744 454.226L381.719 454.196C375.992 448.397 369.988 442.893 363.714 437.711C363.055 437.708 362.395 437.708 361.732 437.709C337.557 437.765 310.398 440.586 282.462 443.488L282.462 443.488C275.669 444.194 268.83 444.904 261.978 445.581C226.998 449.034 191.684 451.601 160.547 448.047C149.127 446.744 138.256 444.616 128.162 441.402ZM134.275 451.934C135.536 453.785 136.862 455.574 138.253 457.303C156.025 469.879 179.001 477.062 205.079 480.732C246.183 486.517 294.848 483.552 342.661 479.276C352.575 478.39 362.453 477.447 372.219 476.515C380.396 475.734 388.493 474.961 396.465 474.235C392.415 467.8 388.005 461.69 383.205 455.948C365.532 457.077 346.754 458.908 327.521 460.782L327.52 460.783C319.278 461.586 310.953 462.398 302.595 463.166C261.314 466.959 219.286 469.684 182.996 465.005C165.131 462.701 148.627 458.599 134.275 451.934ZM143.204 462.931C162.413 482.927 191.281 493.752 225.522 498.933C271.691 505.918 327.461 502.61 382.081 497.737C390.752 496.964 399.396 496.151 407.967 495.333C404.796 488.606 401.327 482.135 397.534 475.956C389.272 476.705 380.867 477.507 372.367 478.319L372.361 478.319L372.361 478.319L372.353 478.32L372.336 478.322L372.329 478.322C362.553 479.255 352.652 480.2 342.7 481.09C294.89 485.365 245.96 488.362 204.544 482.533C181.24 479.253 160.27 473.172 143.204 462.931ZM414.281 494.729C412.942 494.858 411.601 494.986 410.258 495.114C407.116 488.399 403.679 481.929 399.919 475.741L400.633 475.677C405.441 481.797 409.992 488.155 414.281 494.729ZM539.185 487.51C528.281 478.491 511.041 474.075 489.358 472.513C490.531 473.693 491.629 474.936 492.651 476.247C495.437 479.824 497.631 483.69 499.286 487.816C510.578 487.286 521.31 487.058 531.324 487.257C533.995 487.31 536.616 487.393 539.185 487.51ZM496.983 487.928C495.409 484.154 493.366 480.618 490.813 477.341C489.405 475.533 487.841 473.857 486.13 472.304C482.381 472.086 478.507 471.947 474.518 471.88C466.683 471.748 458.429 471.89 449.831 472.236C452.975 477.954 455.266 484.159 456.821 490.778C470.751 489.578 484.213 488.568 496.983 487.928ZM454.625 490.968C453.027 484.281 450.663 478.048 447.418 472.338C437.734 472.767 427.632 473.443 417.218 474.27C420.206 480.407 422.673 486.913 424.688 493.733C434.839 492.764 444.844 491.821 454.625 490.968ZM419.704 494.21C420.629 494.121 421.554 494.033 422.477 493.944C420.434 487.098 417.93 480.584 414.897 474.456C411.021 474.771 407.104 475.105 403.151 475.453C407.92 481.577 412.433 487.933 416.687 494.499L417.104 494.459L417.104 494.459C417.972 494.376 418.838 494.293 419.704 494.21ZM392.351 761.787C386.244 769.617 380.475 777.227 375.171 784.554C379.116 773.38 384.566 761.272 391.03 748.493C393.049 744.501 395.165 740.447 397.362 736.34C395.235 745.125 393.519 753.636 392.351 761.787ZM415.612 732.71C408.49 741.452 401.578 750.031 395.024 758.372C396.531 748.961 398.735 739.074 401.431 728.837C406.671 719.295 412.287 709.5 418.09 699.55C417.009 710.86 416.129 721.957 415.612 732.71ZM436.9 706.749L434.348 709.853L434.346 709.856C428.8 716.602 423.3 723.291 417.91 729.893C418.512 718.627 419.495 706.992 420.675 695.129C424.199 689.114 427.781 683.048 431.381 676.953L431.382 676.951L431.412 676.9L431.492 676.764C434.139 672.282 436.796 667.783 439.445 663.278C439.803 676.673 439.871 690.055 439.75 703.28C438.799 704.438 437.849 705.594 436.9 706.749ZM464.158 673.334C460.679 677.658 457.173 681.981 453.657 686.296C449.755 691.085 445.839 695.864 441.933 700.623C442.031 687.111 441.927 673.439 441.512 659.759C443.522 656.331 445.527 652.9 447.518 649.469C452.185 641.425 456.778 633.386 461.201 625.403C463.251 641.119 464.249 657.146 464.158 673.334ZM483.809 470.343C472.777 461.665 456.532 457.308 436.664 455.642C441.593 460.076 445.609 465.037 448.818 470.46C457.861 470.079 466.536 469.918 474.751 470.056C477.833 470.108 480.854 470.202 483.809 470.343ZM446.373 470.568C442.929 464.947 438.583 459.862 433.217 455.382C428.36 455.056 423.301 454.878 418.061 454.827C413.81 454.786 409.446 454.828 404.984 454.941C409.388 460.36 413.151 466.241 416.348 472.522C426.685 471.695 436.73 471.012 446.373 470.568ZM414.013 472.711C410.726 466.362 406.849 460.444 402.303 455.016C397.047 455.18 391.658 455.436 386.157 455.765C391.642 461.497 396.864 467.502 401.816 473.754C405.92 473.389 409.988 473.04 414.013 472.711ZM399.288 473.98C398.597 473.114 397.899 472.253 397.197 471.397C397.758 472.265 398.312 473.139 398.86 474.018L399.288 473.98ZM108.807 426.354C109.546 427.836 110.339 429.321 111.19 430.808C111.611 431.545 112.042 432.273 112.481 432.992C110.351 431.921 108.272 430.782 106.248 429.571C104.579 427.774 102.983 425.895 101.463 423.93C103.867 424.816 106.316 425.622 108.807 426.354ZM104.062 414.777C105.063 417.851 106.262 420.933 107.689 424.023C104.837 423.13 102.045 422.134 99.3184 421.027C97.4709 418.41 95.8236 415.775 94.356 413.123C97.5474 413.801 100.784 414.348 104.062 414.777ZM100.634 400.014C101.257 404.27 102.169 408.539 103.451 412.822C99.9778 412.337 96.5561 411.715 93.1897 410.939C91.3759 407.417 89.8666 403.865 88.6137 400.281C92.6042 400.385 96.606 400.281 100.634 400.014ZM66.4571 253.689C61.7403 245.113 55.0794 237.089 45.8439 230.063C48.5674 235.754 50.8388 241.399 52.7349 246.995C57.7571 249.021 62.3192 251.261 66.4571 253.689ZM50.0735 245.958C47.9161 239.828 45.2967 233.64 42.1126 227.398L42.0949 227.364C37.8466 224.469 33.1107 221.768 27.8379 219.296C30.4965 226.64 32.6026 233.907 34.2847 241.083C39.9747 242.503 45.2279 244.135 50.0735 245.958ZM31.9078 240.508C30.1305 233.105 27.8936 225.609 25.0544 218.035C20.2949 215.95 15.1207 214.043 9.49902 212.339C11.761 220.784 13.4861 229.123 14.8348 237.328C20.9095 238.198 26.593 239.263 31.9078 240.508ZM12.5745 237.016C11.1823 228.672 9.39581 220.196 7.0451 211.615C1.81152 210.117 -3.79645 208.789 -9.80365 207.648C-7.9787 217.006 -6.63141 226.224 -5.57642 235.256C0.822632 235.665 6.86707 236.256 12.5745 237.016ZM114.504 436.142C115.12 437.056 115.75 437.954 116.396 438.837C114.676 437.503 113.01 436.109 111.398 434.651C112.422 435.164 113.458 435.661 114.504 436.142ZM388.35 439.05C405.328 441.024 419.79 445.373 430.673 453.387C426.654 453.168 422.517 453.045 418.276 453.003C413.486 452.957 408.555 453.015 403.501 453.161C399.086 447.998 394.059 443.276 388.35 439.05ZM384.265 438.625C390.528 442.94 396.006 447.836 400.782 453.247C395.477 453.431 390.042 453.705 384.5 454.049C384.16 453.701 383.819 453.354 383.477 453.008C378.802 447.581 373.766 442.488 368.343 437.767C373.843 437.878 379.159 438.153 384.265 438.625ZM95.6687 419.461C94.1577 417.151 92.7937 414.828 91.5632 412.493C88.9865 411.877 86.4405 411.171 83.9271 410.368C84.509 411.081 85.1071 411.792 85.7219 412.499C86.8284 413.771 87.9672 415.002 89.1374 416.191C91.2657 417.364 93.4437 418.452 95.6687 419.461ZM90.4314 410.265C88.8005 406.934 87.4305 403.578 86.2823 400.197C82.9378 400.041 79.5991 399.733 76.2572 399.248C77.8873 402.083 79.7182 404.873 81.7755 407.617C84.6155 408.63 87.5018 409.509 90.4314 410.265ZM19.5023 199.851C28.4786 207.108 35.1474 215.171 40.0607 223.642C36.0601 221.164 31.6768 218.845 26.8793 216.709C24.765 211.13 22.3246 205.509 19.5023 199.851ZM16.8472 199.389C19.598 204.796 21.994 210.169 24.0847 215.505C19.4091 213.556 14.3593 211.774 8.90894 210.177C6.88593 202.906 4.45654 195.558 1.51904 188.152C6.63763 190.832 11.2644 193.706 15.444 196.742C15.9274 197.622 16.395 198.505 16.8472 199.389ZM-1.4267 186.658C1.71832 194.33 4.30511 201.943 6.44788 209.476C1.25848 208.04 -4.2821 206.768 -10.1955 205.674C-11.8845 197.308 -13.9642 188.833 -16.5662 180.285C-11.115 182.242 -6.07855 184.373 -1.4267 186.658ZM99.9474 425.437C99.1897 424.47 98.4502 423.482 97.7292 422.473C96.5569 421.99 95.3963 421.486 94.2478 420.962C96.0846 422.536 97.9855 424.027 99.9474 425.437ZM445.592 648.787C450.786 639.837 455.88 630.903 460.748 622.053C458.471 605.825 455.069 589.942 450.584 574.571C447.5 586.624 443.796 598.999 439.774 611.509C439.683 611.792 439.592 612.075 439.501 612.358C439.4 612.669 439.299 612.981 439.199 613.292L438.992 613.931L438.833 614.421C440.094 628.164 440.908 642.077 441.39 655.998C442.796 653.594 444.197 651.19 445.592 648.787ZM437.113 619.674C438.217 632.855 438.925 646.178 439.336 659.502C436.102 665.014 432.849 670.522 429.609 676.009L429.586 676.048L429.523 676.156L429.509 676.179L429.493 676.205C426.7 680.935 423.916 685.649 421.161 690.337C421.929 682.884 422.766 675.349 423.624 667.768C423.975 664.667 424.33 661.558 424.686 658.444L424.686 658.443L425.085 654.948L425.095 654.919L425.097 654.913C429.159 643.185 433.243 631.395 437.113 619.674ZM421.473 667.754C420.444 676.839 419.446 685.867 418.557 694.775C413.428 703.531 408.421 712.185 403.664 720.666C404.824 716.557 406.054 712.398 407.339 708.198C411.719 693.88 416.727 679.134 421.872 664.231C421.739 665.406 421.605 666.581 421.473 667.754ZM426.156 645.5C429.747 635.1 433.302 624.695 436.649 614.402C435.505 602.009 433.997 589.76 432.04 577.772C431.084 599.801 428.719 622.699 426.156 645.5ZM449.405 570.625C446.319 583.152 442.513 596.075 438.33 609.184C436.894 594.901 434.957 580.824 432.388 567.137C432.715 551.915 432.255 537.168 430.582 523.235C438.077 538.279 444.369 554.146 449.405 570.625ZM381.059 436.511C379.26 435.376 377.4 434.286 375.478 433.242C367.613 428.972 358.927 425.962 349.583 423.933C355.466 427.573 360.985 431.574 366.161 435.904C371.27 435.964 376.244 436.157 381.059 436.511ZM73.5407 398.814C74.922 401.323 76.4538 403.799 78.153 406.241C75.8397 405.307 73.5585 404.279 71.3111 403.148C69.2287 401.16 67.3008 399.126 65.515 397.049C68.197 397.764 70.8707 398.348 73.5407 398.814ZM13.0595 192.631C7.90283 184.202 1.19745 176.025 -7.51862 168.437C-7.14368 169.142 -6.77673 169.848 -6.4176 170.553L-6.41724 170.554C-3.90027 175.511 -1.64124 180.449 0.389404 185.362C4.97156 187.642 9.18573 190.072 13.0595 192.631ZM-2.56439 183.938C-4.34094 179.773 -6.28534 175.591 -8.41583 171.395C-9.55762 169.153 -10.7792 166.907 -12.0871 164.661C-16.2023 161.432 -20.7174 158.327 -25.671 155.374C-22.404 162.955 -19.6346 170.504 -17.2744 177.998C-12.0101 179.824 -7.11493 181.81 -2.56439 183.938ZM80.2384 409.109C81.0707 410.205 81.9388 411.294 82.8444 412.376C80.6207 410.896 78.4603 409.308 76.367 407.607C77.6481 408.136 78.9386 408.636 80.2384 409.109ZM-35.9508 134.514C-27.345 142.743 -20.4686 151.327 -14.9454 159.977C-18.6749 157.309 -22.6964 154.737 -27.0323 152.278C-28.4869 149.035 -30.0345 145.787 -31.682 142.535C-33.0225 139.889 -34.4431 137.214 -35.9508 134.514ZM64.9952 399.644C63.9175 398.446 62.8882 397.234 61.9049 396.007C60.4244 395.548 58.9408 395.046 57.4533 394.502C57.7173 394.702 57.9832 394.901 58.2512 395.1L57.4984 395.808L58.2512 395.1C60.4595 396.739 62.7081 398.251 64.9952 399.644Z" fill="url(#paint0_linear_10_14)"/>
<defs>
<linearGradient id="paint0_linear_10_14" x1="-549.663" y1="450.232" x2="610.194" y2="450.232" gradientUnits="userSpaceOnUse">
<stop stop-color="#D3B688"/>
<stop offset="0.03" stop-color="#DAC195"/>
<stop offset="0.09" stop-color="#E9D8AF"/>
<stop offset="0.15" stop-color="#F4E8C2"/>
<stop offset="0.22" stop-color="#FAF2CE"/>
<stop offset="0.29" stop-color="#FDF6D2"/>
<stop offset="0.62" stop-color="#A3195B"/>
<stop offset="0.89" stop-color="#951B81"/>
<stop offset="1" stop-color="#671C72"/>
</linearGradient>
</defs>
</svg>
