<svg width="390" height="322" viewBox="0 0 390 322" fill="none" xmlns="http://www.w3.org/2000/svg">
<path opacity="0.96" fill-rule="evenodd" clip-rule="evenodd" d="M46.2622 -191.527C36.1319 -189.355 23.8463 -185.362 11.1209 -180.623C20.2724 -182.435 29.021 -183.256 36.4574 -182.454C45.8322 -181.443 53.129 -177.846 56.4342 -170.467C57.3109 -168.509 57.655 -166.294 57.5371 -163.855C61.3648 -168.33 64.4745 -172.408 66.7153 -176.021C70.8161 -182.634 71.8186 -187.388 69.5484 -190.247C68.0808 -192.093 65.3162 -193.07 61.3212 -193.25C57.3159 -193.43 52.1971 -192.8 46.2622 -191.527ZM54.986 -160.933C55.5784 -164.317 55.3795 -167.241 54.2944 -169.664C51.2427 -176.476 44.5649 -179.801 35.7677 -180.75C27.8642 -181.602 18.2578 -180.531 8.10846 -178.292C23.3095 -176.941 35.9311 -168.641 41.2853 -149.676C41.5216 -148.84 41.7132 -147.979 41.862 -147.096C43.5887 -148.83 45.2586 -150.532 46.8661 -152.199C49.7971 -155.238 52.5145 -158.154 54.986 -160.933ZM39.8423 -145.078C39.6918 -146.457 39.4417 -147.777 39.0855 -149.038L39.0855 -149.038C33.7512 -167.932 21.2116 -175.626 6.59337 -176.652C10.8043 -173.288 14.372 -167.972 17.45 -160.699C20.6513 -153.134 23.3499 -143.385 25.6682 -131.363C30.6746 -136.106 35.4284 -140.69 39.8423 -145.078ZM23.697 -129.499C21.3305 -142.092 18.5717 -152.188 15.3001 -159.919C12.5333 -166.457 9.42047 -171.251 5.92182 -174.434C6.77464 -168.769 7.15371 -161.155 7.61703 -151.849V-151.849C7.64951 -151.196 7.6824 -150.536 7.7159 -149.867C8.18821 -140.435 8.78178 -129.329 10.028 -116.742C14.7277 -121.093 19.3029 -125.354 23.697 -129.499ZM7.93974 -114.811C6.58626 -128.051 5.96305 -139.691 5.47186 -149.499C5.43941 -150.147 5.40755 -150.787 5.37609 -151.419C5.01112 -158.746 4.70125 -164.966 4.18092 -170.004C0.300705 -154.148 -4.76739 -130.849 -4.76633 -103.095C-4.12029 -103.69 -3.47542 -104.284 -2.83183 -104.877L-2.83013 -104.879L-2.82999 -104.879L-2.82665 -104.882C-2.37194 -105.301 -1.91787 -105.719 -1.46449 -106.137C1.70921 -109.06 4.84921 -111.954 7.93974 -114.811ZM-7.00503 -101.032C-7.19777 -125.989 -3.26466 -147.454 0.376434 -163.3C-7.75391 -144.147 -16.1785 -118.704 -18.7257 -90.2027C-14.8015 -93.8423 -10.8853 -97.4563 -7.00503 -101.032ZM-21.1568 -87.9454L-21.1389 -87.9621C-18.3559 -123.172 -6.5331 -153.889 3.0076 -174.194L3.32795 -175.477L3.39191 -175.732C3.37013 -175.85 3.34808 -175.967 3.32575 -176.083L3.73331 -176.181C3.67608 -176.221 3.61875 -176.26 3.56133 -176.299L4.11642 -176.763L4.09937 -176.763L4.36333 -177.767L4.1072 -179.067L4.12281 -179.071L3.85374 -179.642C18.9121 -185.468 33.9166 -190.581 46.028 -193.178C52.08 -194.476 57.4858 -195.163 61.8439 -194.967C66.2122 -194.77 69.6496 -193.678 71.5238 -191.319L71.5239 -191.319C74.3705 -187.735 72.855 -182.197 68.7155 -175.522C65.9838 -171.118 62.0264 -166.084 57.127 -160.548C56.621 -157.923 55.6845 -155.089 54.388 -152.081C51.3947 -145.135 46.4346 -137.151 40.1939 -128.454C38.0726 -120.638 34.4476 -111.998 29.9299 -102.852C28.0307 -99.0071 25.9682 -95.0623 23.7851 -91.0404C22.9231 -87.032 21.9241 -82.9373 20.8273 -78.7794C18.3602 -69.4262 15.3915 -59.7308 12.3592 -49.9576C12.0395 -48.9272 11.7191 -47.896 11.3985 -46.8642C10.7717 -30.5552 10.201 -14.1039 11.08 1.47797C11.1446 2.6227 11.217 3.76241 11.2977 4.8967C13.4129 11.4003 15.8078 17.7365 18.526 23.8454C21.9438 31.5266 25.8699 38.8422 30.3894 45.6749C36.5091 44.9234 42.6896 44.1711 48.9013 43.4411C87.1782 38.943 126.588 35.3035 159.856 38.0892C186.718 40.3385 209.68 46.7871 224.795 60.419C229.074 62.6606 233.014 65.247 236.568 68.2173C241.028 70.3566 245.156 72.8717 248.899 75.8107C253.499 77.8394 257.788 80.2799 261.711 83.1921C266.283 85.0427 270.608 87.3229 274.642 90.1009C274.763 90.1843 274.883 90.2678 275.003 90.3515C278.31 91.5675 281.548 93.0241 284.712 94.7522C286.231 95.5822 287.673 96.4413 289.043 97.3284C290.931 97.9396 292.837 98.6321 294.764 99.4123L294.11 100.189L294.764 99.4124C322.215 110.526 328.518 131.479 333.404 156.808C333.946 159.617 334.471 162.482 335.004 165.395L335.004 165.396L335.017 165.464C335.204 166.485 335.392 167.512 335.582 168.544C343.533 167.991 352.11 167.124 361.359 165.911C432.034 156.64 541.657 127.217 710.304 64.2377L710.98 65.7601C542.267 128.764 432.376 158.288 361.347 167.605C352.242 168.799 343.771 169.662 335.892 170.22C336.915 175.721 338.018 181.379 339.369 187.152C348.529 187.21 358.679 186.791 369.92 185.826C432.832 180.429 529.693 157.973 677.872 106.769L678.475 108.318C530.216 159.55 433.064 182.106 369.773 187.535C358.792 188.477 348.823 188.904 339.778 188.874C341.028 194.044 342.488 199.303 344.277 204.622C354.206 205.671 365.544 206.081 378.484 205.723C433.632 204.196 517.729 188.706 645.439 149.279L645.942 150.86C518.131 190.318 433.718 205.904 378.167 207.441C365.684 207.787 354.652 207.423 344.908 206.46C346.577 211.229 348.52 216.044 350.823 220.883C360.995 223.286 372.975 224.944 387.081 225.64C434.469 227.978 505.8 219.448 613.031 191.799L613.391 193.421C506.028 221.104 434.355 229.715 386.547 227.356C373.214 226.698 361.733 225.187 351.851 222.998C353.981 227.283 356.402 231.585 359.171 235.89C396.055 250.989 461.967 256.035 580.66 234.316L580.801 235.986C465.16 257.147 399.032 253.032 361.024 238.691C361.728 239.728 362.453 240.764 363.2 241.801C365.049 244.367 367.065 246.977 369.271 249.615C399.377 268.886 452.493 282.765 548.362 276.821L548.145 278.536C457.854 284.133 405.051 272.22 373.647 254.602C396.806 279.768 438.095 306.345 516.192 319.377L515.356 321.061C431.756 307.11 389.951 277.69 367.463 250.887C357.845 244.703 350.532 237.962 344.91 231.117C335.58 225.689 328.707 219.482 323.62 212.969C314.384 207.987 307.763 202.052 303.038 195.662C294.166 191.166 287.839 185.652 283.39 179.576L283.389 179.574C283.211 179.329 283.034 179.084 282.861 178.839C274.304 174.728 268.204 169.569 263.948 163.775L263.948 163.774C263.581 163.272 263.227 162.771 262.885 162.269C254.551 158.442 248.61 153.544 244.492 147.955C236.035 136.473 237.325 124.813 238.657 112.773L238.688 112.5C238.713 112.271 238.738 112.041 238.764 111.811C239.275 107.164 239.758 102.446 239.682 97.6208C235.692 98.343 231.627 99.1756 227.447 100.052C226.362 100.28 225.269 100.51 224.169 100.743C201.603 105.503 175.62 110.984 140.722 106.874C118.658 104.277 98.4287 98.3225 80.2971 89.6873C80.1993 89.6477 80.1015 89.608 80.0038 89.5682C79.8277 89.4965 79.6519 89.4243 79.4765 89.3518C71.1546 88.4995 63.3525 86.8252 56.2653 84.024C54.0746 83.158 51.9816 82.2242 49.9821 81.2256C35.857 80.6856 23.6118 78.2903 14.401 72.7767C-1.52349 72.4991 -14.8749 70.1999 -23.957 64.3431C-41.0598 64.1759 -55.0842 61.8918 -63.9664 55.8392C-75.2083 55.764 -85.0469 54.8326 -92.9598 52.649C-102.732 49.9524 -109.609 45.3316 -112.511 38.0481C-115.274 31.1146 -114.056 22.7119 -109.981 13.3452C-105.904 3.9758 -98.938 -6.42815 -90.0815 -17.4259C-72.3701 -39.4195 -46.9785 -63.9324 -21.6161 -87.5184C-21.463 -87.6608 -21.3099 -87.8031 -21.1568 -87.9454ZM-60.0977 55.8324C-52.1666 60.2596 -40.6217 62.2192 -26.4318 62.5735C-27.039 62.0919 -27.6223 61.5901 -28.1809 61.0678C-30.335 59.0532 -32.0967 56.8549 -33.5012 54.4915C-41.3905 55.1326 -48.9068 55.581 -55.9465 55.7589C-57.3484 55.7943 -58.7325 55.819 -60.0977 55.8324ZM-30.9832 54.2815C-29.7165 56.2727 -28.1775 58.1307 -26.3447 59.8448C-25.2693 60.8504 -24.095 61.7771 -22.8261 62.6292C-20.1977 62.6458 -17.4865 62.6129 -14.698 62.5354C-9.41246 62.3886 -3.87103 62.0829 1.88254 61.6559C-0.465446 58.529 -2.3093 55.1277 -3.71432 51.4912C-13.146 52.5737 -22.2806 53.5376 -30.9832 54.2815ZM-1.36454 51.2199C0.10952 54.9089 2.0515 58.3325 4.52972 61.4521C11.0613 60.9321 17.852 60.2666 24.8398 59.5089C22.534 56.1345 20.537 52.5528 18.8102 48.7929C11.977 49.6325 5.23693 50.4529 -1.36454 51.2199ZM21.2444 48.4936L21.1869 48.5007C22.9561 52.2796 25.0042 55.8661 27.3707 59.2314C29.7416 58.9688 32.1342 58.6965 34.5459 58.4165C31.0321 55.1034 27.668 51.6602 24.458 48.0979C24.4144 48.1032 24.3708 48.1086 24.3272 48.114C23.2977 48.2408 22.2701 48.3673 21.2444 48.4936ZM28.8573 47.5563L27.1135 47.7709C29.714 50.6201 32.4142 53.3908 35.2119 56.0772C33.0055 53.328 30.9179 50.481 28.9422 47.5459C28.9139 47.5494 28.8856 47.5529 28.8573 47.5563ZM31.4403 47.2391C33.9533 50.9221 36.6446 54.459 39.5278 57.8309C45.263 57.1493 51.0955 56.4328 56.9944 55.7083L56.9955 55.7081L56.9994 55.7077L56.9998 55.7076L57.0018 55.7074L57.0037 55.7072L57.0045 55.7071C63.8606 54.8649 70.8064 54.0117 77.7933 53.1894C111.302 49.2458 145.705 46.021 175.316 48.2438C190.642 49.3942 204.719 52.0067 216.738 56.7487C202.237 46.7676 182.287 41.7301 159.229 39.7994C126.271 37.0396 87.1247 40.6423 48.848 45.1404C43.0178 45.8255 37.2065 46.5317 31.4403 47.2391ZM223.125 61.7937C209.892 54.9103 193.302 51.3513 174.713 49.9558C145.398 47.7553 111.247 50.9453 77.7405 54.8886C70.7999 55.7055 63.8847 56.555 57.0468 57.3951L57.0457 57.3952L57.0394 57.396C51.5895 58.0656 46.1887 58.729 40.8632 59.3651C43.9501 62.8494 47.2506 66.1488 50.7808 69.2414C63.1448 68.0524 76.2442 66.4205 89.6679 64.7483C95.4422 64.0289 101.277 63.3021 107.138 62.5999C136.065 59.1343 165.611 56.2744 191.535 57.9689C203.668 58.7619 215.032 60.5541 225.18 63.7567C224.513 63.0863 223.828 62.432 223.125 61.7937ZM227.878 66.6729C217.015 62.7117 204.514 60.5688 190.957 59.6827C165.319 58.0069 136.014 60.8334 107.092 64.2984C101.272 64.9956 95.466 65.719 89.709 66.4363H89.7088L89.7064 66.4366C76.9787 68.0223 64.4913 69.5782 52.6277 70.7552C56.7875 73.8235 61.1075 76.7273 65.5826 79.4536C66.0164 79.4368 66.4516 79.4187 66.8882 79.3996C83.9323 78.6516 102.92 76.1824 122.472 73.6397H122.473C127.229 73.0211 132.02 72.3982 136.824 71.7946C161.321 68.7167 186.135 66.1491 208.357 67.33C216.108 67.742 223.554 68.6106 230.568 70.0749C229.716 68.9013 228.819 67.7676 227.878 66.6729ZM232.192 72.4452C232.157 72.3906 232.122 72.3361 232.086 72.2816C224.514 70.5176 216.369 69.5006 207.812 69.0458C185.868 67.8797 161.286 70.4138 136.794 73.491C132.036 74.0888 127.28 74.7075 122.547 75.323L122.537 75.3243L122.53 75.3252L122.523 75.3262L122.519 75.3266L122.518 75.3268L122.513 75.3275C103.564 77.7919 85.0009 80.2062 68.2391 81.0405C72.2814 83.4076 76.446 85.6318 80.7291 87.7039C89.1624 88.526 98.1789 88.5023 107.594 87.9453C122.911 87.0392 139.189 84.7299 155.654 82.3942L155.655 82.3941L155.655 82.394L155.656 82.3939L155.656 82.3938L155.657 82.3937L155.658 82.3936L155.658 82.3935C159.358 81.8686 163.068 81.3424 166.778 80.8304C190.298 77.5851 213.851 74.9075 234.793 76.9659C234.037 75.4723 233.175 73.9656 232.192 72.4452ZM235.686 78.8344C214.794 76.5244 190.977 79.184 166.786 82.5219C163.103 83.0301 159.412 83.5539 155.723 84.0774L155.721 84.0776C139.25 86.4146 122.819 88.7458 107.368 89.6599C100.061 90.0922 92.9522 90.2094 86.1386 89.8589C90.3838 91.3755 94.8315 92.694 99.4919 93.8006C129.192 100.856 159.86 95.8017 189.486 90.9192C191.981 90.5079 194.469 90.098 196.948 89.6965C210.99 87.4227 224.762 85.424 237.961 85.0999C237.385 83.0354 236.639 80.9477 235.686 78.8344ZM238.4 86.8022C225.222 87.061 211.356 89.0571 197.027 91.3773C194.534 91.7811 192.026 92.1948 189.506 92.6104C160.716 97.3595 130.327 102.372 100.816 95.9792C113.53 100.357 127.096 103.485 141.437 105.173C175.872 109.228 201.444 103.834 223.977 99.0818C225.067 98.8519 226.15 98.6235 227.227 98.3977C231.445 97.513 235.568 96.6681 239.632 95.9337C239.5 92.9352 239.131 89.8942 238.4 86.8022ZM266.874 163.947C270.236 168.182 274.698 172.062 280.556 175.386C278.765 172.529 277.264 169.681 276.002 166.845C272.712 165.994 269.675 165.024 266.874 163.947ZM278.826 167.532C280.4 170.845 282.316 174.173 284.66 177.513C287.615 178.91 290.872 180.183 294.461 181.313C292.573 177.342 291.068 173.4 289.845 169.498C285.907 168.971 282.239 168.311 278.826 167.532ZM292.349 169.812C293.68 173.903 295.332 178.033 297.423 182.191C300.754 183.121 304.349 183.935 308.228 184.621C306.534 179.94 305.204 175.315 304.113 170.762C299.956 170.562 296.039 170.242 292.349 169.812ZM306.493 170.863C307.634 175.53 309.033 180.266 310.825 185.054C314.435 185.62 318.279 186.08 322.371 186.424C320.881 181.181 319.702 176.024 318.688 170.982C314.417 171.046 310.355 171.005 306.493 170.863ZM321.013 170.937C322.053 176.064 323.267 181.298 324.809 186.612C328.661 186.886 332.725 187.06 337.012 187.126C335.688 181.404 334.604 175.806 333.597 170.375C329.217 170.657 325.025 170.843 321.013 170.937ZM333.286 168.696C333.12 167.791 332.955 166.891 332.791 165.996L332.777 165.918L332.777 165.918C332.244 163.005 331.721 160.146 331.181 157.346C326.37 132.406 320.257 112.379 294.705 101.484C309.704 113.973 313.807 130.88 317.24 150.074C317.597 152.072 317.948 154.096 318.302 156.143C319.04 160.411 319.797 164.781 320.673 169.235C324.687 169.15 328.888 168.972 333.286 168.696ZM318.35 169.274C317.513 164.981 316.786 160.775 316.076 156.672C315.721 154.62 315.371 152.594 315.014 150.597C311.196 129.253 306.599 111.246 287.626 98.8517C286.301 98.4275 284.986 98.0443 283.678 97.6999C295.82 110.278 298.865 125.757 301.485 142.803C301.687 144.119 301.887 145.444 302.088 146.779L302.088 146.779C303.173 153.981 304.298 161.451 306.076 169.112C309.952 169.271 314.039 169.328 318.35 169.274ZM303.702 169.001C302.004 161.535 300.911 154.274 299.86 147.299L299.853 147.252C299.653 145.923 299.454 144.604 299.253 143.296C296.48 125.247 293.259 109.351 279.619 96.7476C277.794 96.3717 275.982 96.0683 274.18 95.8306C282.519 107.656 284.399 121 286.044 135.196C286.091 135.606 286.139 136.016 286.186 136.427L286.31 137.506L286.313 137.533V137.533C287.434 147.319 288.602 157.509 291.766 167.955C295.492 168.424 299.465 168.776 303.702 169.001ZM289.277 167.62C286.301 157.414 285.164 147.49 284.081 138.028L284.077 137.994L283.96 136.973L283.897 136.43C283.867 136.167 283.837 135.905 283.807 135.644C282.096 120.887 280.145 107.349 271.174 95.4935C268.947 95.2869 266.73 95.1761 264.516 95.1486C269.32 105.434 270.139 116.269 270.842 127.405C270.865 127.782 270.889 128.16 270.913 128.538L270.915 128.579L270.917 128.611C271.667 140.568 272.439 152.882 277.864 165.412C281.367 166.286 285.164 167.027 289.277 167.62ZM275.079 164.671C270.145 152.47 269.396 140.517 268.678 129.062L268.637 128.394L268.598 127.788C267.876 116.348 267.03 105.434 261.995 95.1524C259.335 95.1931 256.676 95.347 254.003 95.5923C255.943 103.581 255.921 111.576 255.847 119.538L255.84 120.214C255.711 133.829 255.582 147.345 264.688 160.935C267.796 162.336 271.248 163.588 275.079 164.671ZM260.85 159.039C253.35 146.1 253.473 133.235 253.594 120.599L253.601 119.831C253.677 111.748 253.689 103.758 251.703 95.8251C248.476 96.1812 245.225 96.6607 241.927 97.2253C242.011 102.167 241.516 106.969 241.001 111.65L240.908 112.494C239.57 124.606 238.33 135.832 246.497 146.921C249.863 151.49 254.522 155.613 260.85 159.039ZM241.875 95.5391C245.03 94.9998 248.153 94.5359 251.262 94.1809C250.573 91.7754 249.687 89.3749 248.551 86.9785C245.977 86.8293 243.373 86.7652 240.741 86.7747C241.405 89.7456 241.747 92.6659 241.875 95.5391ZM240.323 85.06C242.788 85.0377 245.233 85.0774 247.655 85.1884C246.771 83.5133 245.757 81.8401 244.596 80.1684C242.536 79.7723 240.441 79.4355 238.314 79.1535C239.148 81.1447 239.808 83.1132 240.323 85.06ZM237.468 77.2567C239.351 77.4814 241.212 77.7467 243.048 78.0558C242.831 77.7751 242.61 77.4946 242.385 77.214C241.632 76.2767 240.849 75.3678 240.038 74.4868C238.465 73.9744 236.862 73.5016 235.23 73.0662C236.07 74.4742 236.813 75.8709 237.468 77.2567ZM233.798 70.7992C234.972 71.0813 236.133 71.3814 237.28 71.7002C236.524 70.9888 235.747 70.2976 234.949 69.6263C233.994 69.1713 233.022 68.7338 232.035 68.3132C232.644 69.1226 233.232 69.9511 233.798 70.7992ZM27.8921 45.9818L27.9044 45.9803C23.5256 39.2733 19.7126 32.1244 16.3849 24.6457C14.8952 21.2977 13.5022 17.8824 12.1988 14.4097C13.0336 21.3438 14.2607 28.0182 16.0148 34.3339C19.0742 38.4339 22.3174 42.4094 25.7388 46.2469C26.4556 46.1586 27.1734 46.0703 27.8921 45.9818ZM18.0939 47.1875C16.4315 43.3519 15.0377 39.3397 13.8732 35.1806C7.36137 26.427 1.68172 17.1159 -3.11495 7.37779C-4.71467 16.5748 -5.50475 25.3383 -5.0453 33.4143C-4.71599 39.2026 -3.74555 44.6265 -1.97678 49.5976C4.58196 48.8379 11.2864 48.0233 18.0939 47.1875ZM-4.30795 49.866C-6.02323 44.8891 -6.9641 39.4987 -7.28887 33.79C-7.81174 24.5995 -6.73964 14.5573 -4.71512 4.0433C-8.8643 -4.83519 -12.289 -14.0496 -14.9518 -23.5038C-22.5175 -9.38525 -28.8933 4.27403 -32.5121 16.6778C-36.6217 30.7639 -37.1417 43.1147 -31.9356 52.6664C-23.1414 51.9306 -13.8872 50.9617 -4.30795 49.866ZM-34.3976 52.8671C-39.438 43.003 -38.7581 30.5023 -34.7011 16.5965C-30.8353 3.3461 -23.8738 -11.2808 -15.7156 -26.3014C-18.1185 -35.3876 -19.8212 -44.6844 -20.791 -54.1078C-36.2637 -35.3701 -50.6538 -16.7429 -60.2735 0.0415802C-71.6858 19.9539 -76.222 36.998 -68.3251 48.5708L-69.341 49.0689L-68.3251 48.5709C-66.8759 50.695 -65.0258 52.5368 -62.8054 54.1233C-60.475 54.131 -58.0791 54.1022 -55.6218 54.0401C-48.9493 53.8715 -41.8464 53.4583 -34.3976 52.8671ZM-66.2718 54.0836C-67.8505 52.7379 -69.2176 51.2367 -70.3568 49.5669C-78.7137 37.32 -73.7623 19.5861 -62.3071 -0.400879C-52.2758 -17.9035 -37.1326 -37.3449 -21.0432 -56.7478C-21.3236 -59.9289 -21.5206 -63.1234 -21.6329 -66.3282C-21.8588 -72.7725 -21.7374 -79.1152 -21.3298 -85.3245C-46.241 -62.1256 -70.938 -38.1917 -88.2257 -16.7243C-97.024 -5.79875 -103.873 4.4518 -107.86 13.6151C-111.848 22.7811 -112.942 30.7893 -110.352 37.2919C-107.651 44.0691 -101.258 48.4308 -91.884 51.0176C-84.8761 52.9514 -76.226 53.8851 -66.2718 54.0836ZM-18.9456 -87.5421C-19.4618 -80.739 -19.6367 -73.7695 -19.388 -66.6767C-19.3009 -64.1899 -19.1625 -61.7097 -18.9735 -59.2375C-17.3265 -61.2139 -15.6716 -63.1891 -14.013 -65.1609C-11.1908 -68.5162 -8.35855 -71.8614 -5.53732 -75.1868C-5.87841 -79.1606 -6.1831 -83.1101 -6.45976 -87.0238C-6.73768 -90.9602 -6.90391 -94.8264 -6.9735 -98.6151C-10.9439 -94.9545 -14.9448 -91.2589 -18.9456 -87.5421ZM-4.75321 -100.662C-4.70679 -96.3466 -4.53577 -91.928 -4.21727 -87.4166C-3.98806 -84.1743 -3.73965 -80.9084 -3.46732 -77.6257L-1.70845 -79.6971L-1.70649 -79.6994L-1.70644 -79.6995L-1.70567 -79.7004L-1.70528 -79.7008C2.19765 -84.297 6.06072 -88.8461 9.82723 -93.3221C9.62053 -98.262 9.26891 -103.068 8.7218 -107.703C8.52747 -109.35 8.34504 -110.975 8.17349 -112.577C5.07053 -109.711 1.922 -106.811 -1.256 -103.883L-1.25674 -103.883L-1.25706 -103.882C-2.00127 -103.197 -2.74711 -102.51 -3.49435 -101.821C-3.91354 -101.435 -4.33318 -101.049 -4.75321 -100.662ZM10.2553 -114.501C10.4709 -112.424 10.7047 -110.308 10.9589 -108.154C11.4284 -104.175 11.7548 -100.074 11.9697 -95.873C16.367 -101.119 20.6149 -106.256 24.6203 -111.241C25.0194 -116.995 24.8904 -122.404 24.0787 -127.38C19.6265 -123.19 14.9991 -118.888 10.2553 -114.501ZM26.0666 -129.254L26.1304 -128.909C26.9687 -124.352 27.223 -119.439 27.0154 -114.241C30.6588 -118.835 34.0745 -123.289 37.187 -127.567C37.4856 -127.978 37.7814 -128.387 38.0743 -128.794C39.4234 -133.838 40.1179 -138.492 40.0033 -142.678C35.6403 -138.372 30.9676 -133.885 26.0666 -129.254ZM42.1487 -144.806C42.4416 -141.331 42.1483 -137.54 41.3678 -133.483C46.1003 -140.398 49.8496 -146.74 52.2651 -152.345C52.9865 -154.019 53.586 -155.621 54.057 -157.147C52.3265 -155.263 50.5004 -153.328 48.5888 -151.346C46.5394 -149.222 44.3887 -147.04 42.1487 -144.806ZM17.9035 40.3944C18.6763 42.6159 19.5256 44.785 20.4578 46.897L23.0988 46.572C21.3179 44.5493 19.5859 42.4895 17.9035 40.3944ZM-19.9599 64.3449C-12.0671 68.5548 -1.27834 70.5015 11.6126 70.9709C8.30781 68.6657 5.50444 66.0838 3.14952 63.2572C-3.16891 63.7451 -9.24392 64.0937 -15.0155 64.254C-16.6875 64.3004 -18.3361 64.3311 -19.9599 64.3449ZM5.86157 63.0405C8.51065 66.0356 11.7011 68.7239 15.4999 71.0676C18.9172 71.1151 22.4681 71.0701 26.1392 70.9461C28.8249 70.8553 31.57 70.7226 34.3688 70.5534C31.2039 67.6394 28.4107 64.4717 25.9479 61.0816C19.0528 61.8366 12.3364 62.5066 5.86157 63.0405ZM28.5076 60.7983C31.0872 64.2436 34.0215 67.4421 37.3555 70.3607C40.686 70.1326 44.0877 69.8571 47.5512 69.5432C43.6017 66.4816 39.8038 63.2704 36.162 59.9214C33.5898 60.2225 31.0374 60.5157 28.5076 60.7983ZM250.284 85.3379C249.535 83.8321 248.687 82.3271 247.727 80.8231C249.414 81.2049 251.075 81.6297 252.71 82.1001C253.927 83.3513 255.046 84.6138 256.074 85.8873C254.16 85.652 252.23 85.4706 250.284 85.3379ZM253.573 93.9375C252.945 91.6769 252.149 89.417 251.142 87.1586C253.322 87.336 255.479 87.5782 257.613 87.8924C258.95 89.7261 260.112 91.582 261.124 93.4595C258.608 93.5293 256.094 93.6947 253.573 93.9375ZM287.075 180.696C290.474 184.793 294.852 188.603 300.464 191.957C298.625 189.163 297.013 186.38 295.595 183.61C292.543 182.733 289.707 181.758 287.075 180.696ZM298.585 184.42C300.363 187.713 302.428 191.024 304.837 194.348C307.699 195.779 310.834 197.105 314.267 198.308C312.187 194.367 310.44 190.45 308.954 186.57C305.263 185.962 301.811 185.242 298.585 184.42ZM311.565 186.975C313.185 191.067 315.104 195.195 317.407 199.349C320.619 200.354 324.073 201.259 327.785 202.052C325.847 197.394 324.248 192.778 322.895 188.225C318.898 187.914 315.125 187.494 311.565 186.975ZM325.339 188.4C326.758 193.08 328.442 197.821 330.496 202.602C334.027 203.281 337.781 203.864 341.77 204.34C340.046 199.105 338.632 193.934 337.419 188.856C333.187 188.804 329.164 188.65 325.339 188.4ZM246.258 78.6463C245.661 77.8092 245.028 76.9724 244.356 76.1359L244.311 76.0797L244.225 75.9736C245.274 76.3787 246.309 76.8035 247.327 77.2488C248.227 77.9605 249.103 78.6973 249.956 79.4599C248.736 79.1664 247.503 78.8955 246.258 78.6463ZM-18.7499 -56.5729C-16.5768 -59.1906 -14.3857 -61.809 -12.1867 -64.4233C-9.89848 -67.1438 -7.60148 -69.8601 -5.30736 -72.5666C-4.61212 -64.8187 -3.77219 -56.9888 -2.72583 -49.1626C-3.92822 -47.1092 -5.12614 -45.0541 -6.31505 -42.9993C-8.97665 -38.3993 -11.5926 -33.8023 -14.1099 -29.2356C-16.3462 -38.1742 -17.9036 -47.313 -18.7499 -56.5729ZM-3.24449 -74.9988C-2.59474 -67.5064 -1.81445 -59.9354 -0.847771 -52.3629C0.601685 -54.8282 2.05417 -57.2891 3.50179 -59.7418C5.67384 -63.4219 7.83493 -67.0834 9.95835 -70.7131C10.101 -77.4788 10.127 -84.113 9.92833 -90.5368C6.69448 -86.7037 3.39928 -82.8233 0.078598 -78.9129L0.0784836 -78.9128L0.0778198 -78.912L0.0772018 -78.9113C-1.02765 -77.6102 -2.13532 -76.3058 -3.24449 -74.9988ZM12.0948 -93.109C12.3313 -87.1291 12.3599 -80.963 12.2695 -74.6783C15.5343 -80.3028 18.6835 -85.838 21.6158 -91.2336C22.8512 -97.0071 23.7946 -102.58 24.3326 -107.886C20.4291 -103.076 16.3224 -98.1367 12.0948 -93.109ZM26.8283 -110.979C26.5153 -106.753 25.9261 -102.357 25.122 -97.8266C26.0612 -99.6363 26.97 -101.427 27.8442 -103.197C31.3563 -110.307 34.291 -117.044 36.3982 -123.282C33.4206 -119.307 30.2115 -115.197 26.8283 -110.979ZM46.3648 79.2917C35.5705 78.5644 26.156 76.5962 18.6136 72.8043C20.9734 72.7953 23.3836 72.747 25.8392 72.6641C29.1909 72.5509 32.6348 72.3726 36.1588 72.1402C39.2234 74.7557 42.6144 77.1479 46.3648 79.2917ZM51.0165 79.5272C46.6391 77.306 42.7211 74.7613 39.2166 71.9267C42.5893 71.6786 46.0305 71.3849 49.5299 71.055C49.7763 71.2405 50.0232 71.4254 50.2707 71.6097C53.6213 74.454 57.1738 77.12 60.9411 79.5894C57.5329 79.6548 54.2208 79.6386 51.0165 79.5272ZM260.699 88.4007C261.815 90.0584 262.8 91.7326 263.669 93.4221C265.668 93.4194 267.671 93.4807 269.681 93.6149C268.52 92.2232 267.255 90.8557 265.873 89.5134C264.165 89.0885 262.44 88.7189 260.699 88.4007ZM320.669 208.902C315.303 205.5 311.003 201.741 307.559 197.768C310.058 198.836 312.733 199.833 315.595 200.749C317.116 203.457 318.8 206.176 320.669 208.902ZM324.299 210.176C322.251 207.344 320.411 204.52 318.754 201.706C321.846 202.591 325.142 203.388 328.653 204.088C330.357 207.99 332.308 211.92 334.56 215.867C331.252 214.563 328.21 213.157 325.415 211.664C325.033 211.17 324.661 210.674 324.299 210.176ZM337.909 217.119C335.4 212.927 333.245 208.751 331.377 204.604C334.845 205.228 338.514 205.76 342.394 206.195C343.979 210.817 345.815 215.485 347.979 220.18C344.391 219.253 341.039 218.229 337.909 217.119ZM256.888 83.4247C257.718 84.3857 258.496 85.353 259.224 86.3262C260.538 86.5314 261.844 86.7638 263.141 87.0249C263.021 86.9219 262.9 86.8191 262.778 86.7165C261.933 86.0045 261.067 85.3179 260.183 84.656C259.099 84.2213 258 83.8112 256.888 83.4247ZM-4.28522 -42.5502C-7.4143 -37.1423 -10.4736 -31.7493 -13.3795 -26.4136C-10.9363 -17.2788 -7.78074 -8.36401 -3.94759 0.244873C-2.50307 -6.59409 -0.695602 -13.6098 1.30328 -20.7008C1.46133 -21.2615 1.62061 -21.8227 1.78101 -22.3844C0.161873 -30.177 -1.1737 -38.0737 -2.28957 -45.986C-2.9574 -44.8403 -3.62289 -43.6949 -4.28522 -42.5502ZM3.15883 -27.1322C1.74401 -34.4213 0.565346 -41.7908 -0.428856 -49.1693C1.53276 -52.5167 3.50788 -55.8632 5.47604 -59.1978L5.47773 -59.2007L5.48087 -59.206L5.48865 -59.2192L5.4905 -59.2223L5.49496 -59.2299C6.95649 -61.7061 8.41412 -64.1757 9.85952 -66.6344C9.74953 -62.5831 9.60595 -58.4909 9.45146 -54.3743C9.38226 -52.5304 9.31088 -50.6817 9.23936 -48.8296L9.23934 -48.8292L9.16067 -46.7891L9.15947 -46.7852C7.12646 -40.2424 5.08259 -33.6646 3.15883 -27.1322ZM11.7108 -55.0216C11.9068 -60.2652 12.0843 -65.4763 12.1958 -70.6188C14.8719 -75.1962 17.4892 -79.7268 19.9928 -84.1814C19.5588 -82.4104 19.1029 -80.6238 18.628 -78.8234C16.5864 -71.0838 14.1988 -63.1036 11.7108 -55.0216ZM4.06462 -22.634C5.58579 -27.9485 7.20734 -33.3064 8.85917 -38.6688C8.4518 -27.0396 8.18667 -15.3942 8.56864 -4.11966C6.86147 -10.1897 5.37119 -16.3765 4.06462 -22.634ZM-2.41631 3.59106C-1.05689 -3.39249 0.724281 -10.6004 2.74155 -17.9255C4.51561 -9.97841 6.60073 -2.15868 9.06581 5.43822C9.6594 13.7015 10.6976 21.7122 12.3979 29.3059C6.74467 21.1501 1.79316 12.5454 -2.41631 3.59106ZM54.8559 81.3396C55.7395 81.7269 56.6401 82.1021 57.5581 82.465C62.5921 84.4547 68.0112 85.863 73.7499 86.8015C70.1837 85.0946 66.7792 83.235 63.5287 81.2337C60.5773 81.3275 57.6835 81.366 54.8559 81.3396ZM328.568 215.429C332.05 219.276 336.254 222.989 341.34 226.453C339.443 223.797 337.703 221.143 336.104 218.496C333.438 217.534 330.928 216.509 328.568 215.429ZM339.464 219.648C340.797 221.756 342.222 223.867 343.748 225.981C344.673 227.259 345.654 228.537 346.695 229.812C349.42 231.387 352.359 232.895 355.531 234.326C353.078 230.32 350.914 226.319 348.994 222.335C345.627 221.519 342.453 220.62 339.464 219.648ZM272.729 93.8747C271.886 92.7914 270.983 91.7215 270.017 90.6656C271.195 91.0287 272.364 91.4207 273.524 91.8429C274.722 92.6859 275.859 93.5467 276.939 94.4251C275.53 94.2025 274.127 94.0201 272.729 93.8747ZM363.006 245.29C358.146 241.671 353.993 237.909 350.431 234.091C352.625 235.184 354.936 236.237 357.373 237.247C358.578 239.106 359.848 240.966 361.187 242.824C361.777 243.642 362.383 244.464 363.006 245.29ZM280.872 94.9935C280.947 95.061 281.022 95.1287 281.096 95.1964C281.2 95.2186 281.304 95.2411 281.408 95.2637C281.23 95.1728 281.051 95.0827 280.872 94.9935Z" fill="url(#paint0_linear_10_13)"/>
<defs>
<linearGradient id="paint0_linear_10_13" x1="-114.472" y1="63.038" x2="711.452" y2="63.038" gradientUnits="userSpaceOnUse">
<stop stop-color="#D3B688"/>
<stop offset="0.03" stop-color="#DAC195"/>
<stop offset="0.09" stop-color="#E9D8AF"/>
<stop offset="0.15" stop-color="#F4E8C2"/>
<stop offset="0.22" stop-color="#FAF2CE"/>
<stop offset="0.29" stop-color="#FDF6D2"/>
<stop offset="0.62" stop-color="#A3195B"/>
<stop offset="0.89" stop-color="#951B81"/>
<stop offset="1" stop-color="#671C72"/>
</linearGradient>
</defs>
</svg>
