<svg width="79" height="78" viewBox="0 0 79 78" fill="none" xmlns="http://www.w3.org/2000/svg">
<path d="M39.4031 77.9827C32.4542 77.9827 25.5053 78.0283 18.5582 77.9644C14.8418 77.9298 11.2547 77.2325 8.04619 75.2139C4.06931 72.7116 1.596 69.1599 0.585623 64.6408C0.116451 62.5473 -0.00361229 60.4046 8.1973e-05 58.2491C0.0222476 44.8031 -0.027625 31.359 0.0370246 17.913C0.0554959 14.0784 0.951355 10.4062 3.28428 7.2249C6.18243 3.27161 10.1057 1.05221 15.0136 0.349526C18.0466 -0.084862 21.0722 0.0355986 24.1033 0.0301231C36.3701 0.00457087 48.6388 -0.0301072 60.9037 0.0483747C64.7809 0.0739269 68.5084 0.968255 71.7224 3.27343C75.6605 6.09878 77.9398 9.90971 78.6473 14.688C78.9909 17.0114 78.989 19.3294 78.989 21.6564C78.9909 34.4033 79.0278 47.1503 78.9631 59.8972C78.9465 63.0821 78.3813 66.2104 76.7743 69.065C74.711 72.7262 71.7464 75.3234 67.7197 76.747C65.2039 77.6359 62.6105 77.9608 59.9709 77.9717C53.1144 78.0009 46.2597 77.9809 39.4031 77.9809V77.9827ZM41.0157 48.0993C40.2362 52.9451 39.4567 57.7928 38.6753 62.6386C38.2302 65.3946 37.7776 68.1469 37.3177 70.9595C37.6908 70.8043 37.7684 70.5196 37.9162 70.3024C39.8446 67.4935 41.76 64.6754 43.6866 61.8647C47.7614 55.9147 51.7327 49.9026 55.0446 43.4945C56.4688 40.7403 57.7026 37.9058 58.3805 34.8651C58.883 33.4506 58.9883 31.9704 59.1268 30.4957C60.2572 18.4332 50.1959 8.3419 37.9679 9.27273C29.979 9.88233 23.1705 15.1862 20.7194 22.7114C18.2848 30.1891 20.6621 38.426 26.7484 43.4981C30.8675 46.9312 35.6627 48.3676 41.0157 48.0993Z" fill="#FEFEFE"/>
<path d="M41.0157 48.0992C35.6645 48.3675 30.8694 46.9311 26.7484 43.498C20.6621 38.4259 18.283 30.1889 20.7194 22.7112C23.1705 15.1861 29.9772 9.8822 37.9679 9.2726C50.1941 8.33994 60.2572 18.4331 59.1268 30.4955C58.9883 31.9703 58.8848 33.4505 58.3806 34.865C58.0462 34.666 58.1293 35 58.0905 35.1114C57.6306 36.3671 57.0654 37.5699 56.3579 38.7124C53.626 43.1256 49.7212 45.9857 44.7007 47.4202C43.489 47.767 42.2366 47.8273 41.0175 48.0992H41.0157ZM39.4659 36.4255C43.7716 36.4437 47.3439 32.9467 47.3661 28.6959C47.3883 24.4324 43.8658 20.9372 39.5343 20.9262C35.1861 20.9135 31.671 24.3411 31.6341 28.6284C31.5971 32.8555 35.1658 36.4072 39.4659 36.4255Z" fill="#FE3333"/>
<path d="M41.0157 48.0992C42.2348 47.8291 43.4871 47.767 44.6988 47.4202C49.7193 45.9857 53.6242 43.1238 56.3561 38.7124C57.0635 37.5699 57.6288 36.3671 58.0887 35.1114C58.1293 35.0019 58.0462 34.6679 58.3787 34.865C57.7008 37.9057 56.4669 40.7383 55.0428 43.4943C51.7309 49.9025 47.7577 55.9145 43.6848 61.8646C41.7601 64.6753 39.8427 67.4933 37.9143 70.3023C37.7647 70.5195 37.6871 70.8042 37.3159 70.9593C37.7739 68.1468 38.2283 65.3944 38.6735 62.6384C39.4567 57.7926 40.2343 52.945 41.0138 48.0992H41.0157Z" fill="#DF0303"/>
<path d="M39.4659 36.4255C35.1639 36.4072 31.5971 32.8573 31.6341 28.6284C31.671 24.3411 35.1861 20.9135 39.5343 20.9262C43.8676 20.939 47.3901 24.4324 47.3661 28.6959C47.3439 32.9467 43.7697 36.4419 39.4659 36.4255Z" fill="#FEFDFD"/>
</svg>
